<svg width="368" height="348" viewBox="0 0 368 348" fill="none" xmlns="http://www.w3.org/2000/svg">
  <path d="M175.062 76.3472L97.7059 117.18L175.062 76.3472Z" fill="white" />
  <path
    d="M97.6922 117.549L96.8944 117.953C96.4144 117.194 95.7508 116.555 94.9108 116.108L2.56718 67.5952C1.56475 69.2135 1 71.1086 1 73.0817V193.295C1 195.24 2.08008 197.021 3.80257 197.923L95.2849 245.889C96.0403 246.279 96.8733 246.492 97.6992 246.492V117.563L88.3103 112.637L97.671 117.549H97.6851H97.6922Z"
    fill="white" />
  <path
    d="M87.0966 29.4594L173.129 74.4018L84.2094 27.9547C81.1668 26.3719 77.5312 26.3719 74.4957 27.9547C78.1171 27.0533 83.7928 27.7346 87.0966 29.4665V29.4594Z"
    fill="white" />
  <path
    d="M100.268 116.342L175.062 76.9999C174.582 76.2192 173.905 75.5662 173.065 75.119L87.3498 29.6655C84.0531 27.9195 78.4127 27.2239 74.7912 28.1395L18.2033 58.1414L6.91538 64.1318C5.24231 65.019 3.87985 66.325 2.9339 67.8865L88.2605 112.85L2.94095 67.8723L94.8186 116.314C95.6375 116.747 96.3082 117.386 96.7882 118.152L97.5647 117.748H97.593L100.268 116.349V116.335V116.342Z"
    fill="#EAEAEA" />
  <path
    d="M96.8945 117.953C96.4144 117.194 95.7508 116.555 94.9108 116.108L2.56718 67.5952C1.56475 69.2135 1 71.1086 1 73.0817V193.295C1 195.24 2.08008 197.021 3.80257 197.923L95.2849 245.889C96.0403 246.279 96.8733 246.492 97.6992 246.492V121.133C97.6992 118.94 96.485 116.924 94.5437 115.909L88.3103 112.644"
    stroke="black" stroke-width="0.40441" stroke-miterlimit="10" />
  <path
    d="M100.268 116.342L175.062 76.9999C174.582 76.2192 173.905 75.5662 173.065 75.119L87.3498 29.6655C84.0531 27.9195 78.4127 27.2239 74.7912 28.1395L18.2033 58.1414L6.91538 64.1318C5.24231 65.019 3.87985 66.325 2.9339 67.8865L88.2605 112.85L2.94095 67.8723L94.8186 116.314C95.6375 116.747 96.3082 117.386 96.7882 118.152L97.5647 117.748H97.593L100.268 116.349V116.335V116.342Z"
    stroke="black" stroke-width="0.40441" stroke-linejoin="round" />
  <path
    d="M175.261 76.3469L96.7325 117.641C97.2549 118.465 97.5373 119.437 97.5373 120.445V246.492C98.3703 246.492 99.1891 246.294 99.9445 245.889L174.633 206.667C174.837 206.547 175.035 206.419 175.219 206.249C175.557 205.922 175.804 205.518 175.932 205.056C175.995 204.836 176.023 204.588 176.023 204.346V79.0937C176.023 78.1001 175.734 77.1561 175.24 76.3398H175.254L175.261 76.3469Z"
    stroke="black" stroke-width="0.40441" stroke-miterlimit="10" />
  <path
    d="M175.261 76.3469L96.7325 117.641C97.2549 118.465 97.5373 119.437 97.5373 120.445V246.492C98.3703 246.492 99.1891 246.294 99.9445 245.889L174.633 206.667C174.837 206.547 175.035 206.419 175.219 206.249C175.557 205.922 175.804 205.518 175.932 205.056C175.995 204.836 176.023 204.588 176.023 204.346V79.0937C176.023 78.1001 175.734 77.1561 175.24 76.3398H175.254L175.261 76.3469Z"
    fill="#C6C6C6" stroke="black" stroke-width="0.40441" stroke-miterlimit="10" />
  <path d="M99.4783 166.437L14.1235 121.381L99.4783 166.437Z" fill="white" />
  <path d="M26.809 214.049L31.8776 212.367L31.8353 212.353L26.809 214.049H26.8019H26.809Z" fill="white" />
  <path d="M122.174 180.796L123.812 207.185L140.514 198.966L139.201 173.017L122.174 180.796Z" fill="white" />
  <path d="M123.748 181.897L124.857 199.577L138.806 193.047L137.394 175.963L123.748 181.897Z" fill="black" />
  <path
    d="M130.496 180.527C132.091 180.527 133.384 179.227 133.384 177.624C133.384 176.02 132.091 174.721 130.496 174.721C128.902 174.721 127.609 176.02 127.609 177.624C127.609 179.227 128.902 180.527 130.496 180.527Z"
    fill="black" />
  <path
    d="M129.79 180.527C131.385 180.527 132.678 179.227 132.678 177.624C132.678 176.02 131.385 174.721 129.79 174.721C128.196 174.721 126.903 176.02 126.903 177.624C126.903 179.227 128.196 180.527 129.79 180.527Z"
    fill="white" stroke="black" stroke-width="0.29736" stroke-linecap="round" stroke-linejoin="round" />
  <path d="M87.4496 81.0898V53.7922L58.8495 48.8203V75.999L87.4496 81.0898Z" fill="white" stroke="black"
    stroke-width="0.844503" stroke-miterlimit="10" />
  <path d="M100.289 38.2761L87.4552 53.7983L58.8551 48.8264L71.8081 33.3042L100.289 38.2761Z" fill="#CECECE"
    stroke="black" stroke-width="0.844503" stroke-linecap="round" stroke-linejoin="round" />
  <path d="M87.4506 81.0899L100.285 65.5677V38.27L87.4506 53.7922V81.0899Z" fill="#CECECE" stroke="black"
    stroke-width="0.844503" stroke-linecap="round" stroke-linejoin="round" />
  <path d="M100.289 38.2759V65.5735" stroke="black" stroke-width="0.0832609" stroke-linecap="round"
    stroke-linejoin="round" />
  <path d="M100.289 38.2759L87.4552 53.7981" stroke="black" stroke-width="0.844503" stroke-linecap="round"
    stroke-linejoin="round" />
  <path opacity="0.2"
    d="M78.4518 79.9598C78.7075 79.9598 78.9216 79.7516 78.9216 79.4959V71.1163L87.3904 72.4603H87.4439C87.5867 72.4603 87.7175 72.4009 87.8067 72.2938L91.4821 67.8512V75.654C91.4821 75.9097 91.6902 76.1179 91.9519 76.1179C92.2136 76.1179 92.4217 75.9097 92.4217 75.654V66.7213L95.657 62.814V70.6167C95.657 70.8724 95.8652 71.0806 96.1268 71.0806C96.3885 71.0806 96.5967 70.8724 96.5967 70.6167V61.684L100.659 56.7716C100.825 56.5753 100.795 56.278 100.593 56.1174C100.51 56.0461 100.403 56.0104 100.296 56.0104C100.153 56.0104 100.022 56.0698 99.939 56.1828L96.6026 60.221V52.5848L100.659 47.6724C100.825 47.4761 100.795 47.1847 100.593 47.0182C100.51 46.9468 100.403 46.9111 100.296 46.9111C100.153 46.9111 100.022 46.9706 99.939 47.0836L96.6026 51.1218V43.3844L96.5907 43.3369C96.5907 43.3369 96.5907 43.3012 96.5788 43.2715V43.2536L96.5431 43.1941C96.5431 43.1941 96.5134 43.1466 96.4956 43.1228L96.4837 43.1049L96.4301 43.0574C96.4301 43.0574 96.3826 43.0217 96.3528 43.0098C96.329 42.9979 96.2993 42.98 96.2636 42.9741L96.2339 42.9622H96.2161L87.9494 41.5111L91.7021 36.9734C91.8627 36.7771 91.8389 36.4797 91.6367 36.3192C91.5534 36.2478 91.4464 36.2121 91.3453 36.2121C91.2026 36.2121 91.0717 36.2716 90.9825 36.3846L86.8968 41.3267L77.6786 39.7091L81.4016 35.207C81.5622 35.0048 81.5383 34.7134 81.3361 34.5528C81.2529 34.4815 81.1458 34.4458 81.0447 34.4458C80.902 34.4458 80.7712 34.5053 80.682 34.6183L76.6319 39.5188L67.6457 37.9428H67.5862C67.3543 37.9428 67.164 38.0974 67.1283 38.3234C67.1045 38.4423 67.1283 38.5672 67.2056 38.6683C67.2829 38.7694 67.384 38.8408 67.5089 38.8586L75.9599 40.3395L72.5878 44.4193L63.5897 42.8135H63.5243C63.2983 42.8135 63.108 42.9741 63.0663 43.1882C63.0188 43.438 63.1853 43.6818 63.447 43.7234L71.9098 45.234L67.8479 50.1464C67.7765 50.2297 67.7408 50.3308 67.7408 50.4378V58.9245L58.9509 57.4615H58.8973C58.6713 57.4615 58.4692 57.6221 58.4335 57.8481C58.4156 57.967 58.4453 58.0919 58.5108 58.193C58.5821 58.2941 58.6892 58.3595 58.8141 58.3833L67.7349 59.8641V68.3924L59.052 67.0127H58.9984C58.7724 67.0127 58.5762 67.1733 58.5405 67.3993C58.4989 67.655 58.6773 67.8929 58.9271 67.9345L67.7349 69.3321V77.4025C67.7349 77.6582 67.9431 77.8663 68.2047 77.8663C68.4664 77.8663 68.6745 77.6582 68.6745 77.4025V69.4808L78.0236 70.9616V79.4899C78.0236 79.7457 78.2317 79.9538 78.4934 79.9538H78.4755L78.4518 79.9598ZM87.2536 71.5028L78.9216 70.1826V61.7435L87.0217 63.0935C87.0514 63.1589 87.093 63.2124 87.1466 63.26C87.2298 63.3314 87.3369 63.3671 87.4439 63.3671C87.5867 63.3671 87.7175 63.3076 87.8067 63.1946L91.4821 58.752V66.3882L87.2536 71.4969V71.5028ZM77.9819 70.0398L68.6329 68.559V60.0426L77.9819 61.6007V70.0458V70.0398ZM92.4158 65.2642V57.628L95.6511 53.7207V61.3569L92.4158 65.2642ZM87.4082 62.2252L78.9216 60.8098V52.4064L83.1738 47.262L91.4821 48.7429V57.289L87.4082 62.2192V62.2252ZM78.0949 51.9544C78.0236 52.0376 77.9879 52.1387 77.9879 52.2458V60.6551L68.6389 59.097V50.6222L72.9268 45.4362L82.1271 47.0777L78.0949 51.9484V51.9544ZM92.4217 56.1769V48.3742C92.4217 48.1541 92.2611 47.9578 92.0411 47.9222L83.8637 46.4651L87.2596 42.3615L95.657 43.8364V52.2815L92.4217 56.1888V56.1769ZM82.8051 46.2629L73.6048 44.6215L76.9769 40.5417L86.195 42.1593L82.7992 46.2629H82.8051Z"
    fill="black" />
  <path
    d="M58.8146 58.1514C58.6897 58.1277 58.6005 58.0147 58.6243 57.8838C58.6481 57.7589 58.767 57.6697 58.8979 57.6935L67.9436 59.1982V50.4379C67.9436 50.3844 67.9614 50.3309 67.9971 50.2892L72.3148 45.0735L63.4535 43.4916C63.3286 43.4678 63.2453 43.3489 63.2691 43.224C63.2928 43.0991 63.4118 43.0099 63.5367 43.0396L72.6538 44.6691L76.3648 40.1849L67.5213 38.6327C67.3964 38.6089 67.3132 38.49 67.331 38.3651C67.3548 38.2402 67.4738 38.151 67.6046 38.1748L76.7098 39.7686L80.849 34.767C80.9263 34.6719 81.075 34.654 81.1761 34.7373C81.2772 34.8206 81.2891 34.9633 81.2118 35.0644L77.2391 39.8697L86.9865 41.5825L91.1615 36.5393C91.2447 36.4441 91.3934 36.4263 91.4885 36.5036C91.5837 36.5869 91.6015 36.7296 91.5183 36.8307L87.5099 41.6717L96.169 43.1942C96.169 43.1942 96.1809 43.1942 96.1928 43.2061C96.2047 43.2061 96.2225 43.218 96.2344 43.224C96.2463 43.2359 96.2582 43.2359 96.2701 43.2478C96.282 43.2596 96.2939 43.2656 96.2999 43.2775C96.3117 43.2894 96.3177 43.3013 96.3236 43.3132C96.3355 43.3251 96.3355 43.3429 96.3415 43.3548C96.3415 43.3667 96.3534 43.3845 96.3534 43.4024C96.3534 43.4143 96.3534 43.4202 96.3534 43.4321V51.782L100.106 47.2383C100.189 47.1432 100.338 47.1253 100.433 47.2086C100.534 47.2919 100.546 47.4346 100.469 47.5297L96.3534 52.5016V60.8693L100.106 56.3376C100.189 56.2424 100.338 56.2246 100.433 56.3078C100.534 56.3911 100.546 56.5338 100.469 56.6349L96.3534 61.6068V70.6227C96.3534 70.7536 96.2523 70.8547 96.1214 70.8547C95.9906 70.8547 95.8895 70.7536 95.8895 70.6227V62.1718L92.1844 66.6441V75.66C92.1844 75.7909 92.0833 75.892 91.9524 75.892C91.8216 75.892 91.7205 75.7909 91.7205 75.66V67.209L87.6288 72.1512C87.5812 72.2047 87.5158 72.2344 87.4445 72.2344H87.4088L78.6842 70.8547V79.5079C78.6842 79.6387 78.5831 79.7398 78.4523 79.7398C78.3215 79.7398 78.2203 79.6387 78.2203 79.5079V70.7833L68.4015 69.2251V77.4204C68.4015 77.5512 68.3004 77.6523 68.1696 77.6523C68.0387 77.6523 67.9376 77.5512 67.9376 77.4204V69.1538L58.9336 67.7264C58.8087 67.7086 58.7194 67.5897 58.7373 67.4648C58.7551 67.3399 58.8741 67.2507 59.0049 67.2745L67.9376 68.6899V59.6977L58.8206 58.1752L58.8146 58.1514ZM68.4015 50.5212V59.2814L78.2203 60.9169V52.234C78.2203 52.1805 78.2382 52.1269 78.2739 52.0853L82.5559 46.9112L72.8322 45.1746L68.4075 50.5271L68.4015 50.5212ZM87.4861 62.4513H87.498L91.7145 57.3545V48.5289L83.0792 46.9885L78.6842 52.2994V60.9764L87.4801 62.4394L87.4861 62.4513ZM76.8822 40.2741L73.1712 44.7643L82.8948 46.5009L86.6297 41.9869L76.8822 40.2741ZM95.8895 43.5986L87.165 42.0702L83.4301 46.5901L92 48.1185C92.113 48.1364 92.1903 48.2375 92.1903 48.3445V56.7955L95.8954 52.3232V43.5986H95.8895ZM95.8895 61.4224V53.0547L92.1903 57.527V65.8947L95.8895 61.4224ZM87.3612 71.7349L91.7265 66.4538V58.086L87.6348 63.0282C87.5872 63.0817 87.5218 63.1114 87.4504 63.1114C87.3969 63.1114 87.3493 63.0936 87.3017 63.0579C87.2423 63.0103 87.2185 62.939 87.2244 62.8676L78.6961 61.4522V70.3551L87.3612 71.7289V71.7349ZM68.4134 68.7315L78.2322 70.2897V61.3808L68.4134 59.7453V68.7375V68.7315Z"
    fill="black" />
  <path d="M11.4461 92.6987V185.536L76.6464 219.513L77.3594 128.166L11.4461 92.6987Z" fill="white" stroke="black"
    stroke-width="0.59472" stroke-linecap="round" stroke-linejoin="round" />
  <path d="M11.4461 92.6986L16.6983 89.8027L82.7528 125.227L77.3524 128.173L11.4461 92.6986Z" fill="#EAEAEA"
    stroke="black" stroke-width="0.59472" stroke-linecap="round" stroke-linejoin="round" />
  <path d="M82.76 125.227V216.035L76.6465 219.52L77.3595 128.173L82.76 125.227Z" fill="#EAEAEA" stroke="black"
    stroke-width="0.59472" stroke-linecap="round" stroke-linejoin="round" />
  <path opacity="0.2" d="M11.4461 185.536L77.3594 128.166L76.8864 147.045L23.1505 191.633L11.4461 185.536Z"
    fill="white" />
  <path opacity="0.2" d="M76.6468 156.791L28.9961 194.686L33.1964 196.872L76.6468 163.363V156.791Z" fill="white" />
  <path
    d="M33.0407 152.612C33.8373 152.075 33.9249 150.803 33.2365 149.771C32.548 148.739 31.3442 148.338 30.5477 148.875C29.7512 149.412 29.6636 150.684 30.352 151.716C31.0404 152.748 32.2442 153.149 33.0407 152.612Z"
    fill="black" />
  <path
    d="M41.4608 156.857C42.2573 156.32 42.3449 155.048 41.6565 154.016C40.9681 152.984 39.7643 152.583 38.9678 153.12C38.1712 153.657 38.0836 154.929 38.772 155.961C39.4605 156.993 40.6643 157.395 41.4608 156.857Z"
    fill="black" />
  <path
    d="M49.8822 161.095C50.6788 160.558 50.7664 159.286 50.078 158.254C49.3895 157.222 48.1857 156.821 47.3892 157.358C46.5927 157.895 46.505 159.167 47.1935 160.199C47.8819 161.231 49.0857 161.632 49.8822 161.095Z"
    fill="black" />
  <path
    d="M33.0417 161.533C33.8382 160.996 33.9258 159.724 33.2374 158.692C32.549 157.66 31.3452 157.259 30.5486 157.796C29.7521 158.333 29.6645 159.605 30.3529 160.637C31.0413 161.669 32.2451 162.07 33.0417 161.533Z"
    fill="black" />
  <path
    d="M41.4668 165.785C42.2633 165.247 42.3509 163.975 41.6625 162.943C40.9741 161.911 39.7703 161.51 38.9737 162.047C38.1772 162.585 38.0896 163.857 38.778 164.889C39.4664 165.921 40.6702 166.322 41.4668 165.785Z"
    fill="black" />
  <path
    d="M49.8799 170.022C50.6764 169.485 50.7641 168.213 50.0756 167.181C49.3872 166.149 48.1834 165.748 47.3869 166.285C46.5904 166.822 46.5027 168.094 47.1912 169.126C47.8796 170.158 49.0834 170.56 49.8799 170.022Z"
    fill="black" />
  <path
    d="M33.0393 170.46C33.8359 169.923 33.9235 168.651 33.2351 167.619C32.5466 166.587 31.3428 166.186 30.5463 166.723C29.7498 167.26 29.6621 168.532 30.3506 169.564C31.039 170.596 32.2428 170.998 33.0393 170.46Z"
    fill="black" />
  <path
    d="M41.4608 174.706C42.2573 174.168 42.3449 172.896 41.6565 171.864C40.9681 170.832 39.7643 170.431 38.9678 170.968C38.1712 171.505 38.0836 172.778 38.772 173.81C39.4605 174.842 40.6643 175.243 41.4608 174.706Z"
    fill="black" />
  <path
    d="M49.8855 178.957C50.682 178.42 50.7696 177.148 50.0812 176.116C49.3928 175.084 48.189 174.683 47.3924 175.22C46.5959 175.757 46.5083 177.029 47.1967 178.061C47.8851 179.093 49.0889 179.494 49.8855 178.957Z"
    fill="black" />
  <path
    d="M32.3341 152.61C33.1306 152.073 33.2182 150.801 32.5298 149.769C31.8414 148.737 30.6376 148.336 29.8411 148.873C29.0445 149.41 28.9569 150.682 29.6453 151.714C30.3337 152.746 31.5375 153.147 32.3341 152.61Z"
    fill="#F0F0F0" />
  <path
    d="M40.7546 156.855C41.5511 156.318 41.6388 155.046 40.9503 154.014C40.2619 152.982 39.0581 152.581 38.2616 153.118C37.4651 153.655 37.3774 154.927 38.0658 155.959C38.7543 156.991 39.9581 157.392 40.7546 156.855Z"
    fill="#F0F0F0" />
  <path
    d="M49.1761 161.101C49.9726 160.563 50.0602 159.291 49.3718 158.259C48.6834 157.227 47.4796 156.826 46.683 157.363C45.8865 157.901 45.7989 159.173 46.4873 160.205C47.1757 161.237 48.3795 161.638 49.1761 161.101Z"
    fill="#F0F0F0" />
  <path
    d="M32.3354 161.531C33.1319 160.994 33.2196 159.722 32.5312 158.69C31.8427 157.658 30.6389 157.257 29.8424 157.794C29.0459 158.331 28.9582 159.603 29.6467 160.635C30.3351 161.667 31.5389 162.068 32.3354 161.531Z"
    fill="#F0F0F0" />
  <path
    d="M40.7592 165.782C41.5557 165.245 41.6434 163.973 40.9549 162.941C40.2665 161.909 39.0627 161.508 38.2662 162.045C37.4696 162.582 37.382 163.854 38.0704 164.886C38.7589 165.918 39.9627 166.319 40.7592 165.782Z"
    fill="#F0F0F0" />
  <path
    d="M49.1737 170.028C49.9703 169.491 50.0579 168.219 49.3695 167.187C48.681 166.155 47.4772 165.753 46.6807 166.291C45.8842 166.828 45.7965 168.1 46.485 169.132C47.1734 170.164 48.3772 170.565 49.1737 170.028Z"
    fill="#F0F0F0" />
  <path
    d="M32.3336 170.466C33.1301 169.929 33.2178 168.657 32.5293 167.625C31.8409 166.593 30.6371 166.191 29.8406 166.729C29.044 167.266 28.9564 168.538 29.6448 169.57C30.3333 170.602 31.5371 171.003 32.3336 170.466Z"
    fill="#F0F0F0" />
  <path
    d="M40.7546 174.704C41.5511 174.166 41.6388 172.894 40.9503 171.862C40.2619 170.83 39.0581 170.429 38.2616 170.966C37.4651 171.504 37.3774 172.776 38.0658 173.808C38.7543 174.84 39.9581 175.241 40.7546 174.704Z"
    fill="#F0F0F0" />
  <path
    d="M49.1792 178.955C49.9758 178.417 50.0634 177.145 49.375 176.113C48.6865 175.081 47.4827 174.68 46.6862 175.217C45.8897 175.755 45.802 177.027 46.4905 178.059C47.1789 179.091 48.3827 179.492 49.1792 178.955Z"
    fill="#F0F0F0" />
  <path
    d="M25.8539 122.331V133.134C25.8539 133.929 26.2845 134.66 26.9763 135.029L54.3243 149.657C55.0797 150.062 55.9903 149.494 55.9903 148.621V137.414C55.9903 136.981 55.7574 136.583 55.3832 136.378L27.5128 121.295C26.7645 120.883 25.8539 121.444 25.8539 122.317V122.331Z"
    fill="black" />
  <path
    d="M28.1902 133.247H28.2185V121.664L27.5549 121.309C26.7854 120.897 25.8607 121.465 25.8607 122.345V133.425C25.8607 133.758 25.9524 134.078 26.1219 134.355L28.1973 133.254L28.1902 133.247Z"
    fill="#A1A1A1" stroke="black" stroke-width="0.124891" stroke-miterlimit="10" />
  <path
    d="M28.1057 133.162L25.8538 134.312C26.0091 134.575 26.4256 134.929 26.7079 135.078L54.3171 149.664C55.0725 150.069 55.9831 149.501 55.9831 148.628V148.025L28.0986 133.169L28.1057 133.162Z"
    fill="#EAEAEA" stroke="black" stroke-width="0.124891" stroke-miterlimit="10" />
  <path opacity="0.5"
    d="M268.991 264.523L194.305 222L111.527 264.66L124.155 271.237L60 304.564L115.058 333.213L179.23 299.894L190.488 305.753L268.991 264.523Z"
    fill="#494949" />
  <path d="M269.623 126.303L192.266 167.136L269.623 126.303Z" fill="white" />
  <path
    d="M192.253 167.505L191.455 167.91C190.975 167.15 190.311 166.512 189.471 166.064L97.1277 117.552C96.1253 119.17 95.5605 121.065 95.5605 123.038V243.252C95.5605 245.196 96.6406 246.978 98.3631 247.879L189.845 295.845C190.601 296.236 191.434 296.449 192.26 296.449V167.519L182.871 162.594L192.232 167.505H192.246H192.253Z"
    fill="white" />
  <path
    d="M181.657 79.4159L267.69 124.358L178.77 77.9112C175.727 76.3284 172.092 76.3284 169.056 77.9112C172.678 77.0098 178.353 77.6912 181.657 79.423V79.4159Z"
    fill="white" />
  <path
    d="M194.829 166.299L269.623 126.956C269.143 126.176 268.465 125.523 267.625 125.076L181.91 79.6221C178.614 77.876 172.973 77.1805 169.352 78.0961L112.764 108.098L101.476 114.088C99.8029 114.976 98.4404 116.282 97.4944 117.843L182.821 162.807L97.5015 117.829L189.379 166.27C190.198 166.703 190.869 167.342 191.349 168.109L192.125 167.704H192.154L194.829 166.306V166.292V166.299Z"
    fill="#EAEAEA" />
  <path
    d="M191.455 167.91C190.975 167.15 190.311 166.512 189.471 166.064L97.1277 117.552C96.1253 119.17 95.5605 121.065 95.5605 123.038V243.252C95.5605 245.196 96.6406 246.978 98.3631 247.879L189.845 295.845C190.601 296.236 191.434 296.449 192.26 296.449V171.09C192.26 168.896 191.046 166.881 189.104 165.866L182.871 162.601"
    stroke="black" stroke-width="0.40441" stroke-miterlimit="10" />
  <path
    d="M194.829 166.299L269.623 126.956C269.143 126.176 268.465 125.523 267.625 125.076L181.91 79.6221C178.614 77.876 172.973 77.1805 169.352 78.0961L112.764 108.098L101.476 114.088C99.8029 114.976 98.4404 116.282 97.4944 117.843L182.821 162.807L97.5015 117.829L189.379 166.27C190.198 166.703 190.869 167.342 191.349 168.109L192.125 167.704H192.154L194.829 166.306V166.292V166.299Z"
    stroke="black" stroke-width="0.40441" stroke-linejoin="round" />
  <path
    d="M269.821 126.303L191.293 167.597C191.815 168.421 192.098 169.393 192.098 170.401V296.448C192.931 296.448 193.75 296.25 194.505 295.845L269.193 256.623C269.398 256.503 269.596 256.375 269.779 256.205C270.118 255.878 270.365 255.474 270.492 255.012C270.556 254.792 270.584 254.544 270.584 254.302V129.05C270.584 128.056 270.294 127.112 269.8 126.296H269.814L269.821 126.303Z"
    stroke="black" stroke-width="0.40441" stroke-miterlimit="10" />
  <path
    d="M269.822 126.303L191.293 167.597C191.815 168.421 192.098 169.393 192.098 170.401V296.448C192.931 296.448 193.75 296.25 194.505 295.845L269.193 256.623C269.398 256.503 269.596 256.375 269.779 256.205C270.118 255.878 270.365 255.474 270.492 255.012C270.556 254.792 270.584 254.544 270.584 254.302V129.05C270.584 128.056 270.294 127.112 269.8 126.296H269.814L269.822 126.303Z"
    fill="#C6C6C6" stroke="black" stroke-width="0.40441" stroke-miterlimit="10" />
  <path d="M175.719 266.461V174.482L110.427 140.754V233.18L175.719 266.461Z" fill="black" />
  <path d="M194.039 216.394L108.684 171.338L194.039 216.394Z" fill="white" />
  <path d="M121.369 264.005L126.438 262.323L126.395 262.309L121.369 264.005H121.362H121.369Z" fill="white" />
  <path
    d="M161.312 182.659L152.445 178.081L149.367 168.613C149.212 168.137 148.873 167.747 148.442 167.513L127.9 156.753C126.947 156.249 124.511 156.973 124.052 157.952L122.4 162.296L99.6129 150.372C98.7022 149.896 96.895 149.79 96.1608 151.28L96.7891 159.883L123.071 211.703L162.039 203.328V183.873C162.039 183.355 161.756 182.886 161.298 182.652L161.312 182.666V182.659Z"
    fill="#646464" />
  <path
    d="M158.975 183.404L151.661 179.614L150.885 178.833L147.807 169.394C147.652 168.918 147.32 168.528 146.882 168.293L125.782 157.235C124.822 156.731 124.426 157.136 123.96 158.108L121.624 163.07L98.0243 150.67C97.1136 150.194 96.0194 150.854 96.0194 151.891L95.3629 176.165L122.301 212.491L160.493 203.796L159.716 184.632C159.716 184.114 159.434 183.646 158.975 183.411V183.404Z"
    fill="#F0F0F0" />
  <path
    d="M162.038 183.88C162.038 183.361 161.755 182.893 161.296 182.659L152.43 178.081L149.352 168.613C149.197 168.137 148.865 167.747 148.427 167.512L127.885 156.752C126.924 156.248 124.489 156.972 124.03 157.952L124.009 158.009C124.009 158.009 123.959 158.08 123.938 158.115L122.053 162.118L99.5906 150.364C98.7293 149.91 97.0704 149.818 96.2797 151.067C96.2374 151.124 96.195 151.188 96.1597 151.245C96.1597 151.252 96.1456 151.259 96.1456 151.266V151.28C96.0609 151.457 95.9973 151.663 95.9973 151.883L95.3408 176.157L122.279 212.483L160.471 203.789V203.661L162.024 203.327V183.873H162.031L162.038 183.88Z"
    stroke="black" stroke-width="0.59472" stroke-linecap="round" stroke-linejoin="round" />
  <path
    d="M146.395 187.933L137.528 183.355L134.45 173.886C134.295 173.411 133.963 173.02 133.526 172.786L112.983 162.026C112.023 161.522 109.594 162.246 109.136 163.226L107.484 167.569L84.696 155.645C83.7853 155.17 81.9781 155.063 81.244 156.554L81.8722 165.156L108.154 216.976L147.122 208.601V189.146C147.122 188.628 146.84 188.16 146.381 187.925L146.395 187.94V187.933Z"
    fill="#646464" />
  <path
    d="M144.158 188.848L136.068 184.596L135.616 183.958L132.997 175.142C132.842 174.667 132.51 174.276 132.072 174.035L110.972 162.977C110.019 162.473 109.525 162.416 109.059 163.403L106.722 168.364L83.1227 155.964C82.212 155.489 81.1178 156.149 81.1178 157.185L80.4613 181.459L107.4 217.785L145.591 209.09L144.906 190.09C144.906 189.572 144.624 189.103 144.165 188.869V188.855L144.158 188.848Z"
    fill="#F0F0F0" />
  <path
    d="M147.129 189.153C147.129 188.635 146.847 188.167 146.388 187.932L137.521 183.354L134.443 173.886C134.288 173.411 133.949 173.02 133.519 172.786L112.976 162.026C112.016 161.522 109.587 162.246 109.128 163.225L109.107 163.282C109.107 163.282 109.058 163.353 109.037 163.389L107.152 167.399L84.689 155.645C83.8277 155.191 82.1688 155.099 81.3781 156.348C81.3358 156.405 81.2934 156.468 81.2581 156.525C81.2581 156.532 81.244 156.539 81.244 156.547V156.561C81.1593 156.738 81.0957 156.944 81.0957 157.164L80.4392 181.438L107.378 217.764L145.569 209.069V208.942L147.122 208.608V189.153H147.129V189.153Z"
    stroke="black" stroke-width="0.59472" stroke-linecap="round" stroke-linejoin="round" />
  <path
    d="M141.27 190.842L132.404 186.264L129.326 176.796C129.171 176.32 128.839 175.93 128.401 175.696L107.858 164.936C106.898 164.432 104.47 165.156 104.011 166.135L102.359 170.479L79.5715 158.555C78.6609 158.079 76.8537 157.973 76.1195 159.463L76.7478 168.066L103.03 219.886L141.998 211.511V192.056C141.998 191.538 141.715 191.069 141.256 190.835L141.27 190.849V190.842Z"
    fill="#646464" />
  <path
    d="M138.856 191.701L129.961 187.045L126.883 177.577C126.728 177.101 126.396 176.711 125.958 176.477L104.858 165.418C103.898 164.914 104.399 165.319 103.94 166.291L101.603 171.253L78.0038 158.853C77.0931 158.377 75.9989 159.038 75.9989 160.074L75.3424 184.348L102.281 220.674L139.858 211.979L139.611 192.929C139.611 192.411 139.329 191.942 138.87 191.708H138.863L138.856 191.701Z"
    fill="#F0F0F0" />
  <path
    d="M142.011 192.056C142.011 191.538 141.729 191.069 141.27 190.835L132.403 186.257L129.325 176.789C129.17 176.313 128.838 175.923 128.401 175.689L107.858 164.929C106.898 164.425 104.469 165.149 104.01 166.128L103.989 166.185C103.989 166.185 103.94 166.256 103.919 166.291L102.034 170.294L79.5709 158.541C78.7097 158.086 77.0507 157.994 76.2601 159.243C76.2177 159.3 76.1754 159.364 76.1401 159.421C76.1401 159.428 76.1259 159.435 76.1259 159.442V159.456C76.0412 159.634 75.9777 159.84 75.9777 160.06L75.3212 184.334L102.26 220.66L140.451 211.965V211.837L142.004 211.504V192.049H142.011V192.056Z"
    stroke="black" stroke-width="0.59472" stroke-linecap="round" stroke-linejoin="round" />
  <path
    d="M136.074 193.469L127.207 188.891L124.129 179.422C123.974 178.947 123.642 178.556 123.204 178.322L102.662 167.562C101.702 167.058 99.2731 167.782 98.8143 168.762L97.1624 173.105L74.3748 161.181C73.4641 160.706 71.6569 160.599 70.9227 162.09L71.551 170.692L97.833 222.512L136.801 214.137V194.682C136.801 194.164 136.518 193.696 136.06 193.462L136.074 193.476V193.469Z"
    fill="#646464" />
  <path
    d="M134.521 194.547L126.431 190.296L125.57 189.706L122.492 180.238C122.337 179.763 122.005 179.372 121.567 179.138L100.467 168.08C99.5066 167.576 99.196 167.931 98.7371 168.917L96.4004 173.879L72.801 161.479C71.8903 161.003 70.7961 161.663 70.7961 162.7L70.1396 186.974L97.0781 223.3L135.269 214.605V195.775C135.269 195.257 134.987 194.788 134.528 194.554H134.521V194.547Z"
    fill="#F0F0F0" />
  <path
    d="M136.816 194.689C136.816 194.171 136.533 193.703 136.074 193.468L127.208 188.89L124.13 179.422C123.975 178.947 123.643 178.556 123.205 178.315L102.662 167.555C101.702 167.051 99.2739 167.775 98.8151 168.754L98.7939 168.811C98.7939 168.811 98.7445 168.882 98.7233 168.925L96.8384 172.928L74.3755 161.174C73.5143 160.72 71.8553 160.627 71.0647 161.877C71.0223 161.933 70.98 161.99 70.9447 162.054C70.9447 162.061 70.9306 162.068 70.9306 162.075V162.09C70.8458 162.267 70.7823 162.473 70.7823 162.693L70.1258 186.967L97.0643 223.293L135.256 214.598V214.47L136.809 214.137V194.682H136.816V194.689Z"
    stroke="black" stroke-width="0.59472" stroke-linecap="round" stroke-linejoin="round" />
  <path
    d="M133.173 196.265L124.307 191.687L121.229 182.219C121.074 181.743 120.742 181.353 120.304 181.119L99.7613 170.359C98.8012 169.855 96.3728 170.579 95.914 171.558L94.2621 175.902L71.4744 163.978C70.5638 163.502 68.7566 163.396 68.0224 164.886L68.6507 173.489L94.9327 225.309L133.9 216.933V197.479C133.9 196.961 133.618 196.492 133.159 196.258L133.173 196.272V196.265Z"
    fill="#646464" />
  <path
    d="M130.843 197.01L123.53 193.22L122.753 192.439L119.675 182.999C119.52 182.524 119.188 182.133 118.751 181.899L97.6503 170.841C96.6902 170.337 96.2949 170.742 95.8289 171.721L93.4923 176.682L69.8928 164.283C68.9822 163.807 67.888 164.467 67.888 165.503L67.2314 189.778L94.17 226.103L132.361 217.409L131.585 198.245C131.585 197.727 131.302 197.258 130.843 197.024V197.01Z"
    fill="#F0F0F0" />
  <path
    d="M133.914 197.486C133.914 196.968 133.632 196.499 133.173 196.265L124.307 191.687L121.229 182.219C121.073 181.743 120.742 181.353 120.304 181.119L99.7611 170.359C98.801 169.855 96.3726 170.579 95.9138 171.558L95.8926 171.615C95.8926 171.615 95.8432 171.686 95.822 171.722L93.9371 175.725L71.4742 163.971C70.613 163.517 68.954 163.424 68.1634 164.674C68.121 164.73 68.0787 164.794 68.0434 164.851C68.0434 164.858 68.0293 164.865 68.0293 164.872V164.886C67.9445 165.064 67.881 165.27 67.881 165.49L67.2245 189.764L94.163 226.09L132.354 217.395V217.267L133.907 216.934V197.479H133.914V197.486Z"
    stroke="black" stroke-width="0.59472" stroke-linecap="round" stroke-linejoin="round" />
  <path
    d="M125.394 203.306L116.527 198.728L113.45 189.26C113.294 188.784 112.962 188.394 112.525 188.16L91.982 177.4C91.0219 176.896 88.5935 177.62 88.1347 178.599L86.4828 182.943L63.6951 171.019C62.7845 170.543 60.9773 170.437 60.2431 171.927L60.8714 180.53L87.1534 232.35L126.121 223.975V204.52C126.121 204.002 125.839 203.533 125.38 203.299L125.394 203.313V203.306Z"
    fill="#646464" />
  <path
    d="M123.84 204.285L114.973 199.523L111.895 190.054C111.74 189.579 111.408 189.189 110.971 188.947L89.8701 177.889C88.91 177.385 88.5147 177.79 88.0487 178.769L85.7121 183.73L62.1126 171.324C61.202 170.848 60.1078 171.508 60.1078 172.544L59.4512 196.819L86.3898 233.144L124.581 224.45V205.513C124.581 204.995 124.299 204.527 123.84 204.292V204.285Z"
    fill="#F0F0F0" />
  <path
    d="M126.127 204.534C126.127 204.016 125.845 203.548 125.386 203.313L116.519 198.735L113.442 189.267C113.286 188.792 112.954 188.401 112.517 188.167L91.974 177.407C91.0139 176.903 88.5855 177.627 88.1267 178.606L88.1055 178.663C88.1055 178.663 88.0561 178.734 88.0349 178.77L86.15 182.78L63.6871 171.026C62.8259 170.572 61.1669 170.479 60.3763 171.729C60.3339 171.785 60.2916 171.849 60.2563 171.906C60.2563 171.913 60.2421 171.92 60.2421 171.927V171.942C60.1574 172.119 60.0939 172.325 60.0939 172.545L59.4374 196.819L86.3759 233.145L124.567 224.45V224.322L126.12 223.989V204.534H126.127V204.534Z"
    stroke="black" stroke-width="0.59472" stroke-linecap="round" stroke-linejoin="round" />
  <path d="M36.7776 171.381V264.218L101.978 298.195L102.691 206.848L36.7776 171.381Z" fill="white" stroke="black"
    stroke-width="0.59472" stroke-linecap="round" stroke-linejoin="round" />
  <path d="M36.7776 171.381L42.0298 168.485L108.084 203.909L102.684 206.855L36.7776 171.381Z" fill="#EAEAEA"
    stroke="black" stroke-width="0.59472" stroke-linecap="round" stroke-linejoin="round" />
  <path d="M108.092 203.909V294.717L101.978 298.202L102.691 206.855L108.092 203.909Z" fill="#EAEAEA" stroke="black"
    stroke-width="0.59472" stroke-linecap="round" stroke-linejoin="round" />
  <path d="M108.09 224.677L175.684 189.153V185.739L108.09 221.497V224.684V224.677Z" fill="#C7C7C7" />
  <path d="M108.09 287.705L175.684 252.188V189.153L108.09 224.677V287.705Z" fill="#6B6B6B" stroke="black"
    stroke-width="0.29736" stroke-linecap="round" stroke-linejoin="round" />
  <path
    d="M99.5991 174.851C98.8014 174.383 98.5966 174.539 98.5896 175.213C98.5896 175.952 98.6884 176.172 99.4014 176.754C99.8814 177.151 99.8885 177.194 99.8885 177.499C99.8885 177.804 99.825 177.818 99.4861 177.627C99.1826 177.456 98.9072 177.229 98.6461 176.981L98.5402 177.506C98.7872 177.783 99.1473 178.074 99.4791 178.273C100.369 178.791 100.552 178.564 100.552 177.889C100.552 177.215 100.524 177.03 99.7261 176.349C99.2673 175.952 99.2532 175.944 99.2532 175.625C99.2532 175.377 99.3167 175.348 99.6202 175.526C99.8814 175.682 100.1 175.831 100.432 176.086L100.503 175.483C100.178 175.213 99.8744 175.008 99.6132 174.859"
    fill="black" />
  <path
    d="M102.845 176.796L101.01 175.725L100.996 179.11L102.838 180.175V179.501L101.666 178.812V178.074L102.753 178.706V178.031L101.666 177.4V176.782L102.845 177.464V176.789V176.796Z"
    fill="black" />
  <path
    d="M105.747 178.478L105.126 178.116V180.451L104.159 177.556L103.347 177.094V180.473L103.968 180.835V178.613L104.928 181.388L105.74 181.864V178.478H105.747Z"
    fill="black" />
  <path
    d="M108.323 179.969L106.092 178.677V179.352L106.876 179.813V182.51L107.532 182.893V180.189L108.323 180.65V179.969Z"
    fill="black" />
  <path
    d="M110.498 181.239L108.655 180.167V183.553L110.49 184.618V183.943L109.319 183.255V182.517L110.406 183.149V182.474L109.319 181.843V181.225L110.498 181.906V181.232V181.239Z"
    fill="black" />
  <path
    d="M113.399 182.929L112.778 182.56V184.895L111.811 182.006L110.999 181.538V184.916L111.62 185.278V183.057L112.573 185.832L113.385 186.307V182.929H113.399Z"
    fill="black" />
  <path
    d="M114.98 183.787C114.239 183.354 113.914 183.589 113.907 184.199V185.611C113.907 186.229 114.225 186.839 114.966 187.272C115.263 187.443 115.517 187.556 115.813 187.656L115.721 186.939C115.467 186.846 115.178 186.704 114.966 186.577C114.641 186.392 114.557 186.172 114.557 185.874V184.71C114.557 184.412 114.648 184.284 114.966 184.476C115.178 184.604 115.467 184.795 115.721 185.001L115.813 184.391C115.517 184.149 115.263 183.958 114.966 183.787"
    fill="black" />
  <path
    d="M118.108 185.661L116.265 184.589V187.968L118.101 189.04V188.358L116.915 187.677V186.939L118.002 187.563V186.889L116.922 186.257V185.64L118.101 186.328V185.654L118.108 185.661Z"
    fill="black" />
  <path
    d="M90.8174 182.084C90.0197 181.615 89.815 181.772 89.8079 182.446C89.8079 183.184 89.9067 183.404 90.6197 183.986C91.0998 184.384 91.1068 184.426 91.1068 184.731C91.1068 185.036 91.0433 185.051 90.7044 184.859C90.4009 184.689 90.1256 184.462 89.8644 184.213L89.7585 184.738C90.0056 185.015 90.3656 185.306 90.6974 185.505C91.5869 186.023 91.7704 185.796 91.7704 185.122C91.7704 184.447 91.7422 184.263 90.9445 183.581C90.4856 183.184 90.4715 183.177 90.4715 182.857C90.4715 182.609 90.535 182.581 90.8386 182.758C91.0998 182.914 91.3186 183.063 91.6504 183.319L91.721 182.716C91.3963 182.446 91.0927 182.24 90.8315 182.091"
    fill="black" />
  <path
    d="M94.0649 184.021L92.2295 182.95L92.2154 186.335L94.0579 187.4V186.726L92.886 186.037V185.299L93.9732 185.931V185.256L92.886 184.625V184.007L94.0649 184.689V184.014V184.021Z"
    fill="black" />
  <path
    d="M96.9663 185.704L96.3451 185.342V187.677L95.378 184.781L94.5662 184.32V187.698L95.1874 188.06V185.839L96.1475 188.614L96.9593 189.089V185.704H96.9663Z"
    fill="black" />
  <path
    d="M99.543 187.201L97.3122 185.91V186.584L98.0958 187.045V189.742L98.7523 190.126V187.421L99.543 187.883V187.201Z"
    fill="black" />
  <path
    d="M101.717 188.465L99.8745 187.393V190.779L101.71 191.843V191.169L100.538 190.481V189.742L101.625 190.374V189.7L100.538 189.068V188.451L101.717 189.132V188.458V188.465Z"
    fill="black" />
  <path
    d="M104.618 190.154L103.996 189.785V192.12L103.029 189.231L102.217 188.763V192.141L102.839 192.503V190.282L103.792 193.057L104.603 193.532V190.154H104.618Z"
    fill="black" />
  <path
    d="M106.2 191.02C105.458 190.587 105.134 190.821 105.127 191.431V192.844C105.127 193.461 105.444 194.072 106.185 194.505C106.482 194.675 106.736 194.789 107.033 194.888L106.941 194.171C106.687 194.079 106.397 193.937 106.185 193.809C105.861 193.625 105.776 193.405 105.776 193.106V191.942C105.776 191.644 105.868 191.517 106.185 191.708C106.397 191.836 106.687 192.028 106.941 192.233L107.033 191.623C106.736 191.382 106.482 191.19 106.185 191.02"
    fill="black" />
  <path
    d="M109.328 192.887L107.485 191.815V195.193L109.321 196.265V195.584L108.135 194.902V194.164L109.222 194.789V194.115L108.142 193.483V192.865L109.321 193.554V192.88L109.328 192.887Z"
    fill="black" />
  <path
    d="M133.618 165.028L132.912 164.617L132.368 166.959L131.825 163.992L130.949 163.481L130.385 165.795L129.855 162.835L129.142 162.423L129.919 166.583L130.836 167.115L131.387 164.609L131.917 167.74L132.834 168.272L133.625 165.021L133.618 165.028Z"
    fill="black" />
  <path
    d="M135.086 168.911C134.726 168.698 134.563 168.435 134.563 168.144V166.746C134.563 166.455 134.726 166.37 135.086 166.583C135.446 166.796 135.608 167.058 135.608 167.349V168.748C135.608 169.039 135.446 169.124 135.086 168.911ZM135.093 165.845C134.189 165.319 133.85 165.696 133.85 166.256V167.796C133.85 168.357 134.182 169.124 135.079 169.649C135.975 170.174 136.321 169.798 136.321 169.237V167.697C136.321 167.136 135.996 166.37 135.093 165.845Z"
    fill="black" />
  <path
    d="M137.606 169.187V168.094L138.184 168.421C138.481 168.591 138.573 168.755 138.566 169.038V169.329C138.566 169.613 138.488 169.698 138.177 169.514L137.606 169.187ZM138.22 167.711L136.893 166.938V170.635L137.598 171.061V169.911L138.029 170.153L138.728 171.707L139.582 172.197L138.813 170.486C139.13 170.515 139.279 170.288 139.279 169.826V169.372C139.279 168.684 138.989 168.151 138.213 167.704"
    fill="black" />
  <path
    d="M140.698 172.112V169.89L141.135 170.139C141.495 170.351 141.58 170.564 141.58 170.848V172.168C141.58 172.459 141.488 172.566 141.128 172.353L140.69 172.105M141.22 169.443L139.984 168.726V172.431L141.213 173.148C142.003 173.609 142.293 173.311 142.293 172.814V171.04C142.293 170.536 142.003 169.904 141.22 169.45"
    fill="black" />
  <path
    d="M242.578 183.816C242.578 183.816 248.656 188.635 252.744 189.416L271.338 172.176C271.338 172.176 262.133 171.65 259.57 166.114L242.578 183.816Z"
    fill="black" />
  <path
    d="M235.421 176.704C235.421 176.704 237.757 192.013 247.69 189.032L267.562 172.878C267.562 172.878 258.258 172.026 258.258 163.736L235.421 176.704Z"
    fill="white" />
  <path opacity="0.2" d="M36.7776 264.218L102.691 206.848L102.218 225.727L48.4821 270.315L36.7776 264.218Z"
    fill="white" />
  <path opacity="0.2" d="M101.977 235.473L54.3259 273.367L58.5262 275.553L101.977 242.045V235.473Z" fill="white" />
  <path d="M216.735 230.753L218.373 257.142L235.075 248.923L233.762 222.974L216.735 230.753Z" fill="white" />
  <path d="M242.578 169.074L244.59 174.39L253.365 169.074L252.306 164.396L242.578 169.074Z" fill="white" />
  <path d="M218.308 231.853L219.417 249.533L233.366 243.003L231.954 225.919L218.308 231.853Z" fill="black" />
  <path
    d="M225.057 230.483C226.652 230.483 227.944 229.183 227.944 227.58C227.944 225.977 226.652 224.677 225.057 224.677C223.462 224.677 222.17 225.977 222.17 227.58C222.17 229.183 223.462 230.483 225.057 230.483Z"
    fill="black" />
  <path
    d="M224.351 230.483C225.945 230.483 227.238 229.183 227.238 227.58C227.238 225.977 225.945 224.677 224.351 224.677C222.756 224.677 221.464 225.977 221.464 227.58C221.464 229.183 222.756 230.483 224.351 230.483Z"
    fill="white" stroke="black" stroke-width="0.29736" stroke-linecap="round" stroke-linejoin="round" />
  <path
    d="M58.3715 231.294C59.168 230.757 59.2557 229.485 58.5672 228.453C57.8788 227.421 56.675 227.02 55.8785 227.557C55.0819 228.094 54.9943 229.366 55.6827 230.398C56.3712 231.43 57.575 231.832 58.3715 231.294Z"
    fill="black" />
  <path
    d="M66.7915 235.54C67.5881 235.002 67.6757 233.73 66.9873 232.698C66.2988 231.666 65.095 231.265 64.2985 231.802C63.502 232.339 63.4143 233.611 64.1028 234.643C64.7912 235.675 65.995 236.077 66.7915 235.54Z"
    fill="black" />
  <path
    d="M75.213 239.777C76.0095 239.24 76.0971 237.968 75.4087 236.936C74.7203 235.904 73.5165 235.503 72.72 236.04C71.9234 236.577 71.8358 237.849 72.5242 238.881C73.2127 239.913 74.4164 240.314 75.213 239.777Z"
    fill="black" />
  <path
    d="M58.3729 240.215C59.1694 239.678 59.2571 238.406 58.5686 237.374C57.8802 236.342 56.6764 235.941 55.8799 236.478C55.0833 237.015 54.9957 238.287 55.6841 239.319C56.3726 240.351 57.5764 240.752 58.3729 240.215Z"
    fill="black" />
  <path
    d="M66.7976 244.466C67.5941 243.929 67.6817 242.657 66.9933 241.625C66.3049 240.593 65.1011 240.192 64.3046 240.729C63.508 241.266 63.4204 242.538 64.1088 243.57C64.7973 244.602 66.001 245.003 66.7976 244.466Z"
    fill="black" />
  <path
    d="M75.2111 248.705C76.0077 248.167 76.0953 246.895 75.4069 245.863C74.7185 244.831 73.5147 244.43 72.7181 244.967C71.9216 245.505 71.834 246.777 72.5224 247.809C73.2108 248.841 74.4146 249.242 75.2111 248.705Z"
    fill="black" />
  <path
    d="M58.3706 249.143C59.1671 248.605 59.2547 247.333 58.5663 246.301C57.8779 245.269 56.6741 244.868 55.8776 245.405C55.081 245.942 54.9934 247.215 55.6818 248.247C56.3702 249.279 57.574 249.68 58.3706 249.143Z"
    fill="black" />
  <path
    d="M66.7915 253.388C67.5881 252.851 67.6757 251.578 66.9873 250.546C66.2988 249.514 65.095 249.113 64.2985 249.65C63.502 250.188 63.4143 251.46 64.1028 252.492C64.7912 253.524 65.995 253.925 66.7915 253.388Z"
    fill="black" />
  <path
    d="M75.2167 257.639C76.0132 257.102 76.1009 255.83 75.4124 254.798C74.724 253.766 73.5202 253.365 72.7237 253.902C71.9271 254.439 71.8395 255.711 72.5279 256.743C73.2164 257.775 74.4202 258.176 75.2167 257.639Z"
    fill="black" />
  <path
    d="M57.6653 231.292C58.4618 230.755 58.5495 229.483 57.861 228.451C57.1726 227.419 55.9688 227.018 55.1723 227.555C54.3758 228.092 54.2881 229.364 54.9766 230.396C55.665 231.428 56.8688 231.829 57.6653 231.292Z"
    fill="#F0F0F0" />
  <path
    d="M66.0854 235.537C66.8819 235 66.9695 233.728 66.2811 232.696C65.5927 231.664 64.3889 231.263 63.5923 231.8C62.7958 232.337 62.7082 233.609 63.3966 234.641C64.085 235.673 65.2888 236.074 66.0854 235.537Z"
    fill="#F0F0F0" />
  <path
    d="M74.5073 239.782C75.3038 239.245 75.3915 237.973 74.703 236.941C74.0146 235.909 72.8108 235.508 72.0143 236.045C71.2177 236.582 71.1301 237.854 71.8185 238.886C72.507 239.918 73.7108 240.319 74.5073 239.782Z"
    fill="#F0F0F0" />
  <path
    d="M57.6667 240.213C58.4632 239.676 58.5508 238.404 57.8624 237.372C57.174 236.34 55.9702 235.939 55.1736 236.476C54.3771 237.013 54.2895 238.285 54.9779 239.317C55.6663 240.349 56.8701 240.75 57.6667 240.213Z"
    fill="#F0F0F0" />
  <path
    d="M66.0904 244.464C66.887 243.927 66.9746 242.655 66.2862 241.623C65.5977 240.591 64.3939 240.19 63.5974 240.727C62.8009 241.264 62.7132 242.536 63.4017 243.568C64.0901 244.6 65.2939 245.001 66.0904 244.464Z"
    fill="#F0F0F0" />
  <path
    d="M74.5045 248.709C75.301 248.172 75.3886 246.9 74.7002 245.868C74.0118 244.836 72.808 244.435 72.0115 244.972C71.2149 245.509 71.1273 246.781 71.8157 247.813C72.5042 248.845 73.708 249.247 74.5045 248.709Z"
    fill="#F0F0F0" />
  <path
    d="M57.6639 249.148C58.4604 248.611 58.5481 247.339 57.8596 246.307C57.1712 245.275 55.9674 244.874 55.1709 245.411C54.3744 245.948 54.2867 247.22 54.9751 248.252C55.6636 249.284 56.8674 249.685 57.6639 249.148Z"
    fill="#F0F0F0" />
  <path
    d="M66.0854 253.385C66.8819 252.848 66.9695 251.576 66.2811 250.544C65.5927 249.512 64.3889 249.111 63.5923 249.648C62.7958 250.185 62.7082 251.457 63.3966 252.489C64.085 253.521 65.2888 253.922 66.0854 253.385Z"
    fill="#F0F0F0" />
  <path
    d="M74.5105 257.637C75.307 257.1 75.3946 255.828 74.7062 254.796C74.0178 253.764 72.814 253.362 72.0174 253.899C71.2209 254.437 71.1333 255.709 71.8217 256.741C72.5101 257.773 73.7139 258.174 74.5105 257.637Z"
    fill="#F0F0F0" />
  <path
    d="M51.1855 201.013V211.816C51.1855 212.611 51.6161 213.342 52.3079 213.711L79.6559 228.339C80.4113 228.744 81.3219 228.176 81.3219 227.303V216.096C81.3219 215.663 81.089 215.266 80.7148 215.06L52.8444 199.977C52.0961 199.565 51.1855 200.126 51.1855 200.999V201.013Z"
    fill="black" />
  <path
    d="M53.5224 211.93H53.5506V200.347L52.8871 199.992C52.1176 199.58 51.1928 200.148 51.1928 201.028V212.107C51.1928 212.441 51.2846 212.76 51.454 213.037L53.5295 211.937L53.5224 211.93Z"
    fill="#A1A1A1" stroke="black" stroke-width="0.124891" stroke-miterlimit="10" />
  <path
    d="M53.4374 211.844L51.1854 212.994C51.3407 213.257 51.7572 213.612 52.0396 213.761L79.6488 228.346C80.4042 228.751 81.3148 228.183 81.3148 227.31V226.707L53.4303 211.851L53.4374 211.844Z"
    fill="#EAEAEA" stroke="black" stroke-width="0.124891" stroke-miterlimit="10" />
  <path
    d="M70.1967 213.931L69.7307 214.499L69.2719 213.399L68.9401 213.456L69.3636 214.492L68.573 214.038V214.499L69.3566 214.953L68.933 215.464L69.2719 215.911L69.7307 215.358L70.1825 216.444L70.5284 216.387L70.1119 215.393L70.8955 215.848V215.386L70.0908 214.918L70.5355 214.386L70.1967 213.931Z"
    fill="#F0F0F0" />
  <path
    d="M63.8961 210.823L63.4302 211.391L62.9713 210.291L62.6395 210.347L63.0631 211.384L62.2725 210.929V211.391L63.0561 211.845L62.6325 212.356L62.9713 212.803L63.4302 212.249L63.882 213.335L64.2279 213.279L63.8114 212.285L64.595 212.739V212.278L63.7902 211.809L64.235 211.277L63.8961 210.823Z"
    fill="#F0F0F0" />
  <path
    d="M57.5955 207.546L57.1295 208.114L56.6707 207.014L56.3389 207.07L56.7625 208.107L55.9718 207.652V208.114L56.7554 208.568L56.3318 209.079L56.6707 209.526L57.1295 208.973L57.5813 210.059L57.9272 210.002L57.5107 209.008L58.2943 209.462V209.001L57.4896 208.533L57.9343 208L57.5955 207.546Z"
    fill="#F0F0F0" />
  <path
    d="M75.7803 216.791L75.3214 217.359L74.8555 216.252L74.5237 216.316L74.9543 217.352L74.1566 216.891V217.352L74.9402 217.806L74.5166 218.324L74.8555 218.772L75.3144 218.218L75.7662 219.304L76.1121 219.254L75.6956 218.246L76.4791 218.701V218.239L75.6814 217.771L76.1191 217.239L75.7803 216.791Z"
    fill="#F0F0F0" />
  <path d="M365.373 176.854L288.016 217.687L365.373 176.854Z" fill="white" />
  <path
    d="M288.003 218.056L287.205 218.461C286.725 217.702 286.061 217.063 285.221 216.616L192.878 168.103C191.875 169.721 191.311 171.616 191.311 173.59V293.803C191.311 295.748 192.391 297.529 194.113 298.431L285.595 346.397C286.351 346.787 287.184 347 288.01 347V218.071L278.621 213.145L287.982 218.056H287.996H288.003Z"
    fill="white" />
  <path
    d="M277.407 129.967L363.44 174.91L274.52 128.462C271.477 126.88 267.842 126.88 264.806 128.462C268.428 127.561 274.103 128.242 277.407 129.974V129.967Z"
    fill="white" />
  <path
    d="M290.579 216.85L365.373 177.507C364.893 176.726 364.215 176.073 363.375 175.626L277.66 130.173C274.364 128.427 268.723 127.731 265.102 128.647L208.514 158.649L197.226 164.639C195.553 165.526 194.19 166.832 193.245 168.394L278.571 213.358L193.252 168.38L285.129 216.821C285.948 217.254 286.619 217.893 287.099 218.66L287.875 218.255H287.904L290.579 216.857V216.843V216.85Z"
    fill="#EAEAEA" />
  <path
    d="M287.205 218.461C286.725 217.702 286.061 217.063 285.221 216.616L192.878 168.103C191.875 169.721 191.311 171.616 191.311 173.59V293.803C191.311 295.748 192.391 297.529 194.113 298.431L285.595 346.397C286.351 346.787 287.184 347 288.01 347V221.641C288.01 219.448 286.796 217.432 284.854 216.417L278.621 213.152"
    stroke="black" stroke-width="0.40441" stroke-miterlimit="10" />
  <path
    d="M290.579 216.85L365.373 177.507C364.893 176.726 364.215 176.073 363.375 175.626L277.66 130.173C274.364 128.427 268.723 127.731 265.102 128.647L208.514 158.649L197.226 164.639C195.553 165.526 194.19 166.832 193.245 168.394L278.571 213.358L193.252 168.38L285.129 216.821C285.948 217.254 286.619 217.893 287.099 218.66L287.875 218.255H287.904L290.579 216.857V216.843V216.85Z"
    stroke="black" stroke-width="0.40441" stroke-linejoin="round" />
  <path
    d="M365.571 176.854L287.043 218.149C287.565 218.972 287.848 219.944 287.848 220.952V347C288.681 347 289.5 346.801 290.255 346.396L364.943 307.175C365.148 307.054 365.346 306.926 365.529 306.756C365.868 306.429 366.115 306.025 366.242 305.564C366.306 305.343 366.334 305.095 366.334 304.854V179.601C366.334 178.607 366.044 177.663 365.55 176.847H365.564L365.571 176.854Z"
    stroke="black" stroke-width="0.40441" stroke-miterlimit="10" />
  <path
    d="M365.572 176.854L287.043 218.149C287.565 218.972 287.848 219.944 287.848 220.952V347C288.681 347 289.5 346.801 290.255 346.396L364.943 307.175C365.148 307.054 365.346 306.926 365.529 306.756C365.868 306.429 366.115 306.025 366.242 305.564C366.306 305.343 366.334 305.095 366.334 304.854V179.601C366.334 178.607 366.044 177.663 365.55 176.847H365.564L365.572 176.854Z"
    fill="#C6C6C6" stroke="black" stroke-width="0.40441" stroke-miterlimit="10" />
  <path d="M289.788 266.945L204.434 221.889L289.788 266.945Z" fill="white" />
  <path
    d="M285.871 143.013L264.968 145.107C262.533 145.348 260.74 146.626 260.493 148.251L260.224 150.096L229.128 153.219C227.66 153.368 226.728 154.291 227.045 155.285L237.606 188.026C237.924 189.013 239.378 189.701 240.854 189.552L318.111 181.787C319.587 181.638 320.526 180.716 320.201 179.722L309.64 146.98C309.322 145.994 307.868 145.305 306.386 145.454L293.446 146.753L292.041 145.071C290.806 143.595 288.307 142.75 285.885 142.992"
    fill="#F0F0F0" />
  <path
    d="M285.871 143.013L264.968 145.107C262.533 145.348 260.74 146.626 260.493 148.251L260.224 150.096L229.128 153.219C227.66 153.368 226.728 154.291 227.045 155.285L237.606 188.026C237.924 189.013 239.378 189.701 240.854 189.552L318.111 181.787C319.587 181.638 320.526 180.716 320.201 179.722L309.64 146.98C309.322 145.994 307.868 145.305 306.386 145.454L293.446 146.753L292.041 145.071C290.806 143.595 288.307 142.75 285.885 142.992"
    fill="#BABABA" />
  <path
    d="M286.577 140.664L265.674 142.758C263.239 142.999 261.446 144.276 261.199 145.902L260.931 147.747L229.834 150.87C228.366 151.019 227.434 151.942 227.752 152.936L238.312 185.677C238.63 186.664 240.084 187.352 241.56 187.203L318.817 179.438C320.293 179.289 321.232 178.367 320.907 177.373L310.346 144.631C310.029 143.645 308.574 142.956 307.092 143.105L294.152 144.404L292.747 142.722C291.512 141.246 289.013 140.401 286.591 140.642"
    fill="white" />
  <path
    d="M286.577 140.664L265.674 142.758C263.239 142.999 261.446 144.276 261.199 145.902L260.931 147.747L229.834 150.87C228.366 151.019 227.434 151.942 227.752 152.936L238.312 185.677C238.63 186.664 240.084 187.352 241.56 187.203L318.817 179.438C320.293 179.289 321.232 178.367 320.907 177.373L310.346 144.631C310.029 143.645 308.574 142.956 307.092 143.105L294.152 144.404L292.747 142.722C291.512 141.246 289.013 140.401 286.591 140.642"
    stroke="black" stroke-width="0.59472" />
  <path
    d="M274.858 144.539L273.884 144.638L273.721 146.37L272.394 144.801L271.194 144.936L271.003 146.661L269.683 145.099L268.709 145.199L270.594 147.385L271.85 147.25L271.985 145.419L273.333 147.094L274.589 146.952L274.858 144.539Z"
    fill="black" />
  <path
    d="M277.541 146.192C277.046 146.249 276.792 146.157 276.729 145.979L276.425 145.106C276.362 144.922 276.538 144.794 277.032 144.737C277.526 144.681 277.781 144.773 277.844 144.95L278.148 145.823C278.211 146.001 278.035 146.136 277.541 146.192ZM276.87 144.276C275.635 144.411 275.303 144.815 275.423 145.163L275.762 146.128C275.882 146.476 276.468 146.789 277.703 146.654C278.938 146.519 279.277 146.114 279.157 145.767L278.818 144.801C278.698 144.453 278.112 144.148 276.877 144.283"
    fill="black" />
  <path
    d="M280.732 145.078L280.499 144.404L281.282 144.319C281.685 144.276 281.833 144.333 281.896 144.503L281.96 144.688C282.023 144.865 281.946 144.95 281.522 145L280.739 145.085M281.176 143.857L279.355 144.056L280.16 146.363L281.148 146.256L280.901 145.539L281.48 145.476L282.694 146.086L283.866 145.958L282.532 145.284C282.934 145.135 283.068 144.922 282.969 144.638L282.871 144.354C282.722 143.921 282.249 143.744 281.183 143.857"
    fill="black" />
  <path
    d="M285.207 145.327L284.727 143.942L285.32 143.879C285.814 143.822 285.969 143.914 286.033 144.092L286.322 144.915C286.386 145.099 286.301 145.206 285.807 145.263L285.214 145.327M285.284 143.403L283.583 143.588L284.388 145.894L286.089 145.71C287.169 145.589 287.473 145.263 287.36 144.95L286.972 143.843C286.866 143.531 286.364 143.289 285.284 143.403Z"
    fill="black" />
  <path
    d="M250.969 157.563L238.643 164.732L243.02 175.279L259.715 178.643V178.622L272.027 171.453L267.657 160.927L250.969 157.563Z"
    fill="white" />
  <path
    d="M253.22 162.112L252.521 162.205L251.314 165.008L252.239 164.887L253.136 162.794L255.592 164.447L256.517 164.327L253.22 162.112Z"
    fill="black" />
  <path
    d="M250.278 167.414L249.48 167.513L250.222 169.295L245.979 167.975L245.301 168.067L246.346 170.573L247.144 170.473L246.402 168.685L250.645 170.012L251.323 169.92L250.278 167.414Z"
    fill="black" />
  <path
    d="M256.475 173.738C256.398 173.745 256.341 173.738 256.292 173.745L256.144 173.696L256.031 173.632L255.967 173.54L255.551 172.532L255.537 172.439L255.586 172.347L255.685 172.269L255.854 172.234L258.381 171.9C258.452 171.893 258.509 171.9 258.558 171.893L258.713 171.936L258.819 172.007L258.883 172.099L259.299 173.107L259.313 173.206L259.271 173.291L259.172 173.376L259.01 173.412L256.483 173.745M258.177 171.41L255.65 171.744C255.473 171.765 255.304 171.808 255.169 171.872C255.042 171.943 254.937 172.021 254.866 172.092C254.795 172.17 254.725 172.262 254.711 172.361C254.696 172.447 254.711 172.546 254.746 172.638L255.162 173.646C255.205 173.745 255.261 173.816 255.346 173.909C255.452 173.98 255.572 174.065 255.699 174.107C255.833 174.178 255.981 174.207 256.144 174.235C256.32 174.264 256.497 174.256 256.673 174.235L259.2 173.902C259.37 173.88 259.546 173.838 259.673 173.774C259.807 173.71 259.906 173.632 259.977 173.554C260.055 173.476 260.118 173.383 260.132 173.284C260.146 173.199 260.132 173.1 260.097 173.007L259.68 171.999C259.645 171.907 259.582 171.829 259.497 171.744C259.391 171.673 259.278 171.588 259.144 171.538C259.017 171.474 258.869 171.446 258.699 171.41C258.53 171.382 258.346 171.389 258.177 171.41Z"
    fill="black" />
  <path
    d="M264.53 165.64L263.725 165.746L264.467 167.528L260.224 166.207L259.574 166.293L260.619 168.798L261.424 168.699L260.683 166.91L264.925 168.237L265.575 168.152L264.53 165.64Z"
    fill="black" />
  <path
    d="M258.558 175.832L246.296 173.362L243.084 165.626L252.134 160.359L264.397 162.829L267.609 170.566L258.565 175.832M251.732 159.38L241.531 165.314L245.153 174.044L258.975 176.826V176.812L269.162 170.878L265.54 162.162L251.725 159.38"
    fill="black" />
  <path
    d="M253.581 168.11L254.654 167.968L256.328 166.669L257.634 166.499L255.558 168.124L258.699 169.011L257.401 169.182H257.379L254.873 168.479L253.8 168.621L254.21 169.6L253.412 169.707L252.367 167.194L253.165 167.088L253.588 168.117M254.238 165.42L251.089 167.244L252.205 169.927L256.469 170.786L259.617 168.955L258.502 166.272L254.245 165.42"
    fill="black" />
  <path
    d="M257.633 166.499L256.327 166.669L254.654 167.968L253.581 168.11L253.151 167.081L252.353 167.187L253.398 169.7L254.196 169.593L253.793 168.614L254.866 168.472L257.372 169.174H257.4L258.699 169.004L255.558 168.117L257.633 166.499Z"
    fill="white" />
  <path d="M365.373 49.5845L288.016 90.4174L365.373 49.5845Z" fill="white" />
  <path
    d="M288.003 90.7864L287.205 91.191C286.725 90.4316 286.061 89.7928 285.221 89.3456L192.878 40.833C191.875 42.4513 191.311 44.3464 191.311 46.3195V166.533C191.311 168.478 192.391 170.259 194.113 171.161L285.595 219.127C286.351 219.517 287.184 219.73 288.01 219.73V90.8006L278.621 85.8749L287.982 90.7864H287.996H288.003Z"
    fill="white" />
  <path
    d="M277.407 2.69716L363.44 47.6396L274.52 1.19246C271.477 -0.390324 267.842 -0.390324 264.806 1.19246C268.428 0.291053 274.103 0.972429 277.407 2.70426V2.69716Z"
    fill="white" />
  <path
    d="M290.579 89.5801L365.373 50.2377C364.893 49.457 364.215 48.804 363.375 48.3568L277.66 2.90331C274.364 1.15728 268.723 0.461708 265.102 1.37731L208.514 31.3792L197.226 37.3696C195.553 38.2568 194.19 39.5628 193.245 41.1243L278.571 86.0881L193.252 41.1101L285.129 89.5517C285.948 89.9847 286.619 90.6235 287.099 91.39L287.875 90.9854H287.904L290.579 89.5872V89.573V89.5801Z"
    fill="#EAEAEA" />
  <path
    d="M287.205 91.191C286.725 90.4316 286.061 89.7928 285.221 89.3456L192.878 40.833C191.875 42.4513 191.311 44.3464 191.311 46.3195V166.533C191.311 168.478 192.391 170.259 194.113 171.161L285.595 219.127C286.351 219.517 287.184 219.73 288.01 219.73V94.3708C288.01 92.1776 286.796 90.1618 284.854 89.1469L278.621 85.8819"
    stroke="black" stroke-width="0.40441" stroke-miterlimit="10" />
  <path
    d="M290.579 89.5801L365.373 50.2377C364.893 49.457 364.215 48.804 363.375 48.3568L277.66 2.90331C274.364 1.15728 268.723 0.461708 265.102 1.37731L208.514 31.3792L197.226 37.3696C195.553 38.2568 194.19 39.5628 193.245 41.1243L278.571 86.088L193.252 41.1101L285.129 89.5517C285.948 89.9847 286.619 90.6235 287.099 91.39L287.875 90.9854H287.904L290.579 89.5872V89.573V89.5801Z"
    stroke="black" stroke-width="0.40441" stroke-linejoin="round" />
  <path
    d="M365.571 49.5842L287.043 90.8785C287.565 91.7018 287.848 92.6742 287.848 93.6821V219.73C288.681 219.73 289.5 219.531 290.255 219.126L364.943 179.905C365.148 179.784 365.346 179.656 365.529 179.486C365.868 179.159 366.115 178.755 366.242 178.293C366.306 178.073 366.334 177.825 366.334 177.584V52.331C366.334 51.3374 366.044 50.3934 365.55 49.5771H365.564L365.571 49.5842Z"
    stroke="black" stroke-width="0.40441" stroke-miterlimit="10" />
  <path
    d="M365.572 49.5842L287.043 90.8785C287.565 91.7018 287.848 92.6742 287.848 93.6821V219.73C288.681 219.73 289.5 219.531 290.255 219.126L364.943 179.905C365.148 179.784 365.346 179.656 365.529 179.486C365.868 179.159 366.115 178.755 366.242 178.293C366.306 178.073 366.334 177.825 366.334 177.584V52.331C366.334 51.3374 366.044 50.3934 365.55 49.5771H365.564L365.572 49.5842Z"
    fill="#C6C6C6" stroke="black" stroke-width="0.40441" stroke-miterlimit="10" />
  <path d="M289.788 139.675L204.434 94.6191L289.788 139.675Z" fill="white" />
  <path d="M217.12 187.286L222.188 185.604L222.146 185.59L217.12 187.286H217.113H217.12Z" fill="white" />
  <path
    d="M285.871 15.7428L264.968 17.8366C262.533 18.078 260.74 19.3555 260.493 20.9809L260.224 22.8263L229.128 25.9493C227.66 26.0983 226.728 27.021 227.045 28.0147L237.606 60.7563C237.924 61.7429 239.378 62.4313 240.854 62.2823L318.111 54.5174C319.587 54.3684 320.526 53.4457 320.201 52.452L309.64 19.7104C309.322 18.7238 307.868 18.0354 306.386 18.1844L293.446 19.4833L292.041 17.8011C290.806 16.3248 288.307 15.4802 285.885 15.7215"
    fill="#F0F0F0" />
  <path
    d="M285.871 15.7428L264.968 17.8366C262.533 18.078 260.74 19.3555 260.493 20.9809L260.224 22.8263L229.128 25.9493C227.66 26.0983 226.728 27.021 227.045 28.0147L237.606 60.7563C237.924 61.7429 239.378 62.4313 240.854 62.2823L318.111 54.5174C319.587 54.3684 320.526 53.4457 320.201 52.452L309.64 19.7104C309.322 18.7238 307.868 18.0354 306.386 18.1844L293.446 19.4833L292.041 17.8011C290.806 16.3248 288.307 15.4802 285.885 15.7215"
    fill="#BABABA" />
  <path
    d="M286.577 13.3932L265.674 15.487C263.239 15.7283 261.446 17.0059 261.199 18.6313L260.931 20.4767L229.834 23.5997C228.366 23.7487 227.434 24.6714 227.752 25.6651L238.312 58.4067C238.63 59.3932 240.084 60.0817 241.56 59.9327L318.817 52.1678C320.293 52.0188 321.232 51.0961 320.907 50.1024L310.346 17.3608C310.029 16.3742 308.574 15.6858 307.092 15.8348L294.152 17.1337L292.747 15.4515C291.512 13.9752 289.013 13.1306 286.591 13.3719"
    fill="white" />
  <path
    d="M286.577 13.3932L265.674 15.487C263.239 15.7283 261.446 17.0059 261.199 18.6313L260.931 20.4767L229.834 23.5997C228.366 23.7487 227.434 24.6714 227.752 25.6651L238.312 58.4067C238.63 59.3932 240.084 60.0817 241.56 59.9327L318.817 52.1678C320.293 52.0188 321.232 51.0961 320.907 50.1024L310.346 17.3608C310.029 16.3742 308.574 15.6858 307.092 15.8348L294.152 17.1337L292.747 15.4515C291.512 13.9752 289.013 13.1306 286.591 13.3719"
    stroke="black" stroke-width="0.59472" />
  <path
    d="M338.329 107.097C338.329 107.097 344.407 111.916 348.494 112.697L367.088 95.4569C367.088 95.4569 357.883 94.9317 355.321 89.3955L338.329 107.097Z"
    fill="black" />
  <path
    d="M331.171 99.985C331.171 99.985 333.507 115.295 343.44 112.314L363.312 96.1594C363.312 96.1594 354.008 95.3077 354.008 87.0176L331.171 99.985Z"
    fill="white" />
  <path d="M312.485 154.034L314.123 180.423L330.825 172.204L329.512 146.255L312.485 154.034Z" fill="white" />
  <path d="M338.329 92.3551L340.341 97.6713L349.115 92.3551L348.056 87.6777L338.329 92.3551Z" fill="white" />
  <path d="M314.059 155.134L315.167 172.814L329.116 166.284L327.705 149.2L314.059 155.134Z" fill="black" />
  <path
    d="M320.807 153.764C322.402 153.764 323.695 152.465 323.695 150.861C323.695 149.258 322.402 147.958 320.807 147.958C319.213 147.958 317.92 149.258 317.92 150.861C317.92 152.465 319.213 153.764 320.807 153.764Z"
    fill="black" />
  <path
    d="M320.101 153.764C321.695 153.764 322.988 152.465 322.988 150.861C322.988 149.258 321.695 147.958 320.101 147.958C318.506 147.958 317.214 149.258 317.214 150.861C317.214 152.465 318.506 153.764 320.101 153.764Z"
    fill="white" stroke="black" stroke-width="0.29736" stroke-linecap="round" stroke-linejoin="round" />
  <path
    d="M250.969 30.293L238.643 37.4616L243.02 48.0088L259.715 51.3731V51.3518L272.027 44.1831L267.657 33.6573L250.969 30.293Z"
    fill="white" />
  <path
    d="M253.22 34.8423L252.521 34.9346L251.314 37.7381L252.239 37.6175L253.136 35.5237L255.592 37.1774L256.517 37.0568L253.22 34.8423Z"
    fill="black" />
  <path
    d="M250.278 40.1445L249.48 40.2439L250.222 42.0254L245.979 40.7052L245.301 40.7975L246.346 43.303L247.144 43.2036L246.402 41.415L250.645 42.7423L251.323 42.65L250.278 40.1445Z"
    fill="black" />
  <path
    d="M256.475 46.4683C256.398 46.4754 256.341 46.4683 256.292 46.4754L256.144 46.4258L256.031 46.3619L255.967 46.2696L255.551 45.2617L255.537 45.1695L255.586 45.0772L255.685 44.9991L255.854 44.9636L258.381 44.63C258.452 44.623 258.509 44.63 258.558 44.6229L258.713 44.6655L258.819 44.7365L258.883 44.8288L259.299 45.8367L259.313 45.936L259.271 46.0212L259.172 46.1064L259.01 46.1419L256.483 46.4754M258.177 44.1403L255.65 44.4739C255.473 44.4952 255.304 44.5378 255.169 44.6017C255.042 44.6726 254.937 44.7507 254.866 44.8217C254.795 44.8998 254.725 44.992 254.711 45.0914C254.696 45.1766 254.711 45.2759 254.746 45.3682L255.162 46.3761C255.205 46.4754 255.261 46.5464 255.346 46.6387C255.452 46.7097 255.572 46.7948 255.699 46.8374C255.833 46.9084 255.981 46.9368 256.144 46.9652C256.32 46.9936 256.497 46.9865 256.673 46.9652L259.2 46.6316C259.37 46.6103 259.546 46.5677 259.673 46.5038C259.807 46.44 259.906 46.3619 259.977 46.2838C260.055 46.2057 260.118 46.1135 260.132 46.0141C260.146 45.9289 260.132 45.8296 260.097 45.7373L259.68 44.7294C259.645 44.6371 259.582 44.5591 259.497 44.4739C259.391 44.4029 259.278 44.3177 259.144 44.2681C259.017 44.2042 258.869 44.1758 258.699 44.1403C258.53 44.1119 258.346 44.119 258.177 44.1403Z"
    fill="black" />
  <path
    d="M264.53 38.3701L263.725 38.4766L264.467 40.2581L260.224 38.9379L259.574 39.0231L260.619 41.5286L261.424 41.4292L260.683 39.6406L264.925 40.9679L265.575 40.8827L264.53 38.3701Z"
    fill="black" />
  <path
    d="M258.558 48.5623L246.296 46.0923L243.084 38.3558L252.134 33.0893L264.397 35.5593L267.609 43.2958L258.565 48.5623M251.732 32.1099L241.531 38.0435L245.153 46.7737L258.975 49.5559V49.5418L269.162 43.6081L265.54 34.8922L251.725 32.1099"
    fill="black" />
  <path
    d="M253.581 40.8399L254.654 40.698L256.328 39.3991L257.634 39.2287L255.558 40.8541L258.699 41.7413L257.401 41.9117H257.379L254.873 41.209L253.8 41.351L254.21 42.3304L253.412 42.4369L252.367 39.9243L253.165 39.8179L253.588 40.847M254.238 38.1499L251.089 39.974L252.205 42.6569L256.469 43.5157L259.617 41.6845L258.502 39.0016L254.245 38.1499"
    fill="black" />
  <path
    d="M257.633 39.2285L256.327 39.3989L254.654 40.6977L253.581 40.8397L253.151 39.8105L252.353 39.917L253.398 42.4296L254.196 42.3231L253.793 41.3436L254.866 41.2017L257.372 41.9043H257.4L258.699 41.734L255.558 40.8468L257.633 39.2285Z"
    fill="white" />
  <path d="M365.373 49.5845L288.017 90.4174L365.373 49.5845Z" fill="white" />
  <path
    d="M288.003 90.7864L287.205 91.191C286.725 90.4316 286.062 89.7928 285.221 89.3456L192.878 40.833C191.875 42.4513 191.311 44.3464 191.311 46.3195V166.533C191.311 168.478 192.391 170.259 194.113 171.161L285.596 219.127C286.351 219.517 287.184 219.73 288.01 219.73V90.8006L278.621 85.8749L287.982 90.7864H287.996H288.003Z"
    fill="white" />
  <path
    d="M277.407 2.69716L363.44 47.6396L274.52 1.19246C271.477 -0.390324 267.842 -0.390324 264.806 1.19246C268.428 0.291053 274.103 0.972429 277.407 2.70426V2.69716Z"
    fill="white" />
  <path
    d="M290.579 89.5801L365.373 50.2377C364.893 49.457 364.215 48.804 363.375 48.3568L277.66 2.90331C274.364 1.15728 268.723 0.461708 265.102 1.37731L208.514 31.3792L197.226 37.3696C195.553 38.2568 194.19 39.5628 193.245 41.1243L278.571 86.0881L193.252 41.1101L285.129 89.5517C285.948 89.9847 286.619 90.6235 287.099 91.39L287.875 90.9854H287.904L290.579 89.5872V89.573V89.5801Z"
    fill="#EAEAEA" />
  <path
    d="M287.205 91.191C286.725 90.4316 286.062 89.7928 285.221 89.3456L192.878 40.833C191.875 42.4513 191.311 44.3464 191.311 46.3195V166.533C191.311 168.478 192.391 170.259 194.113 171.161L285.596 219.127C286.351 219.517 287.184 219.73 288.01 219.73V94.3708C288.01 92.1776 286.796 90.1618 284.854 89.1469L278.621 85.8819"
    stroke="black" stroke-width="0.40441" stroke-miterlimit="10" />
  <path
    d="M290.579 89.5801L365.373 50.2377C364.893 49.457 364.215 48.804 363.375 48.3568L277.66 2.90331C274.364 1.15728 268.723 0.461708 265.102 1.37731L208.514 31.3792L197.226 37.3696C195.553 38.2568 194.19 39.5628 193.245 41.1243L278.571 86.088L193.252 41.1101L285.129 89.5517C285.948 89.9847 286.619 90.6235 287.099 91.39L287.875 90.9854H287.904L290.579 89.5872V89.573V89.5801Z"
    stroke="black" stroke-width="0.40441" stroke-linejoin="round" />
  <path
    d="M365.572 49.5842L287.043 90.8785C287.566 91.7018 287.848 92.6742 287.848 93.6821V219.73C288.681 219.73 289.5 219.531 290.255 219.126L364.943 179.905C365.148 179.784 365.346 179.656 365.529 179.486C365.868 179.159 366.115 178.755 366.242 178.293C366.306 178.073 366.334 177.825 366.334 177.584V52.331C366.334 51.3374 366.045 50.3934 365.55 49.5771H365.565L365.572 49.5842Z"
    stroke="black" stroke-width="0.40441" stroke-miterlimit="10" />
  <path
    d="M365.572 49.5842L287.043 90.8785C287.566 91.7018 287.848 92.6742 287.848 93.6821V219.73C288.681 219.73 289.5 219.531 290.255 219.126L364.943 179.905C365.148 179.784 365.346 179.656 365.529 179.486C365.868 179.159 366.115 178.755 366.242 178.293C366.306 178.073 366.334 177.825 366.334 177.584V52.331C366.334 51.3374 366.045 50.3934 365.55 49.5771H365.565L365.572 49.5842Z"
    fill="#C6C6C6" stroke="black" stroke-width="0.40441" stroke-miterlimit="10" />
  <path d="M289.789 139.675L204.434 94.6191L289.789 139.675Z" fill="white" />
  <path d="M217.12 187.286L222.188 185.604L222.146 185.59L217.12 187.286H217.113H217.12Z" fill="white" />
  <path
    d="M285.871 15.7428L264.968 17.8366C262.533 18.078 260.74 19.3555 260.493 20.9809L260.224 22.8263L229.128 25.9493C227.66 26.0983 226.728 27.021 227.045 28.0147L237.606 60.7563C237.924 61.7429 239.378 62.4313 240.854 62.2823L318.111 54.5174C319.587 54.3684 320.526 53.4457 320.201 52.452L309.64 19.7104C309.322 18.7238 307.868 18.0354 306.386 18.1844L293.446 19.4833L292.041 17.8011C290.806 16.3248 288.307 15.4802 285.885 15.7215"
    fill="#F0F0F0" />
  <path
    d="M285.871 15.7428L264.968 17.8366C262.533 18.078 260.74 19.3555 260.493 20.9809L260.224 22.8263L229.128 25.9493C227.66 26.0983 226.728 27.021 227.045 28.0147L237.606 60.7563C237.924 61.7429 239.378 62.4313 240.854 62.2823L318.111 54.5174C319.587 54.3684 320.526 53.4457 320.201 52.452L309.64 19.7104C309.322 18.7238 307.868 18.0354 306.386 18.1844L293.446 19.4833L292.041 17.8011C290.806 16.3248 288.307 15.4802 285.885 15.7215"
    fill="#BABABA" />
  <path
    d="M286.576 13.3932L265.674 15.487C263.238 15.7283 261.445 17.0059 261.198 18.6313L260.93 20.4767L229.833 23.5997C228.365 23.7487 227.433 24.6714 227.751 25.6651L238.312 58.4067C238.629 59.3932 240.083 60.0817 241.559 59.9327L318.817 52.1678C320.292 52.0188 321.231 51.0961 320.906 50.1024L310.345 17.3608C310.028 16.3742 308.573 15.6858 307.091 15.8348L294.151 17.1337L292.746 15.4515C291.511 13.9752 289.012 13.1306 286.591 13.3719"
    fill="white" />
  <path
    d="M286.576 13.3932L265.674 15.487C263.238 15.7283 261.445 17.0059 261.198 18.6313L260.93 20.4767L229.833 23.5997C228.365 23.7487 227.433 24.6714 227.751 25.6651L238.312 58.4067C238.629 59.3932 240.083 60.0817 241.559 59.9327L318.817 52.1678C320.292 52.0188 321.231 51.0961 320.906 50.1024L310.345 17.3608C310.028 16.3742 308.573 15.6858 307.091 15.8348L294.151 17.1337L292.746 15.4515C291.511 13.9752 289.012 13.1306 286.591 13.3719"
    stroke="black" stroke-width="0.59472" />
  <path
    d="M318.322 144.531C318.322 144.531 326.743 151.173 332.406 152.249L358.168 128.488C358.168 128.488 345.414 127.764 341.864 120.134L318.322 144.531Z"
    fill="black" />
  <path
    d="M308.211 134.583C308.211 134.583 311.497 155.856 325.465 151.714L353.41 129.268C353.41 129.268 340.326 128.084 340.326 116.565L308.211 134.583Z"
    fill="white" />
  <path d="M318.322 124.157L321.095 131.433L333.19 124.157L331.73 117.755L318.322 124.157Z" fill="white" />
  <path
    d="M274.858 17.2686L273.884 17.3679L273.721 19.0998L272.394 17.5312L271.194 17.666L271.003 19.3908L269.683 17.8293L268.709 17.9286L270.594 20.1147L271.851 19.9799L271.985 18.1487L273.333 19.8237L274.59 19.6818L274.858 17.2686Z"
    fill="black" />
  <path
    d="M277.541 18.9223C277.046 18.9791 276.792 18.8869 276.729 18.7094L276.425 17.8364C276.362 17.6519 276.538 17.5241 277.032 17.4673C277.527 17.4105 277.781 17.5028 277.844 17.6802L278.148 18.5533C278.211 18.7307 278.035 18.8656 277.541 18.9223ZM276.87 17.006C275.635 17.1408 275.303 17.5454 275.423 17.8932L275.762 18.8585C275.882 19.2062 276.468 19.5185 277.703 19.3837C278.938 19.2488 279.277 18.8443 279.157 18.4965L278.818 17.5312C278.698 17.1834 278.112 16.8782 276.877 17.0131"
    fill="black" />
  <path
    d="M280.732 17.808L280.499 17.1337L281.282 17.0486C281.685 17.006 281.833 17.0628 281.896 17.2331L281.96 17.4176C282.024 17.5951 281.946 17.6803 281.522 17.7299L280.739 17.8151M281.176 16.5872L279.355 16.786L280.16 19.0927L281.148 18.9862L280.901 18.2694L281.48 18.2055L282.694 18.8159L283.866 18.6881L282.532 18.0138C282.934 17.8648 283.068 17.6519 282.969 17.368L282.871 17.0841C282.722 16.6511 282.249 16.4737 281.183 16.5872"
    fill="black" />
  <path
    d="M285.207 18.0565L284.727 16.6725L285.32 16.6086C285.814 16.5518 285.969 16.6441 286.033 16.8215L286.322 17.6448C286.386 17.8294 286.301 17.9358 285.807 17.9926L285.214 18.0565M285.284 16.133L283.583 16.3176L284.388 18.6243L286.089 18.4398C287.169 18.3191 287.473 17.9926 287.36 17.6803L286.972 16.5731C286.866 16.2608 286.365 16.0195 285.284 16.133Z"
    fill="black" />
  <path
    d="M250.969 30.293L238.643 37.4616L243.02 48.0088L259.715 51.3731V51.3518L272.027 44.1831L267.657 33.6573L250.969 30.293Z"
    fill="white" />
  <path
    d="M253.22 34.8423L252.521 34.9346L251.314 37.7381L252.239 37.6175L253.136 35.5237L255.592 37.1774L256.517 37.0568L253.22 34.8423Z"
    fill="black" />
  <path
    d="M250.278 40.1445L249.48 40.2439L250.222 42.0254L245.979 40.7052L245.301 40.7975L246.346 43.303L247.144 43.2036L246.402 41.415L250.645 42.7423L251.323 42.65L250.278 40.1445Z"
    fill="black" />
  <path
    d="M256.475 46.4683C256.398 46.4754 256.341 46.4683 256.292 46.4754L256.144 46.4258L256.031 46.3619L255.967 46.2696L255.551 45.2617L255.537 45.1695L255.586 45.0772L255.685 44.9991L255.854 44.9636L258.381 44.63C258.452 44.623 258.509 44.63 258.558 44.6229L258.713 44.6655L258.819 44.7365L258.883 44.8288L259.299 45.8367L259.313 45.936L259.271 46.0212L259.172 46.1064L259.01 46.1419L256.483 46.4754M258.177 44.1403L255.65 44.4739C255.473 44.4952 255.304 44.5378 255.169 44.6017C255.042 44.6726 254.937 44.7507 254.866 44.8217C254.795 44.8998 254.725 44.992 254.711 45.0914C254.696 45.1766 254.711 45.2759 254.746 45.3682L255.162 46.3761C255.205 46.4754 255.261 46.5464 255.346 46.6387C255.452 46.7097 255.572 46.7948 255.699 46.8374C255.833 46.9084 255.981 46.9368 256.144 46.9652C256.32 46.9936 256.497 46.9865 256.673 46.9652L259.2 46.6316C259.37 46.6103 259.546 46.5677 259.673 46.5038C259.807 46.44 259.906 46.3619 259.977 46.2838C260.055 46.2057 260.118 46.1135 260.132 46.0141C260.146 45.9289 260.132 45.8296 260.097 45.7373L259.68 44.7294C259.645 44.6371 259.582 44.5591 259.497 44.4739C259.391 44.4029 259.278 44.3177 259.144 44.2681C259.017 44.2042 258.869 44.1758 258.699 44.1403C258.53 44.1119 258.346 44.119 258.177 44.1403Z"
    fill="black" />
  <path
    d="M264.53 38.3701L263.725 38.4766L264.467 40.2581L260.224 38.9379L259.574 39.0231L260.619 41.5286L261.424 41.4292L260.683 39.6406L264.925 40.9679L265.575 40.8827L264.53 38.3701Z"
    fill="black" />
  <path
    d="M258.558 48.5623L246.296 46.0923L243.084 38.3558L252.134 33.0893L264.397 35.5593L267.609 43.2958L258.565 48.5623M251.732 32.1099L241.531 38.0435L245.153 46.7737L258.975 49.5559V49.5418L269.162 43.6081L265.54 34.8922L251.725 32.1099"
    fill="black" />
  <path
    d="M253.581 40.8399L254.654 40.698L256.328 39.3991L257.634 39.2287L255.558 40.8541L258.699 41.7413L257.401 41.9117H257.379L254.873 41.209L253.8 41.351L254.21 42.3304L253.412 42.4369L252.367 39.9243L253.165 39.8179L253.588 40.847M254.238 38.1499L251.089 39.974L252.205 42.6569L256.469 43.5157L259.617 41.6845L258.502 39.0016L254.245 38.1499"
    fill="black" />
  <path
    d="M257.633 39.2285L256.327 39.3989L254.654 40.6977L253.581 40.8397L253.151 39.8105L252.353 39.917L253.398 42.4296L254.196 42.3231L253.793 41.3436L254.866 41.2017L257.372 41.9043H257.4L258.699 41.734L255.558 40.8468L257.633 39.2285Z"
    fill="white" />
  <path d="M201.756 65.936V158.774L266.957 192.75L267.67 101.403L201.756 65.936Z" fill="white" stroke="black"
    stroke-width="0.59472" stroke-linecap="round" stroke-linejoin="round" />
  <path d="M201.756 65.9364L207.008 63.0405L273.063 98.465L267.662 101.411L201.756 65.9364Z" fill="#EAEAEA"
    stroke="black" stroke-width="0.59472" stroke-linecap="round" stroke-linejoin="round" />
  <path d="M273.071 98.4648V189.273L266.958 192.757L267.671 101.41L273.071 98.4648Z" fill="#EAEAEA" stroke="black"
    stroke-width="0.59472" stroke-linecap="round" stroke-linejoin="round" />
  <path opacity="0.2" d="M201.756 158.774L267.67 101.403L267.197 120.283L213.461 164.871L201.756 158.774Z"
    fill="white" />
  <path opacity="0.2" d="M266.957 130.028L219.306 167.923L223.507 170.109L266.957 136.601V130.028Z" fill="white" />
  <path
    d="M223.351 125.85C224.148 125.312 224.235 124.04 223.547 123.008C222.858 121.976 221.655 121.575 220.858 122.112C220.061 122.65 219.974 123.922 220.662 124.954C221.351 125.986 222.555 126.387 223.351 125.85Z"
    fill="black" />
  <path
    d="M231.771 130.095C232.568 129.558 232.655 128.286 231.967 127.254C231.278 126.222 230.075 125.821 229.278 126.358C228.482 126.895 228.394 128.167 229.082 129.199C229.771 130.231 230.975 130.632 231.771 130.095Z"
    fill="black" />
  <path
    d="M240.192 134.333C240.989 133.796 241.076 132.524 240.388 131.492C239.699 130.46 238.496 130.059 237.699 130.596C236.903 131.133 236.815 132.405 237.503 133.437C238.192 134.469 239.396 134.87 240.192 134.333Z"
    fill="black" />
  <path
    d="M223.352 134.771C224.148 134.234 224.236 132.962 223.548 131.93C222.859 130.898 221.655 130.497 220.859 131.034C220.062 131.571 219.975 132.843 220.663 133.875C221.352 134.907 222.555 135.308 223.352 134.771Z"
    fill="black" />
  <path
    d="M231.777 139.022C232.573 138.485 232.661 137.213 231.972 136.181C231.284 135.149 230.08 134.748 229.284 135.285C228.487 135.822 228.399 137.094 229.088 138.126C229.776 139.158 230.98 139.559 231.777 139.022Z"
    fill="black" />
  <path
    d="M240.19 143.26C240.987 142.723 241.074 141.451 240.386 140.419C239.697 139.387 238.494 138.986 237.697 139.523C236.901 140.06 236.813 141.332 237.501 142.364C238.19 143.396 239.394 143.797 240.19 143.26Z"
    fill="black" />
  <path
    d="M223.35 143.698C224.146 143.161 224.234 141.889 223.545 140.857C222.857 139.825 221.653 139.424 220.857 139.961C220.06 140.498 219.972 141.77 220.661 142.802C221.349 143.834 222.553 144.235 223.35 143.698Z"
    fill="black" />
  <path
    d="M231.771 147.943C232.568 147.406 232.655 146.134 231.967 145.102C231.278 144.07 230.075 143.669 229.278 144.206C228.482 144.743 228.394 146.015 229.082 147.047C229.771 148.079 230.975 148.48 231.771 147.943Z"
    fill="black" />
  <path
    d="M240.196 152.194C240.992 151.657 241.08 150.385 240.392 149.353C239.703 148.321 238.499 147.92 237.703 148.457C236.906 148.994 236.819 150.266 237.507 151.298C238.195 152.33 239.399 152.731 240.196 152.194Z"
    fill="black" />
  <path
    d="M222.644 125.848C223.441 125.31 223.529 124.038 222.84 123.006C222.152 121.974 220.948 121.573 220.151 122.11C219.355 122.648 219.267 123.92 219.956 124.952C220.644 125.984 221.848 126.385 222.644 125.848Z"
    fill="#F0F0F0" />
  <path
    d="M231.064 130.093C231.861 129.556 231.949 128.284 231.26 127.252C230.572 126.22 229.368 125.818 228.571 126.356C227.775 126.893 227.687 128.165 228.376 129.197C229.064 130.229 230.268 130.63 231.064 130.093Z"
    fill="#F0F0F0" />
  <path
    d="M239.486 134.338C240.283 133.801 240.37 132.529 239.682 131.497C238.994 130.465 237.79 130.064 236.993 130.601C236.197 131.138 236.109 132.41 236.798 133.442C237.486 134.474 238.69 134.875 239.486 134.338Z"
    fill="#F0F0F0" />
  <path
    d="M222.646 134.769C223.442 134.232 223.53 132.96 222.841 131.928C222.153 130.896 220.949 130.495 220.153 131.032C219.356 131.569 219.269 132.841 219.957 133.873C220.645 134.905 221.849 135.306 222.646 134.769Z"
    fill="#F0F0F0" />
  <path
    d="M231.069 139.02C231.866 138.483 231.954 137.211 231.265 136.179C230.577 135.147 229.373 134.746 228.576 135.283C227.78 135.82 227.692 137.092 228.381 138.124C229.069 139.156 230.273 139.557 231.069 139.02Z"
    fill="#F0F0F0" />
  <path
    d="M239.484 143.265C240.281 142.728 240.368 141.456 239.68 140.424C238.991 139.392 237.787 138.991 236.991 139.528C236.194 140.065 236.107 141.337 236.795 142.369C237.484 143.401 238.687 143.802 239.484 143.265Z"
    fill="#F0F0F0" />
  <path
    d="M222.643 143.703C223.44 143.166 223.528 141.894 222.839 140.862C222.151 139.83 220.947 139.429 220.15 139.966C219.354 140.503 219.266 141.775 219.955 142.807C220.643 143.839 221.847 144.24 222.643 143.703Z"
    fill="#F0F0F0" />
  <path
    d="M231.064 147.941C231.861 147.404 231.949 146.132 231.26 145.1C230.572 144.068 229.368 143.667 228.571 144.204C227.775 144.741 227.687 146.013 228.376 147.045C229.064 148.077 230.268 148.479 231.064 147.941Z"
    fill="#F0F0F0" />
  <path
    d="M239.49 152.192C240.286 151.655 240.374 150.383 239.685 149.351C238.997 148.319 237.793 147.918 236.997 148.455C236.2 148.992 236.112 150.264 236.801 151.296C237.489 152.328 238.693 152.729 239.49 152.192Z"
    fill="#F0F0F0" />
  <path
    d="M216.164 95.569V106.372C216.164 107.167 216.595 107.898 217.287 108.267L244.634 122.895C245.39 123.3 246.301 122.732 246.301 121.859V110.652C246.301 110.219 246.068 109.821 245.693 109.615L217.823 94.5328C217.075 94.1211 216.164 94.6818 216.164 95.5549V95.569Z"
    fill="black" />
  <path
    d="M218.501 106.486H218.529V94.9023L217.866 94.5474C217.096 94.1357 216.171 94.7035 216.171 95.5836V106.663C216.171 106.997 216.263 107.316 216.433 107.593L218.508 106.493L218.501 106.486Z"
    fill="#A1A1A1" stroke="black" stroke-width="0.124891" stroke-miterlimit="10" />
  <path
    d="M218.416 106.4L216.164 107.55C216.319 107.812 216.736 108.167 217.018 108.316L244.627 122.902C245.383 123.307 246.293 122.739 246.293 121.866V121.262L218.409 106.407L218.416 106.4Z"
    fill="#EAEAEA" stroke="black" stroke-width="0.124891" stroke-miterlimit="10" />
  <path d="M201.757 193.207V286.044L266.957 320.021L267.67 228.674L201.757 193.207Z" fill="white" stroke="black"
    stroke-width="0.59472" stroke-linecap="round" stroke-linejoin="round" />
  <path d="M201.757 65.936V158.774L266.957 192.75L267.67 101.403L201.757 65.936Z" fill="white" stroke="black"
    stroke-width="0.59472" stroke-linecap="round" stroke-linejoin="round" />
  <path d="M201.757 193.206L207.009 190.311L273.063 225.735L267.663 228.681L201.757 193.206Z" fill="#EAEAEA"
    stroke="black" stroke-width="0.59472" stroke-linecap="round" stroke-linejoin="round" />
  <path d="M201.757 65.9364L207.009 63.0405L273.063 98.465L267.663 101.411L201.757 65.9364Z" fill="#EAEAEA"
    stroke="black" stroke-width="0.59472" stroke-linecap="round" stroke-linejoin="round" />
  <path d="M273.071 225.735V316.543L266.958 320.027L267.671 228.68L273.071 225.735Z" fill="#EAEAEA" stroke="black"
    stroke-width="0.59472" stroke-linecap="round" stroke-linejoin="round" />
  <path d="M273.071 98.4648V189.273L266.958 192.757L267.671 101.41L273.071 98.4648Z" fill="#EAEAEA" stroke="black"
    stroke-width="0.59472" stroke-linecap="round" stroke-linejoin="round" />
  <path opacity="0.2" d="M201.757 286.044L267.67 228.673L267.197 247.553L213.461 292.141L201.757 286.044Z"
    fill="white" />
  <path opacity="0.2" d="M201.757 158.774L267.67 101.403L267.197 120.283L213.461 164.871L201.757 158.774Z"
    fill="white" />
  <path opacity="0.2" d="M266.957 257.299L219.306 295.193L223.506 297.379L266.957 263.871V257.299Z" fill="white" />
  <path opacity="0.2" d="M266.957 130.028L219.306 167.923L223.506 170.109L266.957 136.601V130.028Z" fill="white" />
  <path
    d="M223.351 253.12C224.147 252.583 224.235 251.311 223.547 250.279C222.858 249.247 221.654 248.846 220.858 249.383C220.061 249.92 219.974 251.192 220.662 252.224C221.351 253.256 222.554 253.657 223.351 253.12Z"
    fill="black" />
  <path
    d="M231.771 257.365C232.567 256.828 232.655 255.556 231.967 254.524C231.278 253.492 230.074 253.091 229.278 253.628C228.481 254.165 228.394 255.437 229.082 256.469C229.771 257.501 230.974 257.902 231.771 257.365Z"
    fill="black" />
  <path
    d="M240.192 261.603C240.988 261.066 241.076 259.794 240.388 258.762C239.699 257.73 238.495 257.329 237.699 257.866C236.902 258.403 236.815 259.675 237.503 260.707C238.192 261.739 239.395 262.14 240.192 261.603Z"
    fill="black" />
  <path
    d="M223.352 262.041C224.148 261.504 224.236 260.232 223.548 259.2C222.859 258.168 221.655 257.767 220.859 258.304C220.062 258.841 219.975 260.113 220.663 261.145C221.351 262.177 222.555 262.579 223.352 262.041Z"
    fill="black" />
  <path
    d="M231.776 266.292C232.573 265.755 232.661 264.483 231.972 263.451C231.284 262.419 230.08 262.018 229.283 262.555C228.487 263.092 228.399 264.364 229.088 265.396C229.776 266.428 230.98 266.83 231.776 266.292Z"
    fill="black" />
  <path
    d="M240.19 270.53C240.987 269.993 241.074 268.721 240.386 267.689C239.697 266.657 238.494 266.256 237.697 266.793C236.9 267.33 236.813 268.602 237.501 269.634C238.19 270.666 239.393 271.067 240.19 270.53Z"
    fill="black" />
  <path
    d="M223.349 270.968C224.146 270.431 224.234 269.159 223.545 268.127C222.857 267.095 221.653 266.694 220.856 267.231C220.06 267.768 219.972 269.04 220.661 270.072C221.349 271.104 222.553 271.505 223.349 270.968Z"
    fill="black" />
  <path
    d="M231.771 275.214C232.567 274.677 232.655 273.405 231.967 272.373C231.278 271.341 230.074 270.94 229.278 271.477C228.481 272.014 228.394 273.286 229.082 274.318C229.771 275.35 230.974 275.751 231.771 275.214Z"
    fill="black" />
  <path
    d="M240.196 279.465C240.992 278.928 241.08 277.656 240.391 276.624C239.703 275.592 238.499 275.19 237.703 275.728C236.906 276.265 236.818 277.537 237.507 278.569C238.195 279.601 239.399 280.002 240.196 279.465Z"
    fill="black" />
  <path
    d="M222.644 253.118C223.441 252.581 223.528 251.309 222.84 250.277C222.152 249.245 220.948 248.844 220.151 249.381C219.355 249.918 219.267 251.19 219.955 252.222C220.644 253.254 221.848 253.655 222.644 253.118Z"
    fill="#F0F0F0" />
  <path
    d="M231.064 257.363C231.861 256.826 231.948 255.554 231.26 254.522C230.572 253.49 229.368 253.089 228.571 253.626C227.775 254.163 227.687 255.435 228.376 256.467C229.064 257.499 230.268 257.9 231.064 257.363Z"
    fill="#F0F0F0" />
  <path
    d="M239.486 261.608C240.283 261.071 240.37 259.799 239.682 258.767C238.993 257.735 237.79 257.334 236.993 257.871C236.197 258.408 236.109 259.68 236.797 260.712C237.486 261.744 238.69 262.145 239.486 261.608Z"
    fill="#F0F0F0" />
  <path
    d="M222.646 262.039C223.442 261.502 223.53 260.23 222.841 259.198C222.153 258.166 220.949 257.765 220.153 258.302C219.356 258.839 219.268 260.111 219.957 261.143C220.645 262.175 221.849 262.576 222.646 262.039Z"
    fill="#F0F0F0" />
  <path
    d="M231.069 266.29C231.866 265.753 231.953 264.481 231.265 263.449C230.577 262.417 229.373 262.016 228.576 262.553C227.78 263.09 227.692 264.362 228.381 265.394C229.069 266.426 230.273 266.828 231.069 266.29Z"
    fill="#F0F0F0" />
  <path
    d="M239.484 270.535C240.28 269.998 240.368 268.726 239.68 267.694C238.991 266.662 237.787 266.261 236.991 266.798C236.194 267.335 236.107 268.607 236.795 269.639C237.484 270.671 238.687 271.072 239.484 270.535Z"
    fill="#F0F0F0" />
  <path
    d="M222.643 270.974C223.44 270.436 223.527 269.164 222.839 268.132C222.151 267.1 220.947 266.699 220.15 267.236C219.354 267.774 219.266 269.046 219.955 270.078C220.643 271.11 221.847 271.511 222.643 270.974Z"
    fill="#F0F0F0" />
  <path
    d="M231.064 275.211C231.861 274.674 231.948 273.402 231.26 272.37C230.572 271.338 229.368 270.937 228.571 271.474C227.775 272.011 227.687 273.283 228.376 274.315C229.064 275.347 230.268 275.749 231.064 275.211Z"
    fill="#F0F0F0" />
  <path
    d="M239.489 279.462C240.286 278.925 240.374 277.653 239.685 276.621C238.997 275.589 237.793 275.188 236.996 275.725C236.2 276.262 236.112 277.534 236.801 278.566C237.489 279.598 238.693 279.999 239.489 279.462Z"
    fill="#F0F0F0" />
  <path
    d="M223.351 125.85C224.147 125.312 224.235 124.04 223.547 123.008C222.858 121.976 221.654 121.575 220.858 122.112C220.061 122.65 219.974 123.922 220.662 124.954C221.351 125.986 222.554 126.387 223.351 125.85Z"
    fill="black" />
  <path
    d="M231.771 130.095C232.567 129.558 232.655 128.286 231.967 127.254C231.278 126.222 230.074 125.821 229.278 126.358C228.481 126.895 228.394 128.167 229.082 129.199C229.771 130.231 230.974 130.632 231.771 130.095Z"
    fill="black" />
  <path
    d="M240.192 134.333C240.989 133.796 241.076 132.524 240.388 131.492C239.699 130.46 238.495 130.059 237.699 130.596C236.902 131.133 236.815 132.405 237.503 133.437C238.192 134.469 239.395 134.87 240.192 134.333Z"
    fill="black" />
  <path
    d="M223.352 134.771C224.148 134.234 224.236 132.962 223.548 131.93C222.859 130.898 221.655 130.497 220.859 131.034C220.062 131.571 219.975 132.843 220.663 133.875C221.351 134.907 222.555 135.308 223.352 134.771Z"
    fill="black" />
  <path
    d="M231.776 139.022C232.573 138.485 232.661 137.213 231.972 136.181C231.284 135.149 230.08 134.748 229.283 135.285C228.487 135.822 228.399 137.094 229.088 138.126C229.776 139.158 230.98 139.559 231.776 139.022Z"
    fill="black" />
  <path
    d="M240.19 143.26C240.987 142.723 241.074 141.451 240.386 140.419C239.697 139.387 238.494 138.986 237.697 139.523C236.9 140.06 236.813 141.332 237.501 142.364C238.19 143.396 239.393 143.797 240.19 143.26Z"
    fill="black" />
  <path
    d="M223.349 143.698C224.146 143.161 224.234 141.889 223.545 140.857C222.857 139.825 221.653 139.424 220.856 139.961C220.06 140.498 219.972 141.77 220.661 142.802C221.349 143.834 222.553 144.235 223.349 143.698Z"
    fill="black" />
  <path
    d="M231.771 147.943C232.567 147.406 232.655 146.134 231.967 145.102C231.278 144.07 230.074 143.669 229.278 144.206C228.481 144.743 228.394 146.015 229.082 147.047C229.771 148.079 230.974 148.48 231.771 147.943Z"
    fill="black" />
  <path
    d="M240.196 152.194C240.992 151.657 241.08 150.385 240.391 149.353C239.703 148.321 238.499 147.92 237.703 148.457C236.906 148.994 236.818 150.266 237.507 151.298C238.195 152.33 239.399 152.731 240.196 152.194Z"
    fill="black" />
  <path
    d="M222.644 125.848C223.441 125.31 223.528 124.038 222.84 123.006C222.152 121.974 220.948 121.573 220.151 122.11C219.355 122.648 219.267 123.92 219.955 124.952C220.644 125.984 221.848 126.385 222.644 125.848Z"
    fill="#F0F0F0" />
  <path
    d="M231.064 130.093C231.861 129.556 231.948 128.284 231.26 127.252C230.572 126.22 229.368 125.818 228.571 126.356C227.775 126.893 227.687 128.165 228.376 129.197C229.064 130.229 230.268 130.63 231.064 130.093Z"
    fill="#F0F0F0" />
  <path
    d="M239.486 134.338C240.283 133.801 240.37 132.529 239.682 131.497C238.993 130.465 237.79 130.064 236.993 130.601C236.197 131.138 236.109 132.41 236.797 133.442C237.486 134.474 238.69 134.875 239.486 134.338Z"
    fill="#F0F0F0" />
  <path
    d="M222.646 134.769C223.442 134.232 223.53 132.96 222.841 131.928C222.153 130.896 220.949 130.495 220.153 131.032C219.356 131.569 219.268 132.841 219.957 133.873C220.645 134.905 221.849 135.306 222.646 134.769Z"
    fill="#F0F0F0" />
  <path
    d="M231.069 139.02C231.866 138.483 231.953 137.211 231.265 136.179C230.577 135.147 229.373 134.746 228.576 135.283C227.78 135.82 227.692 137.092 228.381 138.124C229.069 139.156 230.273 139.557 231.069 139.02Z"
    fill="#F0F0F0" />
  <path
    d="M239.484 143.265C240.28 142.728 240.368 141.456 239.68 140.424C238.991 139.392 237.787 138.991 236.991 139.528C236.194 140.065 236.107 141.337 236.795 142.369C237.484 143.401 238.687 143.802 239.484 143.265Z"
    fill="#F0F0F0" />
  <path
    d="M222.643 143.703C223.44 143.166 223.527 141.894 222.839 140.862C222.151 139.83 220.947 139.429 220.15 139.966C219.354 140.503 219.266 141.775 219.955 142.807C220.643 143.839 221.847 144.24 222.643 143.703Z"
    fill="#F0F0F0" />
  <path
    d="M231.064 147.941C231.861 147.404 231.948 146.132 231.26 145.1C230.572 144.068 229.368 143.667 228.571 144.204C227.775 144.741 227.687 146.013 228.376 147.045C229.064 148.077 230.268 148.479 231.064 147.941Z"
    fill="#F0F0F0" />
  <path
    d="M239.489 152.192C240.286 151.655 240.374 150.383 239.685 149.351C238.997 148.319 237.793 147.918 236.996 148.455C236.2 148.992 236.112 150.264 236.801 151.296C237.489 152.328 238.693 152.729 239.489 152.192Z"
    fill="#F0F0F0" />
  <path
    d="M216.164 222.839V233.642C216.164 234.437 216.595 235.168 217.287 235.537L244.635 250.165C245.39 250.57 246.301 250.002 246.301 249.129V237.922C246.301 237.489 246.068 237.091 245.694 236.885L217.823 221.803C217.075 221.391 216.164 221.952 216.164 222.825V222.839Z"
    fill="black" />
  <path
    d="M218.501 233.755H218.529V222.172L217.866 221.817C217.096 221.405 216.171 221.973 216.171 222.853V233.933C216.171 234.266 216.263 234.586 216.432 234.862L218.508 233.762L218.501 233.755Z"
    fill="#A1A1A1" stroke="black" stroke-width="0.124891" stroke-miterlimit="10" />
  <path
    d="M218.416 233.67L216.164 234.82C216.32 235.082 216.736 235.437 217.018 235.586L244.628 250.172C245.383 250.577 246.294 250.009 246.294 249.136V248.532L218.409 233.677L218.416 233.67Z"
    fill="#EAEAEA" stroke="black" stroke-width="0.124891" stroke-miterlimit="10" />
  <path
    d="M216.164 95.569V106.372C216.164 107.167 216.595 107.898 217.287 108.267L244.635 122.895C245.39 123.3 246.301 122.732 246.301 121.859V110.652C246.301 110.219 246.068 109.821 245.694 109.615L217.823 94.5328C217.075 94.1211 216.164 94.6818 216.164 95.5549V95.569Z"
    fill="black" />
  <path
    d="M218.501 106.486H218.529V94.9023L217.866 94.5474C217.096 94.1357 216.171 94.7035 216.171 95.5836V106.663C216.171 106.997 216.263 107.316 216.432 107.593L218.508 106.493L218.501 106.486Z"
    fill="#A1A1A1" stroke="black" stroke-width="0.124891" stroke-miterlimit="10" />
  <path
    d="M218.416 106.4L216.164 107.55C216.32 107.812 216.736 108.167 217.018 108.316L244.628 122.902C245.383 123.307 246.294 122.739 246.294 121.866V121.262L218.409 106.407L218.416 106.4Z"
    fill="#EAEAEA" stroke="black" stroke-width="0.124891" stroke-miterlimit="10" />
</svg>