<svg width="26" height="25" viewBox="0 0 26 25" fill="none" xmlns="http://www.w3.org/2000/svg">
  <path
    d="M14.89 1.5798C13.75 0.789805 12.25 0.789805 11.11 1.5798L0.880001 8.71981C0.400001 9.0598 0.110001 9.60981 0.110001 10.1898V21.4398C0.110001 23.2598 1.59 24.7398 3.41 24.7398H22.58C24.4 24.7398 25.88 23.2598 25.88 21.4398V10.1898C25.88 9.5998 25.59 9.04981 25.11 8.71981L14.88 1.5798H14.89ZM24.35 21.4398C24.35 22.4098 23.56 23.1998 22.59 23.1998H3.42C2.45 23.1998 1.66 22.4098 1.66 21.4398V10.3298L11.12 17.2398C12.26 18.0298 13.76 18.0298 14.9 17.2398L24.36 10.3298V21.4398H24.35Z"
    fill="white" />
</svg>