<svg width="1024" height="1024" viewBox="-120 -120 1244 1244" fill="none" xmlns="http://www.w3.org/2000/svg">
  <path
    d="M63.708 126.018L960.292 126.018C994.564 126.018 1024 96.582 1024 62.31C1024 28.038 994.564 0 960.292 0L63.708 0C29.436 0 0 28.038 0 62.31C0 96.582 29.436 126.018 63.708 126.018Z"
    fill="black" />
  <path
    d="M204.146 573.448L819.854 573.448C853.126 573.448 882.562 544.012 882.562 509.74C882.562 475.468 853.126 446.032 819.854 446.032L204.146 446.032C170.874 446.032 141.438 475.468 141.438 509.74C141.438 544.012 170.874 573.448 204.146 573.448Z"
    fill="black" />
  <path
    d="M63.708 348.034L416.94 348.034C450.212 348.034 479.648 318.598 479.648 284.326C479.648 250.054 450.212 220.618 416.94 220.618L63.708 220.618C29.436 220.618 0 250.054 0 284.326C0 318.598 29.436 348.034 63.708 348.034Z"
    fill="black" />
  <path
    d="M416.94 796.618L960.292 796.618C994.564 796.618 1024 767.182 1024 732.91C1024 698.638 994.564 669.202 960.292 669.202L416.94 669.202C382.668 669.202 353.232 698.638 353.232 732.91C353.232 767.182 382.668 796.618 416.94 796.618Z"
    fill="black" />
  <path
    d="M63.708 1024L960.292 1024C994.564 1024 1024 994.564 1024 960.292C1024 926.02 994.564 896.584 960.292 896.584L63.708 896.584C29.436 896.584 0 926.02 0 960.292C0 994.564 29.436 1024 63.708 1024Z"
    fill="black" />
</svg>