<svg width="468" height="390" viewBox="0 0 468 390" fill="none" xmlns="http://www.w3.org/2000/svg">
  <g clip-path="url(#clip0_1_1063)">
    <path
      d="M368.01 26.4288L364.18 25.623C363.365 25.4757 362.49 25.5797 361.667 26.0129L270.483 73.6454C268.005 74.9365 266.454 77.5014 266.454 80.2916V107.622C266.454 109.528 267.771 110.992 269.4 111.426L269.565 111.469C269.634 111.486 269.703 111.504 269.773 111.512L273.819 112.327L276.124 109.069L365.306 62.4673C366.606 61.7914 367.412 60.4483 367.412 58.9839V29.4963C367.412 29.2017 367.369 28.9158 367.308 28.6385L368.001 26.4375L368.01 26.4288Z"
      fill="black" stroke="black" stroke-width="0.866518" stroke-miterlimit="10" />
    <path
      d="M274.816 74.512L366 26.8795C368.616 25.5104 371.745 27.408 371.745 30.3629V59.8505C371.745 61.3149 370.93 62.658 369.639 63.3339L276.532 111.963C273.915 113.332 270.787 111.434 270.787 108.479V81.1495C270.787 78.3593 272.338 75.7944 274.816 74.5033V74.512Z"
      fill="#EEEEEE" stroke="black" stroke-width="0.866518" stroke-miterlimit="10" />
    <path
      d="M306.105 79.9273L306.088 74.7715L307.145 74.2169C308.029 73.7577 308.236 74.0176 308.236 74.6935V77.761C308.245 78.4369 308.037 78.9221 307.162 79.3814L306.105 79.936M307.353 72.3973L304.32 73.983L304.346 82.5615L307.379 80.9758C309.311 79.962 310.022 78.5149 310.013 77.3711V73.2464C309.996 72.0853 309.285 71.3921 307.353 72.3973Z"
      fill="black" />
    <path
      d="M313.263 74.6071L314.155 70.5431L315.056 73.6712L313.263 74.6157M315.325 68.2295L312.977 69.4599L310.611 79.2949L312.439 78.3331L312.855 76.4441L315.472 75.075L315.897 76.5221L317.734 75.5602L315.307 68.2295"
      fill="black" />
    <path
      d="M323.366 64.0181L317.404 67.1375V68.8532L319.501 67.7528L319.527 74.6242L321.286 73.6971L321.269 66.8342L323.366 65.7338V64.0181Z"
      fill="black" />
    <path
      d="M325.715 68.0908L326.607 64.0269L327.509 67.155L325.715 68.0908ZM327.777 61.7046L325.429 62.935L323.063 72.77L324.892 71.8082L325.308 69.9192L327.925 68.5501L328.349 69.9972L330.186 69.0353L327.76 61.7046"
      fill="black" />
    <path
      d="M333.392 64.0963L333.47 62.1986L335.143 61.3234L335.065 63.2211L333.392 64.0963ZM336.494 57.4067L335.281 58.0393L335.195 60.0583L333.522 60.9335L333.609 58.9145L332.396 59.547L332.309 61.566L330.879 62.3112L330.827 63.5763L332.257 62.8311L332.179 64.7288L330.784 65.4567L330.732 66.7305L332.144 65.9939L332.058 68.0649L333.262 67.4324L333.357 65.3614L335.03 64.4862L334.935 66.5572L336.148 65.9246L336.234 63.8536L337.595 63.1431L337.647 61.8693L336.269 62.5885L336.347 60.6908L337.69 59.989L337.742 58.7238L336.399 59.4257L336.486 57.4067"
      fill="black" />
    <path
      d="M342.247 54.3999L340.722 55.1971L338.503 57.762L339.24 58.9145L340.566 57.4327L340.583 63.6023L342.273 62.7185L342.247 54.3999Z"
      fill="black" />
    <path
      d="M286.192 76.5742C281.045 78.1859 276.782 84.2429 276.678 90.1005C276.574 95.9582 280.664 99.4069 285.811 97.7952C290.958 96.1835 295.23 90.1265 295.334 84.2688C295.438 78.4112 291.348 74.9624 286.192 76.5742Z"
      fill="black" />
  </g>
  <g filter="url(#filter0_d_1_1063)">
    <path
      d="M187.007 200.773C191.538 200.773 195.845 201.268 199.755 202.16L169.623 232.004C160.743 228.987 154.851 223.726 154.851 217.737C154.851 208.369 169.246 200.773 187.007 200.773Z"
      fill="#F2F2F2" />
    <path
      d="M188.118 196.029C210.338 196.339 228.17 205.94 228.17 217.737C228.17 229.534 209.741 239.451 187.008 239.451C167.899 239.451 151.831 232.583 147.196 223.267C149.886 228.66 156.411 233.236 165.138 236.13L167.854 233.427C173.372 235.306 179.95 236.399 187.008 236.399C206.545 236.399 222.379 228.043 222.379 217.74C222.379 210.024 213.505 203.405 200.847 200.563L203.563 197.859C198.814 196.756 193.601 196.11 188.115 196.032L188.118 196.029Z"
      fill="#A7A7A7" />
    <path
      d="M187.007 196.019C187.098 196.019 187.189 196.019 187.28 196.019C187.673 196.019 187.754 196.019 187.832 196.023C187.939 196.023 188.023 196.023 188.108 196.026C193.604 196.104 198.817 196.75 203.565 197.853L200.85 200.556C196.598 199.602 191.921 199.072 187.007 199.072C167.47 199.072 151.639 207.428 151.639 217.734C151.639 224.315 158.096 230.1 167.853 233.424L165.138 236.128C154.374 232.557 146.955 226.433 145.958 219.361C145.948 219.289 145.942 219.241 145.935 219.192C145.919 219.05 145.906 218.937 145.896 218.824C145.89 218.746 145.886 218.704 145.883 218.659C145.877 218.568 145.873 218.526 145.87 218.481C145.864 218.39 145.86 218.332 145.857 218.277C145.857 218.206 145.851 218.161 145.851 218.112C145.851 218.022 145.847 217.98 145.847 217.941C145.847 217.838 145.847 217.783 145.847 217.728C145.847 205.734 164.277 196.01 187.01 196.01L187.007 196.019Z"
      fill="#383838" />
    <path
      d="M167.853 233.428C168.369 233.602 168.896 233.774 169.432 233.935C169.789 234.042 170.149 234.149 170.513 234.249C171.608 234.553 172.735 234.828 173.894 235.073C174.667 235.235 175.453 235.384 176.249 235.52C177.246 235.688 178.263 235.833 179.296 235.953C180.124 236.05 180.962 236.131 181.81 236.199C183.505 236.331 185.24 236.399 187.003 236.399C188.767 236.399 190.635 236.325 192.389 236.186C192.973 236.137 193.555 236.082 194.13 236.021C194.419 235.989 194.705 235.956 194.99 235.921C206.687 234.498 216.161 230.013 220.228 224.153C221.618 222.151 222.375 219.991 222.375 217.737C222.375 217.013 222.297 216.302 222.144 215.6C222.043 215.131 221.91 214.669 221.745 214.213C221.621 213.87 221.478 213.53 221.319 213.194C220.734 211.962 219.919 210.782 218.899 209.66C218.62 209.356 218.328 209.052 218.019 208.757C217.711 208.46 217.386 208.169 217.051 207.884C216.6 207.503 216.126 207.131 215.625 206.769C215.375 206.587 215.119 206.41 214.859 206.232C213.55 205.352 212.095 204.534 210.513 203.79C207.664 202.452 204.403 201.355 200.847 200.557C196.595 199.603 191.918 199.072 187.003 199.072C167.466 199.072 151.635 207.428 151.635 217.734C151.635 224.315 158.093 230.1 167.85 233.424L167.853 233.428ZM187.007 199.881C205.703 199.881 220.855 207.875 220.855 217.737C220.855 227.6 205.703 235.594 187.007 235.594C168.311 235.594 153.159 227.6 153.159 217.737C153.159 207.875 168.314 199.881 187.007 199.881Z"
      fill="#2C2C2C" />
    <path
      d="M187.007 199.88C205.702 199.88 220.855 207.874 220.855 217.737C220.855 227.6 205.702 235.594 187.007 235.594C168.311 235.594 153.159 227.6 153.159 217.737C153.159 207.874 168.314 199.88 187.007 199.88ZM169.623 232.004L199.755 202.16C195.845 201.268 191.538 200.773 187.007 200.773C169.246 200.773 154.851 208.369 154.851 217.737C154.851 223.726 160.74 228.987 169.623 232.004Z"
      fill="#D1D1D1" />
    <path
      d="M187.007 195.877C209.89 195.877 228.439 205.665 228.439 217.737C228.439 229.809 209.89 239.597 187.007 239.597C164.125 239.597 145.575 229.809 145.575 217.737C145.575 205.665 164.125 195.877 187.007 195.877ZM187.007 239.452C209.74 239.452 228.17 229.731 228.17 217.737C228.17 205.743 210.335 196.339 188.118 196.029C187.189 196.022 187.098 196.022 187.007 196.022C164.274 196.019 145.845 205.743 145.845 217.737C145.845 217.792 145.845 217.847 145.845 217.902C145.858 218.342 145.861 218.397 145.864 218.452C145.903 218.943 145.916 219.056 145.929 219.166C145.939 219.247 145.945 219.296 145.952 219.344C147.534 230.598 165.307 239.452 187.004 239.452H187.007Z"
      fill="#0A0A0A" />
    <path
      d="M228.439 217.737V230.2C228.439 233.686 226.893 236.981 224.142 239.901C221.018 243.232 216.324 246.078 210.582 248.176C207.051 249.47 203.121 250.479 198.908 251.142C196.345 251.549 193.679 251.827 190.928 251.96C189.635 252.025 188.329 252.06 187.007 252.06C186.653 252.06 186.299 252.057 185.945 252.05C181.184 251.992 176.617 251.504 172.385 250.663C169.76 250.143 167.266 249.48 164.93 248.707C162.049 247.75 159.409 246.605 157.067 245.318C152.656 242.883 149.297 239.911 147.388 236.609C146.209 234.572 145.575 232.422 145.575 230.197V217.734C145.575 219.962 146.205 222.112 147.384 224.137C149.294 227.442 152.653 230.413 157.064 232.849C159.405 234.139 162.046 235.28 164.927 236.237C167.262 237.014 169.76 237.673 172.381 238.194C176.614 239.035 181.18 239.523 185.942 239.581C186.296 239.588 186.65 239.591 187.004 239.591C188.329 239.591 189.635 239.559 190.924 239.491C193.672 239.358 196.339 239.08 198.905 238.672C203.118 238.013 207.048 237.001 210.578 235.707C216.321 233.605 221.014 230.76 224.139 227.429C226.89 224.505 228.436 221.21 228.436 217.728L228.439 217.737Z"
      fill="#2C2C2C" />
    <path
      d="M157.063 232.848V245.308C152.653 242.873 149.294 239.901 147.384 236.6V224.137C149.294 227.442 152.653 230.413 157.063 232.848Z"
      fill="#A7A7A7" />
    <path
      d="M185.945 239.584V252.044C181.183 251.985 176.617 251.497 172.384 250.656V238.197C176.617 239.038 181.183 239.526 185.945 239.584Z"
      fill="#C7C7C7" />
    <path
      d="M224.141 227.435V239.898C221.017 243.229 216.323 246.074 210.581 248.173V235.713C216.323 233.612 221.017 230.766 224.141 227.435Z"
      fill="#C7C7C7" />
    <path
      d="M198.907 238.679V251.135C196.345 251.543 193.678 251.821 190.927 251.954V239.494C193.675 239.361 196.341 239.083 198.907 238.676V238.679Z"
      fill="#C7C7C7" />
    <path opacity="0.24"
      d="M224.521 227.791C221.367 231.154 216.605 234.064 210.759 236.202C207.137 237.527 203.175 238.533 198.988 239.19C196.364 239.607 193.658 239.885 190.952 240.014C190.02 240.063 189.065 240.089 188.107 240.102V251.52C189.046 251.507 189.984 251.481 190.9 251.436C193.57 251.306 196.234 251.035 198.822 250.624C202.944 249.977 206.839 248.988 210.395 247.685C216.089 245.605 220.708 242.792 223.754 239.542C226.512 236.616 227.912 233.472 227.912 230.2V222.762C227.171 224.499 226.038 226.18 224.521 227.794V227.791Z"
      fill="#E5E5E5" />
    <path
      d="M223.791 232.858C223.791 230.242 223.229 229.682 220.602 229.682C223.229 229.682 223.791 229.123 223.791 226.507C223.791 229.123 224.353 229.682 226.981 229.682C224.353 229.682 223.791 230.242 223.791 232.858Z"
      fill="#E5E5E5" />
    <path
      d="M220.601 235.703C220.601 234.116 220.26 233.773 218.662 233.773C220.257 233.773 220.601 233.433 220.601 231.842C220.601 233.43 220.942 233.773 222.541 233.773C220.946 233.773 220.601 234.112 220.601 235.703Z"
      fill="#E5E5E5" />
    <path
      d="M224.695 236.732C224.695 235.561 224.442 235.309 223.266 235.309C224.442 235.309 224.695 235.057 224.695 233.886C224.695 235.057 224.948 235.309 226.124 235.309C224.948 235.309 224.695 235.561 224.695 236.732Z"
      fill="#E5E5E5" />
    <path
      d="M148.115 230.617C148.115 228.754 147.715 228.357 145.844 228.357C147.715 228.357 148.115 227.959 148.115 226.096C148.115 227.959 148.514 228.357 150.385 228.357C148.517 228.357 148.115 228.754 148.115 230.617Z"
      fill="#E5E5E5" />
  </g>
  <g filter="url(#filter1_d_1_1063)">
    <path
      d="M298.243 240.451C302.774 240.451 307.081 240.945 310.992 241.838L280.859 271.682C271.979 268.665 266.087 263.404 266.087 257.415C266.087 248.047 280.483 240.451 298.243 240.451Z"
      fill="#F2F2F2" />
    <path
      d="M299.353 235.703C321.573 236.014 339.404 245.615 339.404 257.411C339.404 269.208 320.975 279.126 298.242 279.126C279.134 279.126 263.066 272.257 258.431 262.941C261.12 268.335 267.645 272.911 276.373 275.805L279.088 273.101C284.607 274.98 291.184 276.073 298.242 276.073C317.779 276.073 333.613 267.717 333.613 257.414C333.613 249.699 324.74 243.079 312.082 240.237L314.797 237.533C310.049 236.431 304.835 235.784 299.349 235.706L299.353 235.703Z"
      fill="#A7A7A7" />
    <path
      d="M298.243 235.697C298.334 235.697 298.425 235.697 298.516 235.697C298.909 235.697 298.99 235.697 299.068 235.7C299.175 235.7 299.26 235.7 299.344 235.703C304.84 235.781 310.056 236.428 314.802 237.53L312.086 240.234C307.834 239.28 303.157 238.749 298.243 238.749C278.706 238.749 262.875 247.105 262.875 257.411C262.875 263.992 269.332 269.777 279.089 273.101L276.374 275.805C265.61 272.235 258.191 266.11 257.194 259.038C257.184 258.967 257.178 258.918 257.171 258.87C257.155 258.727 257.142 258.614 257.132 258.501C257.126 258.423 257.123 258.381 257.119 258.336C257.113 258.246 257.11 258.204 257.106 258.158C257.1 258.068 257.097 258.01 257.093 257.955C257.093 257.883 257.087 257.838 257.087 257.79C257.087 257.699 257.084 257.657 257.084 257.618C257.084 257.515 257.084 257.46 257.084 257.405C257.084 245.411 275.513 235.687 298.246 235.687L298.243 235.697Z"
      fill="#383838" />
    <path
      d="M279.086 273.101C279.602 273.279 280.129 273.447 280.664 273.609C281.022 273.716 281.382 273.822 281.746 273.923C282.841 274.227 283.968 274.502 285.127 274.747C285.9 274.909 286.686 275.058 287.482 275.194C288.479 275.362 289.496 275.507 290.529 275.627C291.357 275.724 292.195 275.805 293.043 275.873C294.738 276.005 296.473 276.073 298.236 276.073C300 276.073 301.868 275.999 303.622 275.86C304.206 275.811 304.788 275.756 305.363 275.695C305.652 275.662 305.938 275.63 306.223 275.595C317.92 274.172 327.394 269.687 331.461 263.827C332.851 261.825 333.608 259.665 333.608 257.411C333.608 256.687 333.53 255.975 333.377 255.274C333.276 254.805 333.143 254.342 332.978 253.886C332.854 253.544 332.711 253.204 332.552 252.868C331.967 251.636 331.152 250.455 330.132 249.333C329.853 249.029 329.561 248.725 329.252 248.431C328.944 248.134 328.619 247.843 328.284 247.558C327.833 247.176 327.358 246.805 326.858 246.442C326.608 246.261 326.352 246.083 326.092 245.906C324.783 245.026 323.328 244.208 321.746 243.464C318.897 242.125 315.636 241.029 312.08 240.23C307.828 239.276 303.151 238.746 298.236 238.746C278.699 238.746 262.868 247.102 262.868 257.408C262.868 263.989 269.326 269.774 279.083 273.098L279.086 273.101ZM298.24 239.555C316.935 239.555 332.088 247.548 332.088 257.411C332.088 267.274 316.935 275.268 298.24 275.268C279.544 275.268 264.392 267.274 264.392 257.411C264.392 247.548 279.547 239.555 298.24 239.555Z"
      fill="#2C2C2C" />
    <path
      d="M298.243 239.555C316.939 239.555 332.091 247.548 332.091 257.411C332.091 267.274 316.939 275.268 298.243 275.268C279.547 275.268 264.395 267.274 264.395 257.411C264.395 247.548 279.55 239.555 298.243 239.555ZM280.859 271.679L310.991 241.834C307.081 240.942 302.774 240.447 298.243 240.447C280.482 240.447 266.087 248.043 266.087 257.411C266.087 263.4 271.976 268.662 280.859 271.679Z"
      fill="#D1D1D1" />
    <path
      d="M298.243 235.555C321.125 235.555 339.675 245.343 339.675 257.415C339.675 269.486 321.125 279.275 298.243 279.275C275.36 279.275 256.811 269.49 256.811 257.415C256.811 245.34 275.36 235.555 298.243 235.555ZM298.243 279.129C320.976 279.129 339.406 269.409 339.406 257.415C339.406 245.421 321.57 236.017 299.354 235.707C298.425 235.7 298.334 235.7 298.243 235.7C275.51 235.7 257.08 245.421 257.08 257.418C257.08 257.473 257.08 257.528 257.08 257.583C257.093 258.023 257.097 258.078 257.1 258.133C257.139 258.624 257.152 258.737 257.165 258.847C257.175 258.928 257.181 258.977 257.188 259.025C258.769 270.279 276.543 279.133 298.24 279.133L298.243 279.129Z"
      fill="#0A0A0A" />
    <path
      d="M339.675 257.412V269.874C339.675 273.36 338.129 276.656 335.378 279.576C332.254 282.906 327.56 285.752 321.818 287.851C318.287 289.144 314.357 290.153 310.144 290.816C307.581 291.224 304.911 291.502 302.164 291.634C300.871 291.699 299.565 291.735 298.243 291.735C297.889 291.735 297.535 291.731 297.181 291.725C292.419 291.667 287.853 291.178 283.621 290.338C280.996 289.817 278.502 289.154 276.166 288.381C273.285 287.424 270.645 286.279 268.303 284.992C263.892 282.557 260.533 279.585 258.623 276.284C257.448 274.256 256.814 272.109 256.814 269.881V257.418C256.814 259.646 257.444 261.797 258.623 263.821C260.533 267.126 263.892 270.098 268.303 272.533C270.645 273.823 273.285 274.964 276.166 275.922C278.502 276.698 280.999 277.357 283.621 277.878C287.853 278.719 292.419 279.207 297.181 279.265C297.535 279.272 297.889 279.275 298.243 279.275C299.568 279.275 300.874 279.243 302.164 279.175C304.911 279.042 307.578 278.764 310.144 278.357C314.357 277.697 318.287 276.685 321.818 275.391C327.56 273.289 332.254 270.444 335.378 267.113C338.129 264.19 339.675 260.894 339.675 257.412Z"
      fill="#2C2C2C" />
    <path
      d="M268.3 272.526V284.985C263.889 282.55 260.53 279.578 258.62 276.277V263.814C260.53 267.119 263.889 270.091 268.3 272.526Z"
      fill="#A7A7A7" />
    <path
      d="M297.181 279.262V291.721C292.42 291.663 287.853 291.175 283.621 290.334V277.875C287.853 278.715 292.42 279.204 297.181 279.262Z"
      fill="#C7C7C7" />
    <path
      d="M335.379 267.112V279.575C332.255 282.906 327.561 285.752 321.819 287.85V275.391C327.561 273.289 332.255 270.443 335.379 267.112Z"
      fill="#C7C7C7" />
    <path
      d="M310.145 278.353V290.809C307.582 291.217 304.913 291.495 302.165 291.627V279.168C304.913 279.035 307.579 278.757 310.145 278.35V278.353Z"
      fill="#C7C7C7" />
    <path opacity="0.24"
      d="M335.759 267.468C332.605 270.831 327.843 273.742 321.997 275.879C318.375 277.205 314.412 278.211 310.226 278.867C307.601 279.284 304.896 279.563 302.19 279.692C301.258 279.74 300.303 279.766 299.345 279.779V291.198C300.283 291.185 301.222 291.159 302.138 291.114C304.808 290.984 307.471 290.713 310.06 290.302C314.182 289.655 318.076 288.666 321.633 287.362C327.327 285.283 331.945 282.47 334.992 279.22C337.75 276.293 339.15 273.15 339.15 269.878V262.44C338.409 264.176 337.275 265.858 335.759 267.472V267.468Z"
      fill="#E5E5E5" />
    <path
      d="M335.027 272.536C335.027 269.92 334.465 269.36 331.838 269.36C334.465 269.36 335.027 268.801 335.027 266.185C335.027 268.801 335.589 269.36 338.217 269.36C335.589 269.36 335.027 269.92 335.027 272.536Z"
      fill="#E5E5E5" />
    <path
      d="M331.837 275.381C331.837 273.793 331.496 273.451 329.898 273.451C331.493 273.451 331.837 273.111 331.837 271.52C331.837 273.108 332.178 273.451 333.776 273.451C332.181 273.451 331.837 273.79 331.837 275.381Z"
      fill="#E5E5E5" />
    <path
      d="M335.93 276.41C335.93 275.239 335.677 274.987 334.501 274.987C335.677 274.987 335.93 274.735 335.93 273.564C335.93 274.735 336.184 274.987 337.36 274.987C336.184 274.987 335.93 275.239 335.93 276.41Z"
      fill="#E5E5E5" />
    <path
      d="M259.347 270.295C259.347 268.432 258.948 268.034 257.077 268.034C258.948 268.034 259.347 267.637 259.347 265.774C259.347 267.637 259.747 268.034 261.617 268.034C259.747 268.034 259.347 268.432 259.347 270.295Z"
      fill="#E5E5E5" />
  </g>
  <g filter="url(#filter2_d_1_1063)">
    <path
      d="M273.996 180.95C278.527 180.95 282.834 181.445 286.744 182.337L256.612 212.182C247.732 209.165 241.84 203.903 241.84 197.914C241.84 188.546 256.235 180.95 273.996 180.95Z"
      fill="#E5E5E5" />
    <path
      d="M275.105 176.206C297.325 176.516 315.157 186.117 315.157 197.914C315.157 209.711 296.728 219.629 273.994 219.629C254.886 219.629 238.818 212.76 234.183 203.444C236.872 208.838 243.398 213.413 252.125 216.308L254.841 213.604C260.359 215.483 266.936 216.576 273.994 216.576C293.532 216.576 309.366 208.22 309.366 197.917C309.366 190.202 300.492 183.582 287.834 180.74L290.55 178.036C285.801 176.934 280.588 176.287 275.102 176.209L275.105 176.206Z"
      fill="#A7A7A7" />
    <path
      d="M273.996 176.197C274.087 176.197 274.178 176.197 274.268 176.197C274.661 176.197 274.743 176.197 274.821 176.2C274.928 176.2 275.012 176.2 275.097 176.203C280.592 176.281 285.809 176.928 290.554 178.03L287.839 180.734C283.587 179.78 278.91 179.249 273.996 179.249C254.459 179.249 238.628 187.605 238.628 197.911C238.628 204.492 245.085 210.277 254.842 213.601L252.126 216.305C241.362 212.735 233.944 206.61 232.947 199.538C232.937 199.467 232.93 199.418 232.924 199.37C232.908 199.227 232.895 199.114 232.885 199.001C232.879 198.923 232.875 198.881 232.872 198.836C232.866 198.746 232.862 198.704 232.859 198.658C232.853 198.568 232.849 198.51 232.846 198.455C232.846 198.383 232.84 198.338 232.84 198.29C232.84 198.199 232.836 198.157 232.836 198.118C232.836 198.015 232.836 197.96 232.836 197.905C232.836 185.911 251.266 176.187 273.999 176.187L273.996 176.197Z"
      fill="#383838" />
    <path
      d="M254.842 213.604C255.358 213.782 255.884 213.95 256.42 214.112C256.778 214.219 257.138 214.325 257.502 214.426C258.597 214.73 259.724 215.004 260.883 215.25C261.656 215.412 262.442 215.561 263.238 215.697C264.235 215.865 265.252 216.01 266.285 216.13C267.113 216.227 267.951 216.308 268.799 216.376C270.494 216.508 272.229 216.576 273.992 216.576C275.756 216.576 277.624 216.502 279.378 216.363C279.962 216.314 280.544 216.259 281.119 216.198C281.408 216.165 281.693 216.133 281.979 216.097C293.675 214.675 303.15 210.189 307.217 204.33C308.607 202.328 309.364 200.168 309.364 197.914C309.364 197.19 309.286 196.478 309.133 195.777C309.032 195.308 308.899 194.845 308.733 194.389C308.61 194.047 308.467 193.707 308.308 193.371C307.723 192.139 306.908 190.958 305.888 189.836C305.609 189.532 305.317 189.228 305.008 188.934C304.699 188.637 304.375 188.346 304.04 188.061C303.589 187.679 303.114 187.308 302.614 186.945C302.364 186.764 302.107 186.586 301.848 186.409C300.539 185.529 299.084 184.711 297.502 183.967C294.653 182.628 291.392 181.532 287.835 180.733C283.584 179.779 278.907 179.249 273.992 179.249C254.455 179.249 238.624 187.605 238.624 197.911C238.624 204.492 245.081 210.277 254.839 213.601L254.842 213.604ZM273.996 180.057C292.691 180.057 307.843 188.051 307.843 197.914C307.843 207.777 292.691 215.771 273.996 215.771C255.3 215.771 240.148 207.777 240.148 197.914C240.148 188.051 255.303 180.057 273.996 180.057Z"
      fill="#2C2C2C" />
    <path
      d="M273.999 180.054C292.694 180.054 307.847 188.048 307.847 197.911C307.847 207.774 292.694 215.768 273.999 215.768C255.303 215.768 240.151 207.774 240.151 197.911C240.151 188.048 255.306 180.054 273.999 180.054ZM256.615 212.178L286.747 182.334C282.837 181.441 278.53 180.947 273.999 180.947C256.238 180.947 241.843 188.543 241.843 197.911C241.843 203.9 247.732 209.161 256.615 212.178Z"
      fill="#E5E5E5" />
    <path
      d="M273.999 176.054C296.882 176.054 315.431 185.843 315.431 197.914C315.431 209.986 296.882 219.774 273.999 219.774C251.117 219.774 232.567 209.989 232.567 197.914C232.567 185.839 251.117 176.054 273.999 176.054ZM273.999 219.629C296.732 219.629 315.162 209.908 315.162 197.914C315.162 185.92 297.327 176.517 275.11 176.206C274.181 176.2 274.09 176.2 273.999 176.2C251.266 176.2 232.836 185.92 232.836 197.918C232.836 197.972 232.836 198.027 232.836 198.082C232.849 198.522 232.853 198.577 232.856 198.632C232.895 199.124 232.908 199.237 232.921 199.347C232.931 199.428 232.937 199.476 232.944 199.525C234.525 210.778 252.299 219.632 273.996 219.632L273.999 219.629Z"
      fill="#0A0A0A" />
    <path
      d="M315.431 197.911V210.374C315.431 213.86 313.885 217.155 311.134 220.075C308.009 223.406 303.316 226.252 297.573 228.35C294.043 229.644 290.113 230.653 285.9 231.316C283.337 231.723 280.667 232.001 277.919 232.134C276.627 232.198 275.321 232.234 273.999 232.234C273.645 232.234 273.291 232.231 272.937 232.224C268.175 232.166 263.609 231.678 259.376 230.837C256.752 230.316 254.257 229.654 251.922 228.881C249.041 227.923 246.4 226.779 244.059 225.492C239.648 223.057 236.289 220.085 234.379 216.783C233.204 214.756 232.57 212.608 232.57 210.38V197.918C232.57 200.146 233.2 202.296 234.379 204.32C236.289 207.625 239.648 210.597 244.059 213.032C246.4 214.322 249.041 215.464 251.922 216.421C254.257 217.197 256.755 217.857 259.376 218.377C263.609 219.218 268.175 219.707 272.937 219.765C273.291 219.771 273.645 219.774 273.999 219.774C275.324 219.774 276.63 219.742 277.919 219.674C280.667 219.542 283.334 219.264 285.9 218.856C290.113 218.196 294.043 217.184 297.573 215.891C303.316 213.789 308.009 210.943 311.134 207.612C313.885 204.689 315.431 201.394 315.431 197.911Z"
      fill="#2C2C2C" />
    <path
      d="M244.056 213.026V225.485C239.645 223.05 236.286 220.078 234.376 216.777V204.314C236.286 207.619 239.645 210.591 244.056 213.026Z"
      fill="#A7A7A7" />
    <path
      d="M272.937 219.762V232.221C268.175 232.163 263.609 231.675 259.376 230.834V218.375C263.609 219.215 268.175 219.704 272.937 219.762Z"
      fill="#C7C7C7" />
    <path
      d="M311.132 207.612V220.075C308.007 223.406 303.314 226.252 297.571 228.35V215.894C303.314 213.792 308.007 210.946 311.132 207.616V207.612Z"
      fill="#C7C7C7" />
    <path
      d="M285.899 218.856V231.312C283.336 231.72 280.666 231.998 277.918 232.13V219.674C280.666 219.542 283.333 219.263 285.899 218.856Z"
      fill="#C7C7C7" />
    <path opacity="0.24"
      d="M311.513 207.968C308.359 211.331 303.598 214.241 297.751 216.379C294.13 217.705 290.167 218.71 285.98 219.367C283.356 219.784 280.65 220.062 277.945 220.191C277.012 220.24 276.057 220.266 275.099 220.279V231.697C276.038 231.684 276.977 231.658 277.893 231.613C280.562 231.484 283.226 231.212 285.815 230.801C289.936 230.155 293.831 229.165 297.387 227.862C303.081 225.783 307.7 222.969 310.747 219.719C313.504 216.793 314.904 213.65 314.904 210.377V202.939C314.164 204.676 313.03 206.358 311.513 207.971V207.968Z"
      fill="#E5E5E5" />
    <path
      d="M310.783 213.035C310.783 210.419 310.221 209.86 307.594 209.86C310.221 209.86 310.783 209.3 310.783 206.684C310.783 209.3 311.345 209.86 313.973 209.86C311.345 209.86 310.783 210.419 310.783 213.035Z"
      fill="#E5E5E5" />
    <path
      d="M307.593 215.881C307.593 214.293 307.252 213.951 305.654 213.951C307.249 213.951 307.593 213.611 307.593 212.02C307.593 213.608 307.934 213.951 309.532 213.951C307.937 213.951 307.593 214.29 307.593 215.881Z"
      fill="#E5E5E5" />
    <path
      d="M311.687 216.909C311.687 215.739 311.433 215.486 310.257 215.486C311.433 215.486 311.687 215.234 311.687 214.063C311.687 215.234 311.94 215.486 313.116 215.486C311.94 215.486 311.687 215.739 311.687 216.909Z"
      fill="#E5E5E5" />
    <path
      d="M235.103 210.794C235.103 208.935 234.703 208.534 232.833 208.534C234.703 208.534 235.103 208.136 235.103 206.273C235.103 208.136 235.502 208.534 237.373 208.534C235.502 208.534 235.103 208.932 235.103 210.794Z"
      fill="#E5E5E5" />
  </g>
  <g filter="url(#filter3_d_1_1063)">
    <path
      d="M275.776 167.882C280.307 167.882 284.614 168.377 288.525 169.269L258.393 199.113C249.512 196.096 243.62 190.835 243.62 184.846C243.62 175.478 258.016 167.882 275.776 167.882Z"
      fill="#E5E5E5" />
    <path
      d="M276.888 163.138C299.108 163.449 316.939 173.05 316.939 184.846C316.939 196.643 298.51 206.561 275.777 206.561C256.669 206.561 240.6 199.692 235.965 190.376C238.655 195.77 245.18 200.346 253.908 203.24L256.623 200.536C262.142 202.415 268.719 203.508 275.777 203.508C295.314 203.508 311.148 195.152 311.148 184.85C311.148 177.134 302.274 170.514 289.617 167.672L292.332 164.968C287.583 163.866 282.37 163.219 276.884 163.141L276.888 163.138Z"
      fill="#A7A7A7" />
    <path
      d="M275.776 163.132C275.867 163.132 275.958 163.132 276.049 163.132C276.442 163.132 276.523 163.132 276.601 163.135C276.708 163.135 276.793 163.135 276.877 163.138C282.373 163.216 287.589 163.863 292.335 164.965L289.619 167.669C285.368 166.715 280.69 166.184 275.776 166.184C256.239 166.184 240.408 174.54 240.408 184.846C240.408 191.427 246.865 197.212 256.622 200.536L253.907 203.24C243.143 199.67 235.724 193.545 234.727 186.473C234.717 186.402 234.711 186.353 234.704 186.305C234.688 186.162 234.675 186.049 234.665 185.936C234.659 185.858 234.656 185.816 234.652 185.771C234.646 185.681 234.643 185.639 234.639 185.593C234.633 185.503 234.63 185.445 234.626 185.39C234.626 185.318 234.62 185.273 234.62 185.225C234.62 185.134 234.617 185.092 234.617 185.053C234.617 184.95 234.617 184.895 234.617 184.84C234.617 172.846 253.046 163.122 275.779 163.122L275.776 163.132Z"
      fill="#383838" />
    <path
      d="M256.622 200.536C257.139 200.714 257.665 200.882 258.201 201.044C258.558 201.151 258.919 201.258 259.282 201.358C260.377 201.662 261.504 201.937 262.664 202.182C263.437 202.344 264.223 202.493 265.019 202.629C266.016 202.797 267.032 202.942 268.065 203.062C268.893 203.159 269.731 203.24 270.579 203.308C272.275 203.44 274.009 203.508 275.773 203.508C277.537 203.508 279.404 203.434 281.158 203.295C281.743 203.246 282.324 203.191 282.899 203.13C283.188 203.098 283.474 203.065 283.76 203.03C295.456 201.607 304.931 197.122 308.997 191.262C310.387 189.26 311.144 187.1 311.144 184.846C311.144 184.122 311.066 183.411 310.914 182.709C310.813 182.24 310.68 181.777 310.514 181.322C310.391 180.979 310.248 180.639 310.088 180.303C309.504 179.071 308.689 177.891 307.669 176.768C307.389 176.464 307.097 176.16 306.788 175.866C306.48 175.569 306.155 175.278 305.821 174.993C305.369 174.612 304.895 174.24 304.395 173.877C304.145 173.696 303.888 173.519 303.628 173.341C302.319 172.461 300.864 171.643 299.282 170.899C296.434 169.56 293.173 168.464 289.616 167.665C285.364 166.711 280.687 166.181 275.773 166.181C256.236 166.181 240.405 174.537 240.405 184.843C240.405 191.424 246.862 197.209 256.619 200.533L256.622 200.536ZM275.776 166.99C294.472 166.99 309.624 174.983 309.624 184.846C309.624 194.709 294.472 202.703 275.776 202.703C257.08 202.703 241.928 194.709 241.928 184.846C241.928 174.983 257.084 166.99 275.776 166.99Z"
      fill="#2C2C2C" />
    <path
      d="M275.776 166.99C294.472 166.99 309.624 174.984 309.624 184.846C309.624 194.709 294.472 202.703 275.776 202.703C257.08 202.703 241.928 194.709 241.928 184.846C241.928 174.984 257.083 166.99 275.776 166.99ZM258.392 199.114L288.525 169.27C284.614 168.377 280.307 167.882 275.776 167.882C258.016 167.882 243.62 175.478 243.62 184.846C243.62 190.835 249.509 196.097 258.392 199.114Z"
      fill="#E5E5E5" />
    <path
      d="M275.776 162.986C298.659 162.986 317.208 172.775 317.208 184.846C317.208 196.918 298.659 206.706 275.776 206.706C252.893 206.706 234.344 196.921 234.344 184.846C234.344 172.772 252.893 162.986 275.776 162.986ZM275.776 206.561C298.509 206.561 316.939 196.84 316.939 184.846C316.939 172.852 299.104 163.449 276.887 163.138C275.958 163.132 275.867 163.132 275.776 163.132C253.043 163.132 234.613 172.852 234.613 184.85C234.613 184.905 234.613 184.96 234.613 185.015C234.626 185.454 234.63 185.509 234.633 185.564C234.672 186.056 234.685 186.169 234.698 186.279C234.708 186.36 234.714 186.408 234.721 186.457C236.302 197.71 254.076 206.564 275.773 206.564L275.776 206.561Z"
      fill="#0A0A0A" />
    <path
      d="M317.208 184.846V197.309C317.208 200.795 315.662 204.09 312.911 207.01C309.787 210.341 305.093 213.187 299.351 215.285C295.82 216.579 291.89 217.588 287.677 218.251C285.114 218.658 282.444 218.936 279.697 219.069C278.404 219.134 277.098 219.169 275.776 219.169C275.422 219.169 275.068 219.166 274.714 219.159C269.952 219.101 265.386 218.613 261.153 217.772C258.529 217.251 256.035 216.589 253.699 215.816C250.818 214.859 248.177 213.714 245.836 212.427C241.425 209.992 238.066 207.02 236.156 203.718C234.981 201.691 234.347 199.544 234.347 197.315V184.853C234.347 187.081 234.977 189.231 236.156 191.255C238.066 194.56 241.425 197.532 245.836 199.967C248.177 201.257 250.818 202.399 253.699 203.356C256.035 204.132 258.532 204.792 261.153 205.313C265.386 206.153 269.952 206.642 274.714 206.7C275.068 206.706 275.422 206.71 275.776 206.71C277.101 206.71 278.407 206.677 279.697 206.609C282.444 206.477 285.111 206.199 287.677 205.791C291.89 205.131 295.82 204.119 299.351 202.826C305.093 200.724 309.787 197.878 312.911 194.547C315.662 191.624 317.208 188.329 317.208 184.846Z"
      fill="#2C2C2C" />
    <path
      d="M245.833 199.961V212.42C241.422 209.985 238.063 207.014 236.154 203.712V191.249C238.063 194.554 241.422 197.526 245.833 199.961Z"
      fill="#A7A7A7" />
    <path
      d="M274.715 206.697V219.156C269.953 219.098 265.386 218.61 261.154 217.769V205.31C265.386 206.15 269.953 206.639 274.715 206.697Z"
      fill="#C7C7C7" />
    <path
      d="M312.912 194.547V207.01C309.788 210.341 305.094 213.187 299.352 215.285V202.829C305.094 200.727 309.788 197.881 312.912 194.551V194.547Z"
      fill="#C7C7C7" />
    <path
      d="M287.678 205.788V218.248C285.115 218.655 282.445 218.933 279.698 219.066V206.609C282.445 206.477 285.112 206.199 287.678 205.791V205.788Z"
      fill="#C7C7C7" />
    <path opacity="0.24"
      d="M313.295 194.903C310.142 198.266 305.38 201.176 299.533 203.314C295.912 204.64 291.949 205.645 287.763 206.302C285.138 206.719 282.433 206.997 279.727 207.127C278.795 207.175 277.84 207.201 276.882 207.214V218.632C277.82 218.619 278.759 218.593 279.675 218.548C282.345 218.419 285.008 218.147 287.597 217.736C291.719 217.09 295.613 216.1 299.17 214.797C304.864 212.718 309.482 209.904 312.529 206.654C315.287 203.728 316.686 200.585 316.686 197.312V189.875C315.946 191.611 314.812 193.293 313.295 194.906V194.903Z"
      fill="#E5E5E5" />
    <path
      d="M312.56 199.971C312.56 197.355 311.999 196.795 309.371 196.795C311.999 196.795 312.56 196.236 312.56 193.62C312.56 196.236 313.122 196.795 315.75 196.795C313.122 196.795 312.56 197.355 312.56 199.971Z"
      fill="#E5E5E5" />
    <path
      d="M309.374 202.817C309.374 201.229 309.032 200.886 307.434 200.886C309.029 200.886 309.374 200.547 309.374 198.956C309.374 200.543 309.715 200.886 311.313 200.886C309.718 200.886 309.374 201.226 309.374 202.817Z"
      fill="#E5E5E5" />
    <path
      d="M313.467 203.842C313.467 202.671 313.214 202.419 312.038 202.419C313.214 202.419 313.467 202.167 313.467 200.996C313.467 202.167 313.72 202.419 314.896 202.419C313.72 202.419 313.467 202.671 313.467 203.842Z"
      fill="#E5E5E5" />
    <path
      d="M236.884 197.729C236.884 195.87 236.484 195.469 234.613 195.469C236.484 195.469 236.884 195.071 236.884 193.208C236.884 195.071 237.283 195.469 239.154 195.469C237.283 195.469 236.884 195.867 236.884 197.729Z"
      fill="#E5E5E5" />
  </g>
  <g filter="url(#filter4_d_1_1063)">
    <path
      d="M273.996 155.119C278.527 155.119 282.834 155.613 286.744 156.506L256.612 186.35C247.732 183.333 241.84 178.072 241.84 172.083C241.84 162.715 256.235 155.119 273.996 155.119Z"
      fill="#E5E5E5" />
    <path
      d="M275.105 150.372C297.325 150.682 315.157 160.283 315.157 172.08C315.157 183.876 296.728 193.794 273.994 193.794C254.886 193.794 238.818 186.926 234.183 177.609C236.872 183.003 243.398 187.579 252.125 190.473L254.841 187.77C260.359 189.649 266.936 190.742 273.994 190.742C293.532 190.742 309.366 182.386 309.366 172.083C309.366 164.367 300.492 157.748 287.834 154.905L290.55 152.202C285.801 151.099 280.588 150.452 275.102 150.375L275.105 150.372Z"
      fill="#A7A7A7" />
    <path
      d="M273.996 150.365C274.087 150.365 274.178 150.365 274.268 150.365C274.661 150.365 274.743 150.365 274.821 150.368C274.928 150.368 275.012 150.368 275.097 150.372C280.592 150.449 285.809 151.096 290.554 152.199L287.839 154.902C283.587 153.948 278.91 153.418 273.996 153.418C254.459 153.418 238.628 161.774 238.628 172.08C238.628 178.66 245.085 184.446 254.842 187.77L252.126 190.473C241.362 186.903 233.944 180.778 232.947 173.706C232.937 173.635 232.93 173.587 232.924 173.538C232.908 173.396 232.895 173.283 232.885 173.17C232.879 173.092 232.875 173.05 232.872 173.005C232.866 172.914 232.862 172.872 232.859 172.827C232.853 172.736 232.849 172.678 232.846 172.623C232.846 172.552 232.84 172.507 232.84 172.458C232.84 172.368 232.836 172.325 232.836 172.287C232.836 172.183 232.836 172.128 232.836 172.073C232.836 160.079 251.266 150.355 273.999 150.355L273.996 150.365Z"
      fill="#383838" />
    <path
      d="M254.842 187.77C255.358 187.948 255.884 188.116 256.42 188.277C256.778 188.384 257.138 188.491 257.502 188.591C258.597 188.895 259.724 189.17 260.883 189.416C261.656 189.577 262.442 189.726 263.238 189.862C264.235 190.03 265.252 190.176 266.285 190.295C267.113 190.392 267.951 190.473 268.799 190.541C270.494 190.674 272.229 190.742 273.992 190.742C275.756 190.742 277.624 190.667 279.378 190.528C279.962 190.48 280.544 190.425 281.119 190.363C281.408 190.331 281.693 190.299 281.979 190.263C293.675 188.84 303.15 184.355 307.217 178.495C308.607 176.494 309.364 174.334 309.364 172.08C309.364 171.355 309.286 170.644 309.133 169.942C309.032 169.473 308.899 169.011 308.733 168.555C308.61 168.212 308.467 167.873 308.308 167.536C307.723 166.304 306.908 165.124 305.888 164.002C305.609 163.698 305.317 163.394 305.008 163.1C304.699 162.802 304.375 162.511 304.04 162.226C303.589 161.845 303.114 161.473 302.614 161.111C302.364 160.93 302.107 160.752 301.848 160.574C300.539 159.694 299.084 158.876 297.502 158.133C294.653 156.794 291.392 155.698 287.835 154.899C283.584 153.945 278.907 153.415 273.992 153.415C254.455 153.415 238.624 161.771 238.624 172.076C238.624 178.657 245.081 184.442 254.839 187.767L254.842 187.77ZM273.996 154.223C292.691 154.223 307.843 162.217 307.843 172.08C307.843 181.943 292.691 189.936 273.996 189.936C255.3 189.936 240.148 181.943 240.148 172.08C240.148 162.217 255.303 154.223 273.996 154.223Z"
      fill="#2C2C2C" />
    <path
      d="M273.999 154.223C292.694 154.223 307.847 162.216 307.847 172.079C307.847 181.942 292.694 189.936 273.999 189.936C255.303 189.936 240.151 181.942 240.151 172.079C240.151 162.216 255.306 154.223 273.999 154.223ZM256.615 186.347L286.747 156.502C282.837 155.61 278.53 155.115 273.999 155.115C256.238 155.115 241.843 162.711 241.843 172.079C241.843 178.068 247.732 183.33 256.615 186.347Z"
      fill="#E5E5E5" />
    <path
      d="M273.999 150.223C296.882 150.223 315.431 160.011 315.431 172.083C315.431 184.154 296.882 193.943 273.999 193.943C251.117 193.943 232.567 184.158 232.567 172.083C232.567 160.008 251.117 150.223 273.999 150.223ZM273.999 193.797C296.732 193.797 315.162 184.077 315.162 172.083C315.162 160.089 297.327 150.685 275.11 150.375C274.181 150.368 274.09 150.368 273.999 150.368C251.266 150.368 232.836 160.089 232.836 172.086C232.836 172.141 232.836 172.196 232.836 172.251C232.849 172.691 232.853 172.746 232.856 172.801C232.895 173.292 232.908 173.405 232.921 173.515C232.931 173.596 232.937 173.645 232.944 173.693C234.525 184.947 252.299 193.801 273.996 193.801L273.999 193.797Z"
      fill="#0A0A0A" />
    <path
      d="M315.431 172.08V184.542C315.431 188.028 313.885 191.324 311.134 194.244C308.009 197.574 303.316 200.42 297.573 202.519C294.043 203.812 290.113 204.821 285.9 205.484C283.337 205.892 280.667 206.17 277.919 206.302C276.627 206.367 275.321 206.403 273.999 206.403C273.645 206.403 273.291 206.399 272.937 206.393C268.175 206.335 263.609 205.846 259.376 205.006C256.752 204.485 254.257 203.822 251.922 203.049C249.041 202.092 246.4 200.947 244.059 199.66C239.648 197.225 236.289 194.253 234.379 190.952C233.204 188.924 232.57 186.777 232.57 184.549V172.086C232.57 174.314 233.2 176.465 234.379 178.489C236.289 181.794 239.648 184.766 244.059 187.201C246.4 188.491 249.041 189.632 251.922 190.59C254.257 191.366 256.755 192.025 259.376 192.546C263.609 193.387 268.175 193.875 272.937 193.933C273.291 193.94 273.645 193.943 273.999 193.943C275.324 193.943 276.63 193.911 277.919 193.843C280.667 193.71 283.334 193.432 285.9 193.025C290.113 192.365 294.043 191.353 297.573 190.059C303.316 187.957 308.009 185.112 311.134 181.781C313.885 178.858 315.431 175.562 315.431 172.08Z"
      fill="#2C2C2C" />
    <path
      d="M244.056 187.194V199.654C239.645 197.219 236.286 194.247 234.376 190.945V178.482C236.286 181.787 239.645 184.759 244.056 187.194Z"
      fill="#A7A7A7" />
    <path
      d="M272.937 193.93V206.389C268.175 206.331 263.609 205.843 259.376 205.002V192.542C263.609 193.383 268.175 193.872 272.937 193.93Z"
      fill="#C7C7C7" />
    <path
      d="M311.132 181.781V194.244C308.007 197.574 303.314 200.42 297.571 202.519V190.059C303.314 187.957 308.007 185.112 311.132 181.781Z"
      fill="#C7C7C7" />
    <path
      d="M285.899 193.021V205.478C283.336 205.885 280.666 206.163 277.918 206.296V193.836C280.666 193.704 283.333 193.426 285.899 193.018V193.021Z"
      fill="#C7C7C7" />
    <path opacity="0.24"
      d="M311.513 182.136C308.359 185.499 303.598 188.41 297.751 190.547C294.13 191.873 290.167 192.879 285.98 193.535C283.356 193.952 280.65 194.231 277.945 194.36C277.012 194.408 276.057 194.434 275.099 194.447V205.866C276.038 205.853 276.977 205.827 277.893 205.781C280.562 205.652 283.226 205.38 285.815 204.97C289.936 204.323 293.831 203.334 297.387 202.03C303.081 199.951 307.7 197.138 310.747 193.888C313.504 190.961 314.904 187.818 314.904 184.546V177.108C314.164 178.844 313.03 180.526 311.513 182.14V182.136Z"
      fill="#E5E5E5" />
    <path
      d="M310.783 187.204C310.783 184.588 310.221 184.028 307.594 184.028C310.221 184.028 310.783 183.469 310.783 180.853C310.783 183.469 311.345 184.028 313.973 184.028C311.345 184.028 310.783 184.588 310.783 187.204Z"
      fill="#E5E5E5" />
    <path
      d="M307.593 190.049C307.593 188.461 307.252 188.119 305.654 188.119C307.249 188.119 307.593 187.779 307.593 186.188C307.593 187.776 307.934 188.119 309.532 188.119C307.937 188.119 307.593 188.458 307.593 190.049Z"
      fill="#E5E5E5" />
    <path
      d="M311.687 191.078C311.687 189.907 311.433 189.655 310.257 189.655C311.433 189.655 311.687 189.403 311.687 188.232C311.687 189.403 311.94 189.655 313.116 189.655C311.94 189.655 311.687 189.907 311.687 191.078Z"
      fill="#E5E5E5" />
    <path
      d="M235.103 184.963C235.103 183.1 234.703 182.702 232.833 182.702C234.703 182.702 235.103 182.305 235.103 180.442C235.103 182.305 235.502 182.702 237.373 182.702C235.502 182.702 235.103 183.1 235.103 184.963Z"
      fill="#E5E5E5" />
  </g>
  <g filter="url(#filter5_d_1_1063)">
    <path
      d="M274.671 141.126C279.202 141.126 283.509 141.621 287.419 142.514L257.287 172.358C248.407 169.341 242.515 164.08 242.515 158.091C242.515 148.723 256.91 141.126 274.671 141.126Z"
      fill="#F2F2F2" />
    <path
      d="M275.782 136.382C298.002 136.693 315.834 146.294 315.834 158.09C315.834 169.887 297.404 179.805 274.671 179.805C255.563 179.805 239.495 172.937 234.86 163.62C237.549 169.014 244.075 173.59 252.802 176.484L255.518 173.781C261.036 175.659 267.613 176.752 274.671 176.752C294.208 176.752 310.043 168.396 310.043 158.094C310.043 150.378 301.169 143.758 288.511 140.916L291.227 138.213C286.478 137.11 281.265 136.463 275.779 136.386L275.782 136.382Z"
      fill="#A7A7A7" />
    <path
      d="M274.671 136.373C274.761 136.373 274.852 136.373 274.943 136.373C275.336 136.373 275.418 136.373 275.496 136.376C275.603 136.376 275.687 136.376 275.772 136.379C281.267 136.457 286.484 137.103 291.229 138.206L288.514 140.909C284.262 139.956 279.585 139.425 274.671 139.425C255.134 139.425 239.303 147.781 239.303 158.087C239.303 164.668 245.76 170.453 255.517 173.777L252.801 176.481C242.037 172.911 234.619 166.786 233.622 159.714C233.612 159.643 233.605 159.594 233.599 159.546C233.583 159.403 233.57 159.29 233.56 159.177C233.553 159.099 233.55 159.057 233.547 159.012C233.54 158.921 233.537 158.879 233.534 158.834C233.527 158.744 233.524 158.685 233.521 158.63C233.521 158.559 233.514 158.514 233.514 158.465C233.514 158.375 233.511 158.333 233.511 158.294C233.511 158.191 233.511 158.136 233.511 158.081C233.508 146.096 251.937 136.373 274.671 136.373Z"
      fill="#383838" />
    <path
      d="M255.517 173.781C256.033 173.958 256.559 174.127 257.095 174.288C257.453 174.395 257.813 174.502 258.177 174.602C259.272 174.906 260.399 175.181 261.558 175.427C262.331 175.588 263.117 175.737 263.913 175.873C264.91 176.041 265.927 176.186 266.96 176.306C267.788 176.403 268.626 176.484 269.474 176.552C271.169 176.684 272.904 176.752 274.667 176.752C276.431 176.752 278.299 176.678 280.053 176.539C280.637 176.49 281.219 176.435 281.794 176.374C282.083 176.342 282.368 176.309 282.654 176.274C294.351 174.851 303.825 170.366 307.892 164.506C309.282 162.504 310.039 160.344 310.039 158.09C310.039 157.366 309.961 156.655 309.808 155.953C309.707 155.484 309.574 155.022 309.409 154.566C309.285 154.223 309.142 153.883 308.983 153.547C308.398 152.315 307.583 151.135 306.563 150.013C306.284 149.709 305.992 149.405 305.683 149.11C305.374 148.813 305.053 148.522 304.715 148.237C304.264 147.856 303.789 147.484 303.289 147.122C303.039 146.941 302.782 146.763 302.523 146.585C301.214 145.705 299.759 144.887 298.177 144.143C295.328 142.805 292.067 141.708 288.511 140.91C284.259 139.956 279.582 139.425 274.667 139.425C255.13 139.425 239.299 147.781 239.299 158.087C239.299 164.668 245.756 170.453 255.514 173.777L255.517 173.781ZM274.671 140.234C293.366 140.234 308.519 148.228 308.519 158.09C308.519 167.953 293.366 175.947 274.671 175.947C255.975 175.947 240.823 167.953 240.823 158.09C240.823 148.228 255.978 140.234 274.671 140.234Z"
      fill="#2C2C2C" />
    <path
      d="M274.67 140.234C293.366 140.234 308.518 148.228 308.518 158.091C308.518 167.954 293.366 175.947 274.67 175.947C255.975 175.947 240.823 167.954 240.823 158.091C240.823 148.228 255.978 140.234 274.67 140.234ZM257.287 172.358L287.419 142.514C283.508 141.621 279.201 141.126 274.67 141.126C256.91 141.126 242.515 148.722 242.515 158.091C242.515 164.079 248.403 169.341 257.287 172.358Z"
      fill="#D1D1D1" />
    <path
      d="M274.671 136.23C297.553 136.23 316.103 146.019 316.103 158.091C316.103 170.162 297.553 179.951 274.671 179.951C251.788 179.951 233.239 170.165 233.239 158.091C233.239 146.016 251.788 136.23 274.671 136.23ZM274.671 179.805C297.404 179.805 315.833 170.084 315.833 158.091C315.833 146.097 298.002 136.693 275.782 136.382C274.853 136.376 274.762 136.376 274.671 136.376C251.938 136.376 233.508 146.097 233.508 158.094C233.508 158.149 233.508 158.204 233.508 158.259C233.521 158.698 233.524 158.753 233.528 158.808C233.567 159.3 233.58 159.413 233.593 159.523C233.602 159.604 233.609 159.652 233.615 159.701C235.197 170.954 252.971 179.808 274.668 179.808L274.671 179.805Z"
      fill="#0A0A0A" />
    <path
      d="M316.103 158.091V170.554C316.103 174.04 314.557 177.335 311.806 180.255C308.682 183.586 303.988 186.431 298.246 188.53C294.715 189.824 290.785 190.832 286.572 191.495C284.009 191.903 281.339 192.181 278.592 192.313C277.299 192.378 275.993 192.414 274.671 192.414C274.317 192.414 273.963 192.41 273.609 192.404C268.847 192.346 264.281 191.858 260.048 191.017C257.424 190.496 254.93 189.833 252.594 189.06C249.713 188.103 247.073 186.958 244.731 185.671C240.32 183.236 236.961 180.265 235.051 176.963C233.876 174.935 233.242 172.788 233.242 170.56V158.097C233.242 160.325 233.872 162.476 235.051 164.5C236.961 167.805 240.32 170.777 244.731 173.212C247.073 174.502 249.713 175.644 252.594 176.601C254.93 177.377 257.427 178.037 260.048 178.557C264.281 179.398 268.847 179.886 273.609 179.944C273.963 179.951 274.317 179.954 274.671 179.954C275.996 179.954 277.302 179.922 278.592 179.854C281.339 179.721 284.006 179.443 286.572 179.036C290.785 178.376 294.715 177.364 298.246 176.07C303.988 173.968 308.682 171.123 311.806 167.792C314.557 164.869 316.103 161.574 316.103 158.091Z"
      fill="#2C2C2C" />
    <path
      d="M244.73 173.202V185.662C240.32 183.227 236.961 180.255 235.051 176.953V164.49C236.961 167.795 240.32 170.767 244.73 173.202Z"
      fill="#A7A7A7" />
    <path
      d="M273.609 179.938V192.397C268.847 192.339 264.281 191.851 260.048 191.01V178.55C264.281 179.391 268.847 179.879 273.609 179.938Z"
      fill="#C7C7C7" />
    <path
      d="M311.807 167.789V180.251C308.682 183.582 303.989 186.428 298.246 188.527V176.067C303.989 173.965 308.682 171.119 311.807 167.789Z"
      fill="#C7C7C7" />
    <path
      d="M286.576 179.033V191.489C284.013 191.896 281.343 192.174 278.595 192.307V179.847C281.343 179.715 284.01 179.437 286.576 179.029V179.033Z"
      fill="#C7C7C7" />
    <path opacity="0.24"
      d="M312.19 168.144C309.036 171.507 304.274 174.418 298.428 176.555C294.806 177.881 290.844 178.887 286.657 179.543C284.033 179.96 281.327 180.238 278.621 180.368C277.689 180.416 276.734 180.442 275.776 180.455V191.873C276.715 191.86 277.653 191.835 278.569 191.789C281.239 191.66 283.903 191.388 286.491 190.978C290.613 190.331 294.508 189.341 298.064 188.038C303.758 185.959 308.377 183.146 311.423 179.896C314.181 176.969 315.581 173.826 315.581 170.553V163.116C314.84 164.852 313.707 166.534 312.19 168.147V168.144Z"
      fill="#E5E5E5" />
    <path
      d="M311.458 173.211C311.458 170.595 310.896 170.036 308.268 170.036C310.896 170.036 311.458 169.476 311.458 166.86C311.458 169.476 312.02 170.036 314.648 170.036C312.02 170.036 311.458 170.595 311.458 173.211Z"
      fill="#E5E5E5" />
    <path
      d="M308.268 176.06C308.268 174.473 307.927 174.13 306.329 174.13C307.924 174.13 308.268 173.79 308.268 172.199C308.268 173.787 308.609 174.13 310.207 174.13C308.613 174.13 308.268 174.469 308.268 176.06Z"
      fill="#E5E5E5" />
    <path
      d="M312.362 177.085C312.362 175.915 312.108 175.663 310.933 175.663C312.108 175.663 312.362 175.41 312.362 174.24C312.362 175.41 312.615 175.663 313.791 175.663C312.615 175.663 312.362 175.915 312.362 177.085Z"
      fill="#E5E5E5" />
    <path
      d="M235.778 170.974C235.778 169.111 235.379 168.714 233.508 168.714C235.379 168.714 235.778 168.316 235.778 166.453C235.778 168.316 236.178 168.714 238.049 168.714C236.178 168.714 235.778 169.111 235.778 170.974Z"
      fill="#E5E5E5" />
  </g>
  <g filter="url(#filter6_d_1_1063)">
    <path
      d="M304.161 226.458C314.463 228.221 317.156 232.699 309.601 238.1C299.509 245.314 274.954 251.452 254.751 251.801C247.453 251.927 241.72 251.284 237.852 250.064C231.015 247.914 230.001 243.979 236.445 239.37C246.537 232.153 271.099 226.018 291.298 225.666C296.378 225.579 300.698 225.863 304.161 226.455V226.458ZM255.537 251.238C274.866 250.902 298.369 245.033 308.026 238.125C317.686 231.218 309.838 225.892 290.509 226.229C271.177 226.565 247.677 232.434 238.017 239.341C228.361 246.245 236.202 251.571 255.537 251.235V251.238Z"
      fill="#0A0A0A" />
    <path
      d="M287.207 228.596C291.205 228.528 294.596 228.757 297.302 229.23L245.752 247.532C240.432 245.864 239.633 242.811 244.638 239.231C252.469 233.631 271.529 228.871 287.207 228.599V228.596Z"
      fill="#F2F2F2" />
    <path
      d="M287.953 228.062C304.456 227.774 311.15 232.321 302.907 238.216C294.663 244.111 274.6 249.124 258.096 249.408C241.593 249.696 234.899 245.149 243.142 239.254C251.389 233.359 271.449 228.347 287.953 228.059V228.062ZM245.751 247.533L297.3 229.23C294.592 228.758 291.204 228.528 287.206 228.596C271.527 228.867 252.471 233.631 244.637 239.228C239.631 242.808 240.43 245.861 245.751 247.529V247.533Z"
      fill="#D1D1D1" />
    <path
      d="M291.909 225.747C311.443 225.543 319.265 231.024 309.361 238.106C299.335 245.275 274.938 251.368 254.869 251.717C239.713 251.979 231.359 248.891 232.499 244.273C231.898 246.727 233.98 248.748 238.339 250.065L242.997 248.406C246.3 249.444 251.192 249.997 257.425 249.887C274.672 249.586 295.635 244.351 304.249 238.19C310.699 233.579 308.4 229.757 299.604 228.253L304.262 226.594C300.936 225.999 296.791 225.692 291.909 225.74V225.747Z"
      fill="#A7A7A7" />
    <path
      d="M299.603 228.256C308.399 229.76 310.695 233.582 304.248 238.193C295.634 244.354 274.671 249.589 257.424 249.89C251.191 249.997 246.3 249.447 242.996 248.409C237.16 246.572 236.292 243.212 241.795 239.28C250.412 233.12 271.375 227.881 288.622 227.583C292.958 227.509 296.648 227.752 299.603 228.259V228.256ZM258.096 249.411C274.6 249.123 294.66 244.114 302.907 238.219C311.153 232.324 304.456 227.778 287.953 228.065C271.449 228.353 251.389 233.362 243.142 239.261C234.899 245.156 241.593 249.702 258.096 249.414V249.411Z"
      fill="#2C2C2C" />
    <path
      d="M291.179 225.757C291.26 225.757 291.338 225.757 291.42 225.753C291.536 225.753 291.598 225.753 291.663 225.75C291.761 225.75 291.835 225.75 291.907 225.75C296.795 225.699 300.94 226.006 304.266 226.604L299.608 228.263C296.652 227.758 292.966 227.513 288.626 227.587C271.379 227.888 250.413 233.123 241.799 239.283C236.297 243.219 237.164 246.576 243.001 248.412L238.343 250.071C231.987 248.154 230.47 244.732 235.059 240.661C235.108 240.619 235.144 240.587 235.18 240.554C235.264 240.483 235.342 240.415 235.423 240.347C235.478 240.302 235.511 240.276 235.543 240.25C235.612 240.195 235.65 240.163 235.689 240.131C235.732 240.095 235.774 240.063 235.816 240.03C235.878 239.982 235.91 239.956 235.943 239.933C236.014 239.878 236.047 239.853 236.079 239.827C236.151 239.772 236.196 239.739 236.238 239.704C236.297 239.662 236.333 239.633 236.368 239.607C236.443 239.552 236.475 239.529 236.508 239.503C236.592 239.442 236.638 239.41 236.683 239.377C246.71 232.208 271.106 226.112 291.176 225.763L291.179 225.757Z"
      fill="#383838" />
    <path
      d="M313.239 251.067C312.859 251.387 312.44 251.711 311.985 252.034C309.179 254.042 305.252 255.966 300.611 257.706C297.197 258.983 293.4 260.164 289.369 261.198C286.849 261.852 284.237 262.447 281.58 262.977C279.959 263.3 278.319 263.601 276.672 263.873C272.187 264.62 267.63 265.166 263.19 265.473C261.143 265.612 259.117 265.706 257.132 265.739C253.589 265.8 250.412 265.68 247.638 265.402C244.809 265.114 242.396 264.665 240.444 264.07C239.252 263.708 238.232 263.287 237.384 262.825C235.727 261.916 234.766 260.826 234.555 259.598L232.168 245.667C232.379 246.905 233.347 247.998 235.019 248.907C235.861 249.366 236.874 249.777 238.06 250.136C240.015 250.731 242.431 251.183 245.27 251.468C248.038 251.746 251.204 251.869 254.745 251.804C256.733 251.772 258.766 251.678 260.822 251.536C265.262 251.229 269.819 250.679 274.305 249.938C275.951 249.667 277.592 249.366 279.212 249.043C281.869 248.512 284.481 247.917 287.001 247.264C291.029 246.226 294.829 245.046 298.243 243.765C302.878 242.032 306.798 240.111 309.601 238.106C310.062 237.776 310.481 237.45 310.871 237.126C313.187 235.186 314.148 233.391 313.879 231.82L316.263 245.751C316.533 247.326 315.568 249.13 313.242 251.074L313.239 251.067Z"
      fill="#2C2C2C" />
    <path
      d="M247.641 265.399C244.812 265.111 242.399 264.662 240.447 264.067C239.255 263.704 238.235 263.284 237.387 262.822L235.022 248.9C235.864 249.36 236.877 249.77 238.063 250.129C240.018 250.724 242.434 251.177 245.273 251.462L247.638 265.396L247.641 265.399Z"
      fill="#A7A7A7" />
    <path
      d="M276.675 263.87C272.19 264.617 267.633 265.163 263.193 265.47L260.825 251.533C265.265 251.226 269.822 250.676 274.307 249.936L276.675 263.87Z"
      fill="#C7C7C7" />
    <path
      d="M313.239 251.067C312.859 251.387 312.44 251.711 311.985 252.034C309.179 254.042 305.252 255.966 300.611 257.706L298.243 243.765C302.878 242.032 306.798 240.111 309.601 238.106C310.062 237.776 310.481 237.45 310.871 237.126L313.239 251.07V251.067Z"
      fill="#C7C7C7" />
    <path
      d="M289.368 261.195C286.848 261.849 284.236 262.444 281.579 262.974L279.211 249.04C281.868 248.509 284.48 247.914 287 247.261L289.368 261.195Z"
      fill="#C7C7C7" />
    <path opacity="0.24"
      d="M315.744 245.831L313.815 234.559C313.282 235.522 312.412 236.509 311.207 237.517C310.797 237.86 310.362 238.197 309.907 238.523C307.127 240.512 303.265 242.439 298.429 244.247C295.028 245.524 291.228 246.708 287.135 247.765C284.628 248.415 282 249.017 279.317 249.55C278.349 249.744 277.388 249.922 276.433 250.093L278.807 262.97C279.694 262.809 280.584 262.64 281.48 262.463C284.14 261.932 286.752 261.337 289.24 260.69C293.274 259.652 297.039 258.485 300.426 257.214C305.181 255.432 308.969 253.547 311.681 251.607C312.129 251.287 312.538 250.973 312.902 250.666C315.003 248.913 315.984 247.241 315.744 245.831Z"
      fill="#E5E5E5" />
    <path
      d="M310.663 244.457C310.355 241.86 309.728 241.369 307.12 241.679C309.728 241.372 310.222 240.748 309.91 238.151C310.218 240.748 310.845 241.24 313.453 240.929C310.845 241.236 310.352 241.86 310.663 244.457Z"
      fill="#E5E5E5" />
    <path
      d="M307.831 247.659C307.643 246.081 307.263 245.783 305.678 245.971C307.263 245.783 307.562 245.405 307.373 243.827C307.562 245.405 307.942 245.702 309.527 245.515C307.942 245.702 307.643 246.081 307.831 247.659Z"
      fill="#E5E5E5" />
    <path
      d="M312.017 248.195C311.877 247.031 311.598 246.811 310.428 246.95C311.598 246.811 311.819 246.533 311.679 245.369C311.819 246.533 312.098 246.753 313.267 246.614C312.098 246.753 311.877 247.031 312.017 248.195Z"
      fill="#E5E5E5" />
    <path
      d="M238.47 254.809C238.759 252.969 238.428 252.516 236.58 252.225C238.428 252.513 238.886 252.183 239.175 250.343C238.886 252.183 239.217 252.639 241.065 252.927C239.217 252.639 238.759 252.969 238.47 254.809Z"
      fill="#E5E5E5" />
  </g>
  <g clip-path="url(#clip1_1_1063)">
    <path
      d="M205.972 292.45L202.142 291.644C201.327 291.497 200.452 291.601 199.629 292.034L108.445 339.666C105.967 340.958 104.416 343.522 104.416 346.313V373.643C104.416 375.549 105.733 377.013 107.362 377.447L107.527 377.49C107.596 377.507 107.665 377.525 107.735 377.533L111.781 378.348L114.086 375.09L203.268 328.488C204.568 327.812 205.374 326.469 205.374 325.005V295.517C205.374 295.223 205.33 294.937 205.27 294.659L205.963 292.459L205.972 292.45Z"
      fill="black" stroke="black" stroke-width="0.866518" stroke-miterlimit="10" />
    <path
      d="M112.778 340.533L203.961 292.9C206.578 291.531 209.706 293.429 209.706 296.384V325.871C209.706 327.336 208.892 328.679 207.601 329.355L114.493 377.984C111.876 379.353 108.748 377.455 108.748 374.5V347.17C108.748 344.38 110.299 341.815 112.778 340.524V340.533Z"
      fill="#EEEEEE" stroke="black" stroke-width="0.866518" stroke-miterlimit="10" />
    <path
      d="M144.067 345.949L144.049 340.793L145.106 340.238C145.99 339.779 146.198 340.039 146.198 340.715V343.782C146.207 344.458 145.999 344.944 145.124 345.403L144.067 345.957M145.314 338.419L142.282 340.004L142.308 348.583L145.34 346.997C147.273 345.983 147.983 344.536 147.975 343.393V339.268C147.957 338.107 147.247 337.414 145.314 338.419Z"
      fill="black" />
    <path
      d="M151.224 340.628L152.116 336.564L153.017 339.692L151.224 340.637M153.286 334.25L150.938 335.481L148.572 345.316L150.401 344.354L150.816 342.465L153.433 341.096L153.858 342.543L155.695 341.581L153.269 334.25"
      fill="black" />
    <path
      d="M161.327 330.039L155.366 333.159V334.874L157.463 333.774L157.489 340.645L159.248 339.718L159.231 332.855L161.327 331.755V330.039Z"
      fill="black" />
    <path
      d="M163.677 334.112L164.569 330.048L165.47 333.176L163.677 334.112ZM165.739 327.726L163.391 328.956L161.025 338.791L162.853 337.829L163.269 335.94L165.886 334.571L166.311 336.018L168.148 335.056L165.722 327.726"
      fill="black" />
    <path
      d="M171.354 330.117L171.432 328.22L173.104 327.344L173.026 329.242L171.354 330.117ZM174.456 323.428L173.243 324.06L173.156 326.079L171.484 326.954L171.57 324.935L170.357 325.568L170.271 327.587L168.841 328.332L168.789 329.597L170.219 328.852L170.141 330.75L168.746 331.478L168.694 332.751L170.106 332.015L170.019 334.086L171.224 333.453L171.319 331.382L172.992 330.507L172.896 332.578L174.109 331.946L174.196 329.875L175.556 329.164L175.608 327.89L174.231 328.61L174.309 326.712L175.652 326.01L175.704 324.745L174.361 325.447L174.447 323.428"
      fill="black" />
    <path
      d="M180.208 320.421L178.683 321.218L176.465 323.783L177.202 324.935L178.527 323.454L178.545 329.623L180.234 328.739L180.208 320.421Z"
      fill="black" />
    <path
      d="M124.154 342.595C119.007 344.207 114.744 350.264 114.64 356.122C114.536 361.979 118.626 365.428 123.773 363.816C128.92 362.204 133.192 356.148 133.296 350.29C133.4 344.432 129.31 340.983 124.154 342.595Z"
      fill="black" />
  </g>
  <path d="M142.681 142.477L250.962 199.363L251.241 353.427" stroke="#333333" stroke-width="0.866518"
    stroke-miterlimit="10" />
  <path d="M360.206 142.477L250.962 199.363" stroke="#333333" stroke-width="0.866518" stroke-miterlimit="10" />
  <path
    d="M461.509 239.661L370.207 192.246C367.631 190.916 364.751 191.46 362.803 193.113L356.799 197.084L360.491 206.277V239.661C360.491 244.075 362.966 248.127 366.901 250.184L450.454 293.546C451.245 293.969 452.077 294.252 452.888 294.473L454.328 298.062L461.834 293.344C462.158 293.163 462.463 292.961 462.767 292.76L462.848 292.719C465.85 290.623 467.939 287.176 467.939 283.023V250.184C467.939 245.769 465.465 241.717 461.529 239.661H461.509Z"
    fill="black" />
  <path
    d="M354.406 202.124V243.692C354.406 248.107 356.881 252.159 360.816 254.215L444.369 297.578C452.321 301.71 461.834 295.965 461.834 287.055V254.215C461.834 249.801 459.36 245.749 455.424 243.692L364.122 196.278C359.7 194 354.406 197.185 354.406 202.124Z"
    fill="#EEEEEE" stroke="black" stroke-width="0.866518" stroke-miterlimit="10" />
  <path
    d="M375.482 237.483V229.601L377.166 230.428C378.545 231.113 378.869 231.839 378.869 232.887V237.584C378.869 238.612 378.525 239.016 377.145 238.33L375.502 237.504M377.51 228.009L372.764 225.63L372.723 238.753L377.47 241.132C380.492 242.644 381.608 241.556 381.608 239.802V233.492C381.628 231.718 380.513 229.521 377.51 228.009Z"
    fill="black" />
  <path
    d="M386.679 240.689L388.119 235.911L389.498 242.1L386.699 240.689M389.965 234.238L386.293 232.383L382.54 243.632L385.401 245.063L386.07 242.846L390.167 244.902L390.817 247.785L393.677 249.216L389.965 234.218"
    fill="black" />
  <path
    d="M402.502 240.548L393.191 235.871L393.171 238.491L396.457 240.144L396.437 250.647L399.175 252.018L399.216 241.515L402.502 243.168V240.548Z"
    fill="black" />
  <path
    d="M406.111 250.466L407.551 245.688L408.93 251.877L406.131 250.466M409.397 244.015L405.725 242.181L401.953 253.429L404.813 254.861L405.482 252.643L409.58 254.699L410.229 257.582L413.089 259.014L409.377 244.015"
    fill="black" />
  <path
    d="M418.12 256.554L418.262 253.772L420.859 255.082L420.737 257.864L418.141 256.554M423.029 251.252L421.143 250.305L420.981 253.248L418.384 251.938L418.526 248.994L416.64 248.047L416.498 250.99L414.246 249.861L414.145 251.716L416.396 252.845L416.254 255.627L414.063 254.518L413.962 256.373L416.173 257.481L416.031 260.505L417.918 261.453L418.08 258.429L420.676 259.739L420.514 262.763L422.401 263.711L422.563 260.687L424.693 261.755L424.774 259.9L422.624 258.812L422.766 256.05L424.855 257.098L424.936 255.244L422.847 254.195L423.009 251.252"
    fill="black" />
  <path
    d="M430.027 254.578C428.952 254.034 427.654 253.571 426.518 253.329L426.863 255.889C427.654 256.07 429.013 256.594 429.885 257.038C430.92 257.562 431.325 258.006 431.325 258.691V259.054C431.325 260.404 431.123 260.425 429.317 261.715C428.202 262.501 427.978 262.622 426.66 263.408V265.827L434.064 269.557V267.077L430.311 265.182C430.859 264.839 431.407 264.436 432.279 263.731C433.942 262.4 433.962 262.037 433.962 260.183V259.659C433.962 257.522 432.847 256.01 430.027 254.578Z"
    fill="black" />
  <g clip-path="url(#clip2_1_1063)">
    <path
      d="M39.3475 3.65227L1.10597 79.6687C-0.415888 83.0478 2.0555 86.8817 5.76259 86.8817H82.6099C86.33 86.8817 88.8014 83.0348 87.2665 79.6557L48.6608 3.63927C46.8398 -0.35065 41.1555 -0.337653 39.3475 3.65227Z"
      fill="white" stroke="black" stroke-width="0.866518" stroke-miterlimit="10" />
    <path
      d="M12.5455 76.225L12.546 76.224L42.7994 16.0925C42.7997 16.092 42.8 16.0915 42.8002 16.0909C43.3159 15.0796 44.7513 15.0823 45.2596 16.0901L45.2607 16.0922L75.8009 76.225C76.2639 77.1423 75.6048 78.2172 74.5713 78.2172H13.7751C12.7505 78.2172 12.0843 77.1386 12.5455 76.225Z"
      fill="#D2D2D2" stroke="#2E365E" stroke-width="1.73304" />
    <path
      d="M42.3008 57.7695L41.0261 50.3615V38.4048H47.1525V50.3615L45.8778 57.7695H42.3008ZM41.0261 67.5949V60.5378H47.1525V67.5949H41.0261Z"
      fill="black" />
  </g>
  <path
    d="M275.795 45.0446L382.918 100.754C400.545 109.918 411.596 128.068 411.596 147.88V278.684C411.596 298.37 400.671 316.419 383.222 325.633L276.528 381.997C260.976 390.204 242.363 390.28 226.76 382.148L119.662 326.464C102.036 317.3 90.9844 299.15 90.9844 279.338V148.509C90.9844 128.823 101.909 110.774 119.358 101.56L226.027 45.1957C241.579 36.989 260.192 36.9135 275.795 45.0446Z"
    fill="white" fill-opacity="0.2" stroke="#231F20" stroke-width="1.73304" stroke-miterlimit="10" />
  <defs>
    <filter id="filter0_d_1_1063" x="142.109" y="195.877" width="89.7965" height="63.1152" filterUnits="userSpaceOnUse"
      color-interpolation-filters="sRGB">
      <feFlood flood-opacity="0" result="BackgroundImageFix" />
      <feColorMatrix in="SourceAlpha" type="matrix" values="0 0 0 0 0 0 0 0 0 0 0 0 0 0 0 0 0 0 127 0"
        result="hardAlpha" />
      <feOffset dy="3.46607" />
      <feGaussianBlur stdDeviation="1.73304" />
      <feComposite in2="hardAlpha" operator="out" />
      <feColorMatrix type="matrix" values="0 0 0 0 0 0 0 0 0 0 0 0 0 0 0 0 0 0 0.25 0" />
      <feBlend mode="normal" in2="BackgroundImageFix" result="effect1_dropShadow_1_1063" />
      <feBlend mode="normal" in="SourceGraphic" in2="effect1_dropShadow_1_1063" result="shape" />
    </filter>
    <filter id="filter1_d_1_1063" x="253.345" y="235.555" width="89.7968" height="63.1118" filterUnits="userSpaceOnUse"
      color-interpolation-filters="sRGB">
      <feFlood flood-opacity="0" result="BackgroundImageFix" />
      <feColorMatrix in="SourceAlpha" type="matrix" values="0 0 0 0 0 0 0 0 0 0 0 0 0 0 0 0 0 0 127 0"
        result="hardAlpha" />
      <feOffset dy="3.46607" />
      <feGaussianBlur stdDeviation="1.73304" />
      <feComposite in2="hardAlpha" operator="out" />
      <feColorMatrix type="matrix" values="0 0 0 0 0 0 0 0 0 0 0 0 0 0 0 0 0 0 0.25 0" />
      <feBlend mode="normal" in2="BackgroundImageFix" result="effect1_dropShadow_1_1063" />
      <feBlend mode="normal" in="SourceGraphic" in2="effect1_dropShadow_1_1063" result="shape" />
    </filter>
    <filter id="filter2_d_1_1063" x="229.101" y="176.054" width="89.7965" height="63.1118" filterUnits="userSpaceOnUse"
      color-interpolation-filters="sRGB">
      <feFlood flood-opacity="0" result="BackgroundImageFix" />
      <feColorMatrix in="SourceAlpha" type="matrix" values="0 0 0 0 0 0 0 0 0 0 0 0 0 0 0 0 0 0 127 0"
        result="hardAlpha" />
      <feOffset dy="3.46607" />
      <feGaussianBlur stdDeviation="1.73304" />
      <feComposite in2="hardAlpha" operator="out" />
      <feColorMatrix type="matrix" values="0 0 0 0 0 0 0 0 0 0 0 0 0 0 0 0 0 0 0.25 0" />
      <feBlend mode="normal" in2="BackgroundImageFix" result="effect1_dropShadow_1_1063" />
      <feBlend mode="normal" in="SourceGraphic" in2="effect1_dropShadow_1_1063" result="shape" />
    </filter>
    <filter id="filter3_d_1_1063" x="230.878" y="162.986" width="89.7966" height="63.1148" filterUnits="userSpaceOnUse"
      color-interpolation-filters="sRGB">
      <feFlood flood-opacity="0" result="BackgroundImageFix" />
      <feColorMatrix in="SourceAlpha" type="matrix" values="0 0 0 0 0 0 0 0 0 0 0 0 0 0 0 0 0 0 127 0"
        result="hardAlpha" />
      <feOffset dy="3.46607" />
      <feGaussianBlur stdDeviation="1.73304" />
      <feComposite in2="hardAlpha" operator="out" />
      <feColorMatrix type="matrix" values="0 0 0 0 0 0 0 0 0 0 0 0 0 0 0 0 0 0 0.25 0" />
      <feBlend mode="normal" in2="BackgroundImageFix" result="effect1_dropShadow_1_1063" />
      <feBlend mode="normal" in="SourceGraphic" in2="effect1_dropShadow_1_1063" result="shape" />
    </filter>
    <filter id="filter4_d_1_1063" x="229.101" y="150.223" width="89.7965" height="63.1118" filterUnits="userSpaceOnUse"
      color-interpolation-filters="sRGB">
      <feFlood flood-opacity="0" result="BackgroundImageFix" />
      <feColorMatrix in="SourceAlpha" type="matrix" values="0 0 0 0 0 0 0 0 0 0 0 0 0 0 0 0 0 0 127 0"
        result="hardAlpha" />
      <feOffset dy="3.46607" />
      <feGaussianBlur stdDeviation="1.73304" />
      <feComposite in2="hardAlpha" operator="out" />
      <feColorMatrix type="matrix" values="0 0 0 0 0 0 0 0 0 0 0 0 0 0 0 0 0 0 0.25 0" />
      <feBlend mode="normal" in2="BackgroundImageFix" result="effect1_dropShadow_1_1063" />
      <feBlend mode="normal" in="SourceGraphic" in2="effect1_dropShadow_1_1063" result="shape" />
    </filter>
    <filter id="filter5_d_1_1063" x="229.773" y="136.23" width="89.7969" height="63.1152" filterUnits="userSpaceOnUse"
      color-interpolation-filters="sRGB">
      <feFlood flood-opacity="0" result="BackgroundImageFix" />
      <feColorMatrix in="SourceAlpha" type="matrix" values="0 0 0 0 0 0 0 0 0 0 0 0 0 0 0 0 0 0 127 0"
        result="hardAlpha" />
      <feOffset dy="3.46607" />
      <feGaussianBlur stdDeviation="1.73304" />
      <feComposite in2="hardAlpha" operator="out" />
      <feColorMatrix type="matrix" values="0 0 0 0 0 0 0 0 0 0 0 0 0 0 0 0 0 0 0.25 0" />
      <feBlend mode="normal" in2="BackgroundImageFix" result="effect1_dropShadow_1_1063" />
      <feBlend mode="normal" in="SourceGraphic" in2="effect1_dropShadow_1_1063" result="shape" />
    </filter>
    <filter id="filter6_d_1_1063" x="228.661" y="225.65" width="91.1122" height="47.0361" filterUnits="userSpaceOnUse"
      color-interpolation-filters="sRGB">
      <feFlood flood-opacity="0" result="BackgroundImageFix" />
      <feColorMatrix in="SourceAlpha" type="matrix" values="0 0 0 0 0 0 0 0 0 0 0 0 0 0 0 0 0 0 127 0"
        result="hardAlpha" />
      <feOffset dy="3.46607" />
      <feGaussianBlur stdDeviation="1.73304" />
      <feComposite in2="hardAlpha" operator="out" />
      <feColorMatrix type="matrix" values="0 0 0 0 0 0 0 0 0 0 0 0 0 0 0 0 0 0 0.25 0" />
      <feBlend mode="normal" in2="BackgroundImageFix" result="effect1_dropShadow_1_1063" />
      <feBlend mode="normal" in="SourceGraphic" in2="effect1_dropShadow_1_1063" result="shape" />
    </filter>
    <clipPath id="clip0_1_1063">
      <rect width="106.166" height="87.7263" fill="white" transform="translate(266.021 25.1289)" />
    </clipPath>
    <clipPath id="clip1_1_1063">
      <rect width="106.166" height="87.7263" fill="white" transform="translate(103.982 291.15)" />
    </clipPath>
    <clipPath id="clip2_1_1063">
      <rect width="88.3848" height="87.5183" fill="white" />
    </clipPath>
  </defs>
</svg>