<svg width="224" height="65" viewBox="0 0 224 65" fill="none" xmlns="http://www.w3.org/2000/svg">
  <path
    d="M3.92727 7.85449L60.6581 7.85449C62.827 7.85449 64.5853 6.0962 64.5853 3.92723C64.5853 1.75826 62.827 -4.00543e-05 60.6581 -4.00543e-05L3.92727 -4.00543e-05C1.7583 -4.00543e-05 0 1.75826 0 3.92723C0 6.0962 1.7583 7.85449 3.92727 7.85449Z"
    fill="black" />
  <path
    d="M12.6563 36.2197L51.929 36.2197C54.098 36.2197 55.8563 34.4614 55.8563 32.2925C55.8563 30.1235 54.098 28.3652 51.929 28.3652L12.6563 28.3652C10.4874 28.3652 8.72906 30.1235 8.72906 32.2925C8.72906 34.4614 10.4874 36.2197 12.6563 36.2197Z"
    fill="black" />
  <path
    d="M3.92728 22.0332L25.7499 22.0332C27.9189 22.0332 29.6772 20.2749 29.6772 18.1059C29.6772 15.937 27.9189 14.1787 25.7499 14.1787L3.92728 14.1787C1.75831 14.1787 3.8147e-06 15.937 3.8147e-06 18.1059C3.8147e-06 20.2749 1.75831 22.0332 3.92728 22.0332Z"
    fill="black" />
  <path
    d="M25.7418 50.3989L60.6499 50.3989C62.8189 50.3989 64.5772 48.6406 64.5772 46.4717C64.5772 44.3027 62.8189 42.5444 60.6499 42.5444L25.7418 42.5444C23.5728 42.5444 21.8145 44.3027 21.8145 46.4717C21.8145 48.6406 23.5728 50.3989 25.7418 50.3989Z"
    fill="black" />
  <path
    d="M3.92727 64.5854L60.6581 64.5854C62.827 64.5854 64.5853 62.8271 64.5853 60.6582C64.5853 58.4892 62.827 56.7309 60.6581 56.7309L3.92727 56.7309C1.7583 56.7309 0 58.4892 0 60.6582C0 62.8271 1.7583 64.5854 3.92727 64.5854Z"
    fill="black" />
  <path
    d="M144.248 60.6581V3.92727C144.248 1.7583 142.49 0 140.321 0C138.152 0 136.394 1.7583 136.394 3.92727V60.6581C136.394 62.827 138.152 64.5853 140.321 64.5853C142.49 64.5853 144.248 62.827 144.248 60.6581Z"
    fill="black" />
  <path
    d="M115.883 49.7831V14.794C115.883 12.6474 114.143 10.9072 111.996 10.9072H111.915C109.768 10.9072 108.028 12.6474 108.028 14.794V49.7831C108.028 51.9297 109.768 53.6699 111.915 53.6699H111.996C114.143 53.6699 115.883 51.9297 115.883 49.7831Z"
    fill="black" />
  <path
    d="M101.696 17.1018V3.84629C101.696 1.72204 99.9739 0 97.8496 0L97.6877 0C95.5634 0 93.8414 1.72204 93.8414 3.84629V17.1018C93.8414 19.2261 95.5634 20.9481 97.6877 20.9481H97.8496C99.9739 20.9481 101.696 19.2261 101.696 17.1018Z"
    fill="black" />
  <path
    d="M130.069 60.6986V25.7095C130.069 23.5629 128.329 21.8228 126.183 21.8228H126.102C123.955 21.8228 122.215 23.5629 122.215 25.7095V60.6986C122.215 62.8452 123.955 64.5854 126.102 64.5854H126.183C128.329 64.5854 130.069 62.8452 130.069 60.6986Z"
    fill="black" />
  <path
    d="M87.5173 60.6581V3.92726C87.5173 1.75829 85.759 0 83.59 0C81.421 0 79.6627 1.75829 79.6627 3.92726V60.6581C79.6627 62.827 81.421 64.5853 83.59 64.5853C85.759 64.5853 87.5173 62.827 87.5173 60.6581Z"
    fill="black" />
  <path
    d="M174.249 36.2197L209.157 36.2197C211.326 36.2197 213.085 34.4614 213.085 32.2925C213.085 30.1235 211.326 28.3652 209.157 28.3652L174.249 28.3652C172.08 28.3652 170.322 30.1235 170.322 32.2925C170.322 34.4614 172.08 36.2197 174.249 36.2197Z"
    fill="black" />
  <path
    d="M193.886 50.3989L220.073 50.3989C222.242 50.3989 224 48.6406 224 46.4717C224 44.3027 222.242 42.5444 220.073 42.5444H193.886C191.717 42.5444 189.958 44.3027 189.958 46.4717C189.958 48.6406 191.717 50.3989 193.886 50.3989Z"
    fill="black" />
  <path
    d="M163.334 22.0332L176.427 22.0332C178.596 22.0332 180.355 20.2749 180.355 18.1059C180.355 15.937 178.596 14.1787 176.427 14.1787L163.334 14.1787C161.165 14.1787 159.407 15.937 159.407 18.1059C159.407 20.2749 161.165 22.0332 163.334 22.0332Z"
    fill="black" />
  <path
    d="M163.334 7.85449L220.065 7.85449C222.234 7.85449 223.992 6.0962 223.992 3.92723C223.992 1.75826 222.234 -4.00543e-05 220.065 -4.00543e-05L163.334 -4.00543e-05C161.165 -4.00543e-05 159.407 1.75826 159.407 3.92723C159.407 6.0962 161.165 7.85449 163.334 7.85449Z"
    fill="black" />
  <path
    d="M163.334 64.5854L220.065 64.5854C222.234 64.5854 223.992 62.8271 223.992 60.6582C223.992 58.4892 222.234 56.7309 220.065 56.7309L163.334 56.7309C161.165 56.7309 159.407 58.4892 159.407 60.6582C159.407 62.8271 161.165 64.5854 163.334 64.5854Z"
    fill="black" />
</svg>