<svg width="419" height="346" viewBox="0 0 419 346" fill="none" xmlns="http://www.w3.org/2000/svg">
  <circle cx="381.164" cy="62.3596" r="37.4858" fill="black" stroke="#4E4E4E" stroke-width="0.700669" />
  <circle cx="375.559" cy="62.3596" r="37.1355" fill="#898989" stroke="#4E4E4E" stroke-width="1.40134" />
  <path
    d="M375.558 55.9858L373.8 59.2011L370.585 60.9589L373.8 62.7168L375.558 65.9308L377.316 62.7168L380.53 60.9589L377.316 59.2011L375.558 55.9858Z"
    fill="white" />
  <path
    d="M389.385 60.955C390.835 58.3986 391.323 55.3172 390.704 52.3109L390.712 52.3056C390.712 52.3056 390.705 52.299 390.701 52.2964C390.701 52.2911 390.7 52.2872 390.698 52.2819L390.69 52.2872C388.382 50.228 385.444 49.0976 382.479 49.0699C380.979 46.5148 378.527 44.5348 375.579 43.5639V43.5547C375.579 43.5547 375.57 43.5573 375.566 43.56C375.562 43.5586 375.557 43.5573 375.553 43.5547V43.5639C372.605 44.5348 370.152 46.5161 368.65 49.0725C365.675 49.0989 362.726 50.2373 360.414 52.3083L360.406 52.303C360.406 52.303 360.404 52.3122 360.403 52.3175C360.399 52.3201 360.397 52.3241 360.393 52.3267L360.401 52.332C359.79 55.3356 360.283 58.4091 361.732 60.9603C360.283 63.518 359.794 66.5981 360.414 69.6057L360.406 69.611C360.406 69.611 360.414 69.6176 360.416 69.6202C360.416 69.6255 360.418 69.6295 360.419 69.6347L360.427 69.6295C362.736 71.6886 365.675 72.819 368.639 72.8468C370.138 75.4019 372.591 77.3818 375.538 78.3527V78.3619C375.538 78.3619 375.547 78.3593 375.551 78.3567C375.557 78.358 375.561 78.3593 375.565 78.3619V78.3527C378.514 77.3818 380.966 75.4005 382.467 72.8441C385.443 72.8177 388.391 71.6793 390.704 69.6083L390.712 69.6136C390.712 69.6136 390.713 69.6044 390.714 69.5991C390.718 69.5965 390.722 69.5925 390.725 69.5899L390.717 69.5846C391.327 66.581 390.835 63.5075 389.385 60.9563M389.566 52.948C389.977 55.3475 389.611 57.7272 388.612 59.7678C387.679 58.5068 386.481 57.4211 385.04 56.6006C384.704 56.4094 384.363 56.2366 384.014 56.0822C384.053 55.6997 384.074 55.3119 384.074 54.9188C384.074 53.2923 383.734 51.7424 383.118 50.3283C385.457 50.4905 387.712 51.402 389.565 52.9467M382.823 66.9992C382.823 68.6243 382.435 70.1861 381.734 71.5949C380.142 71.4986 378.59 71.0409 377.207 70.2547C376.984 70.1281 376.767 69.9922 376.555 69.8484C377.52 68.9739 378.317 67.9529 378.932 66.8369C379.044 66.8395 379.156 66.8422 379.267 66.8422C380.455 66.8422 381.645 66.6641 382.799 66.2987C382.815 66.5322 382.823 66.7657 382.823 67.0005M379.267 65.6101C379.167 65.6101 379.067 65.6088 378.967 65.6062L378.212 65.5851L377.85 66.2446C377.254 67.3263 376.475 68.2853 375.557 69.0833C374.635 68.284 373.857 67.3237 373.26 66.2407L372.897 65.5811L372.143 65.6022C372.042 65.6049 371.943 65.6062 371.842 65.6062C370.689 65.6062 369.549 65.4149 368.469 65.0482C368.705 63.8346 369.159 62.6633 369.818 61.5921L370.213 60.9511L369.819 60.3087C369.167 59.2415 368.717 58.0754 368.482 56.8671C369.56 56.5017 370.698 56.3104 371.849 56.3104C371.949 56.3104 372.05 56.3104 372.149 56.3144L372.904 56.3355L373.267 55.676C373.862 54.5943 374.641 53.6353 375.559 52.8372C376.481 53.6366 377.259 54.5969 377.856 55.6799L378.219 56.3395L378.973 56.3184C379.074 56.3157 379.173 56.3144 379.274 56.3144C380.427 56.3144 381.567 56.5057 382.646 56.8724C382.41 58.086 381.956 59.2573 381.298 60.3284L380.904 60.9708L381.297 61.6132C381.949 62.6804 382.399 63.8465 382.634 65.0548C381.556 65.4215 380.418 65.6115 379.267 65.6115M368.277 67.0018C368.277 66.7657 368.285 66.5296 368.302 66.2934C369.459 66.6601 370.651 66.8395 371.841 66.8395C371.952 66.8395 372.065 66.8382 372.176 66.8343C372.793 67.9529 373.591 68.9752 374.559 69.8511C374.351 69.9909 374.139 70.1241 373.922 70.2481C372.533 71.0422 370.971 71.5052 369.369 71.6002C368.666 70.1914 368.277 68.6269 368.277 67.0005M367.3 64.5707C367.092 64.4704 366.888 64.3636 366.689 64.2501C365.25 63.431 364.065 62.2979 363.182 60.9642C364.061 59.6333 365.24 58.5015 366.674 57.6797C366.883 57.5596 367.096 57.4488 367.312 57.3446C367.59 58.6334 368.086 59.847 368.76 60.9497C368.08 62.0565 367.579 63.2753 367.299 64.572M368.289 54.9214C368.289 53.2963 368.677 51.7345 369.379 50.3257C370.97 50.4206 372.523 50.8797 373.905 51.6659C374.128 51.7925 374.345 51.9284 374.557 52.0722C373.592 52.9467 372.795 53.9677 372.18 55.0837C372.068 55.081 371.956 55.0784 371.845 55.0784C370.657 55.0784 369.467 55.2565 368.313 55.6219C368.297 55.3884 368.289 55.1549 368.289 54.9201M382.835 54.9201C382.835 55.1562 382.827 55.3923 382.81 55.6285C381.653 55.2618 380.461 55.0824 379.273 55.0824C379.161 55.0824 379.049 55.0837 378.938 55.0876C378.321 53.969 377.523 52.9467 376.555 52.0708C376.763 51.931 376.974 51.7978 377.192 51.6738C378.58 50.8784 380.142 50.4167 381.744 50.3217C382.447 51.7305 382.836 53.295 382.836 54.9214M382.352 60.9735C383.032 59.8668 383.533 58.6479 383.813 57.3512C384.021 57.4515 384.225 57.5583 384.425 57.6718C385.864 58.4909 387.049 59.624 387.932 60.9576C387.053 62.2886 385.873 63.4217 384.439 64.2422C384.23 64.3623 384.017 64.4731 383.801 64.5773C383.523 63.2885 383.027 62.0749 382.353 60.9722M375.566 44.8646C377.881 45.7141 379.785 47.235 381.064 49.1411C379.521 49.3126 377.999 49.7901 376.58 50.6027C376.225 50.8058 375.885 51.0248 375.561 51.2596C375.23 51.0221 374.884 50.7992 374.523 50.5934C373.112 49.7901 371.597 49.3165 370.067 49.1451C371.346 47.2363 373.251 45.7141 375.567 44.8646M361.539 52.9665C363.398 51.41 365.66 50.4919 368.01 50.3309C367.395 51.7437 367.055 53.2923 367.055 54.9175C367.055 55.3079 367.076 55.6931 367.115 56.0743C366.757 56.2326 366.405 56.4107 366.06 56.6086C364.625 57.4304 363.432 58.5147 362.503 59.7718C361.503 57.7351 361.135 55.362 361.539 52.9652M361.551 68.9686C361.141 66.5691 361.506 64.1895 362.505 62.1488C363.439 63.4099 364.637 64.4955 366.077 65.316C366.413 65.5072 366.755 65.68 367.102 65.8344C367.063 66.2169 367.042 66.6047 367.042 66.9978C367.042 68.6243 367.382 70.1742 367.998 71.5883C365.659 71.4261 363.404 70.5146 361.551 68.9699M375.551 77.0521C373.236 76.2026 371.332 74.6816 370.054 72.7755C371.596 72.604 373.118 72.1265 374.537 71.3139C374.892 71.1108 375.232 70.8918 375.557 70.657C375.888 70.8945 376.233 71.1174 376.595 71.3232C378.006 72.1265 379.519 72.6001 381.05 72.7716C379.772 74.6803 377.867 76.2026 375.55 77.0521M389.576 68.9501C387.717 70.5067 385.455 71.4248 383.105 71.5857C383.719 70.1729 384.059 68.6243 384.059 66.9992C384.059 66.6087 384.038 66.2235 384 65.8423C384.357 65.684 384.709 65.5059 385.055 65.3081C386.49 64.4863 387.683 63.402 388.612 62.1448C389.611 64.1815 389.979 66.5546 389.576 68.9514"
    fill="white" />
  <line x1="345.797" y1="83.9757" x2="312.866" y2="104.295" stroke="#4E4E4E" stroke-width="1.40134" />
  <path d="M75.6721 90.2822L107.202 102.999" stroke="#4E4E4E" stroke-width="1.40134" />
  <circle cx="43.4415" cy="78.4748" r="37.4858" fill="black" stroke="#4E4E4E" stroke-width="0.700669" />
  <circle cx="37.8361" cy="78.4748" r="37.1355" fill="#E4E4E4" stroke="#4E4E4E" stroke-width="1.40134" />
  <path
    d="M30.6755 74.1354L28.3913 83.4683H25.7147L24.1453 76.3775L22.5617 83.4683H19.8852L17.587 74.1354H19.661L21.2445 80.8057L22.87 74.1354H25.4345L27.032 80.8057L28.6015 74.1354H30.6755ZM37.5327 83.4683H31.6611V74.1354H37.5327V75.9991H33.7631V77.7088H37.2385V79.5725H33.7631V81.6045H37.5327V83.4683ZM45.8312 81.2401C45.8312 82.5574 44.9904 83.4683 43.1266 83.4683H39.1468V74.1354H42.8323C44.7802 74.1354 45.4948 74.9201 45.4948 76.1813V77.1342C45.4948 77.8069 45.2006 78.2833 44.4579 78.6056C45.2286 78.7878 45.8312 79.4604 45.8312 80.3293V81.2401ZM43.3928 77.3024V76.4896C43.3928 76.0832 43.1406 75.831 42.552 75.831H41.2488V77.961H42.552C43.1126 77.961 43.3928 77.6807 43.3928 77.3024ZM43.7292 80.9599V80.3853C43.7292 79.8668 43.4069 79.6006 42.8463 79.6006H41.2488V81.7726H42.552C43.2107 81.7726 43.7292 81.6325 43.7292 80.9599ZM47.4885 78.0731H49.044C49.9408 78.0731 50.1931 77.8209 50.1931 77.2043V76.6297C50.1931 76.0412 49.9408 75.9151 49.058 75.9151C48.4414 75.9151 47.8248 75.9851 47.1241 76.1112L46.9139 74.5277C47.7127 74.3596 48.4134 74.2755 49.2401 74.2755C51.5804 74.2755 52.211 74.9762 52.211 76.3775V77.0361C52.211 77.8629 51.9307 78.4935 51.2721 78.8999C52.0568 79.2502 52.3791 79.7407 52.3791 80.6235V81.3382C52.3791 82.7115 51.7345 83.6084 49.1841 83.6084C48.3293 83.6084 47.6146 83.5383 46.8859 83.3001L47.0961 81.7446C47.7828 81.8707 48.3012 81.9268 49.114 81.9268C50.095 81.9268 50.3612 81.7306 50.3612 81.1841V80.5395C50.3612 80.021 50.0389 79.7968 49.3382 79.7968H47.4885V78.0731Z"
    fill="black" />
  <path d="M108.722 6.02281L120.612 0.463379L131.135 15.6221L118.375 16.6784L108.722 6.02281Z" fill="black"
    stroke="black" stroke-width="0.350334" stroke-linecap="round" stroke-linejoin="round" />
  <path
    d="M307.7 97.6421L122.664 0.796829C120.777 -0.185337 118.521 1.18599 118.521 3.3171V178.198C118.521 180.904 120.019 183.387 122.405 184.629L291.815 273.746L298.972 285.643L309.031 280.492C309.882 280.232 310.677 279.825 311.38 279.287C313.063 277.99 314.209 275.952 314.209 273.542L314.82 122.141V109.465C314.82 104.499 312.064 99.9585 307.682 97.6606L307.7 97.6421Z"
    fill="black" stroke="black" stroke-width="0.350334" stroke-linecap="round" stroke-linejoin="round" />
  <path
    d="M107.427 24.4431V8.85812C107.427 6.727 109.683 5.35568 111.569 6.33784L296.605 103.202C300.988 105.5 303.744 110.04 303.744 115.006V127.682L107.427 24.4431Z"
    fill="#E4E4E4" stroke="black" stroke-width="0.700669" />
  <path
    d="M107.427 24.4429V183.758C107.427 186.463 108.925 188.946 111.31 190.188L292.5 285.514C297.327 288.052 303.115 284.55 303.133 279.083L303.744 127.681L107.427 24.4429Z"
    fill="#FAFAFA" stroke="black" stroke-width="0.700669" stroke-linecap="round" stroke-linejoin="round" />
  <path
    d="M236.547 139.138L162.72 100.799C160.637 99.7228 158.308 100.163 156.733 101.5L151.878 104.711L154.863 112.144V139.138C154.863 142.708 156.864 145.984 160.046 147.647L227.608 182.71C228.248 183.052 228.92 183.28 229.576 183.46L230.741 186.361L236.81 182.547C237.072 182.4 237.318 182.237 237.564 182.074L237.63 182.042C240.057 180.346 241.747 177.559 241.747 174.201V147.647C241.747 144.077 239.746 140.801 236.564 139.138H236.547Z"
    fill="black" />
  <path
    d="M149.943 108.786V142.399C149.943 145.968 151.945 149.245 155.127 150.908L222.688 185.97C229.118 189.312 236.81 184.666 236.81 177.461V150.908C236.81 147.338 234.809 144.061 231.627 142.399L157.8 104.059C154.224 102.217 149.943 104.793 149.943 108.786Z"
    fill="white" stroke="black" stroke-width="0.700669" stroke-miterlimit="10" />
  <path
    d="M213.003 173.757V184.788C213.003 185.251 213.262 185.676 213.672 185.892L222.391 190.438C223.221 190.872 224.214 190.269 224.214 189.335V179.219C224.214 178.756 223.956 178.331 223.545 178.115L214.017 173.144C213.556 172.905 213.003 173.239 213.003 173.757Z"
    fill="black" stroke="black" stroke-width="0.700669" stroke-miterlimit="10" />
  <path
    d="M211.602 174.458V185.489C211.602 185.952 211.861 186.377 212.271 186.593L220.99 191.14C221.82 191.573 222.813 190.971 222.813 190.036V179.92C222.813 179.457 222.555 179.032 222.144 178.816L212.616 173.845C212.155 173.606 211.602 173.94 211.602 174.458Z"
    fill="white" stroke="black" stroke-width="0.700669" stroke-miterlimit="10" />
  <g clip-path="url(#clip0_1_996)">
    <path
      d="M217.677 183.366L216.032 182.61L216.025 184.921L217.67 185.677L217.677 183.366ZM217.689 179.426L216.044 178.67L216.037 180.98L217.681 181.735L217.689 179.426Z"
      fill="black" />
    <path
      d="M220.01 182.805L217.682 181.735L216.037 180.979L213.709 179.912L213.704 181.54L216.032 182.61L217.677 183.366L220.005 184.436L220.01 182.805Z"
      fill="black" />
  </g>
  <g clip-path="url(#clip1_1_996)">
    <path
      d="M167.471 129.704L163.256 127.521V128.729L164.741 129.499L164.732 134.337L165.968 134.978L165.977 130.14L167.471 130.901V129.704Z"
      fill="black" />
    <path
      d="M169.344 133.659V131.885L170.331 132.396C170.838 132.656 170.995 132.925 170.995 133.371V133.854C170.995 134.309 170.856 134.448 170.321 134.17L169.334 133.659M170.395 131.217L168.098 130.028L168.08 136.073L169.325 136.714V134.838L170.054 135.219L171.271 137.726L172.747 138.487L171.419 135.739C171.972 135.767 172.222 135.395 172.222 134.634V133.891C172.222 132.749 171.733 131.913 170.386 131.226"
      fill="black" />
    <path
      d="M174.97 137.317L175.616 135.117L176.234 137.977L174.961 137.317M176.436 134.346L174.785 133.492L173.079 138.664L174.37 139.332L174.675 138.311L176.519 139.267L176.815 140.604L178.106 141.273L176.427 134.355"
      fill="black" />
    <path d="M180.052 136.212L178.807 135.562L178.788 141.607L180.033 142.248L180.052 136.212Z" fill="black" />
    <path
      d="M185.698 139.128L184.518 138.515L184.499 142.684L182.7 137.577L181.169 136.788L181.16 142.833L182.341 143.446L182.359 139.472L184.149 144.374L185.68 145.173L185.698 139.128Z"
      fill="black" />
    <path
      d="M192.293 142.545L188.087 140.363L188.078 141.57L189.563 142.331L189.544 147.169L190.789 147.81L190.808 142.981L192.293 143.743V142.545Z"
      fill="black" />
    <path
      d="M194.848 148.803C194.23 148.478 193.953 148.051 193.953 147.578V145.284C193.953 144.81 194.239 144.662 194.857 144.987C195.475 145.312 195.752 145.739 195.752 146.213V148.506C195.752 148.98 195.466 149.128 194.848 148.803ZM194.866 143.78C193.307 142.972 192.726 143.603 192.717 144.523V147.048C192.708 147.967 193.289 149.202 194.848 150.01C196.407 150.818 196.988 150.187 196.997 149.267V146.742C197.006 145.832 196.434 144.597 194.866 143.789"
      fill="black" />
    <path
      d="M203.177 148.172L199.7 146.371L199.681 152.415L203.159 154.207V153.01L200.926 151.849V150.54L202.993 151.598V150.391L200.936 149.333V148.218L203.168 149.37L203.177 148.172Z"
      fill="black" />
    <path
      d="M205.658 153.195L206.304 150.995L206.922 153.854L205.649 153.195M207.125 150.224L205.474 149.37L203.767 154.542L205.059 155.21L205.363 154.189L207.208 155.145L207.503 156.482L208.794 157.151L207.116 150.233"
      fill="black" />
    <path
      d="M210.685 155.043V153.27L211.681 153.78C212.188 154.04 212.345 154.31 212.345 154.755V155.238C212.345 155.693 212.207 155.832 211.672 155.554L210.685 155.043ZM211.755 152.61L209.458 151.422L209.44 157.467L210.676 158.107V156.232L211.414 156.612L212.631 159.119L214.107 159.881L212.779 157.123C213.341 157.151 213.59 156.779 213.59 156.018V155.275C213.59 154.133 213.102 153.298 211.755 152.61Z"
      fill="black" />
    <path
      d="M219.31 156.52L218.129 155.907L218.11 160.076L216.312 154.969L214.781 154.18L214.771 160.215L215.952 160.828L215.961 156.854L217.76 161.766L219.291 162.555L219.31 156.52Z"
      fill="black" />
  </g>
  <g clip-path="url(#clip2_1_996)">
    <path
      d="M116.732 14.4614C114.749 13.4384 113.067 14.3843 112.976 16.5634C112.885 18.7425 114.412 21.342 116.388 22.3649C118.364 23.3879 120.039 22.442 120.137 20.2559C120.235 18.0698 118.701 15.4774 116.732 14.4614Z"
      fill="black" />
  </g>
  <g clip-path="url(#clip3_1_996)">
    <path
      d="M127.241 20.7676C125.259 19.7446 123.577 20.6905 123.486 22.8696C123.395 25.0486 124.922 27.6481 126.898 28.6711C128.874 29.6941 130.549 28.7482 130.647 26.5621C130.745 24.376 129.21 21.7835 127.241 20.7676Z"
      fill="black" />
  </g>
  <g clip-path="url(#clip4_1_996)">
    <path
      d="M137.752 27.0737C135.769 26.0507 134.087 26.9966 133.996 29.1757C133.905 31.3548 135.433 33.9543 137.408 34.9773C139.384 36.0002 141.059 35.0543 141.157 32.8682C141.255 30.6822 139.721 28.0897 137.752 27.0737Z"
      fill="#EEEEEE" />
  </g>
  <path
    d="M317.951 219.547L317.951 219.547C310.906 215.801 303.419 215.913 296.139 218.911C288.961 221.866 281.988 227.63 275.877 235.266L336.417 261.366C339.629 246.553 335.232 232.146 324.524 223.989C324.136 223.696 322.706 222.699 321.257 221.712C319.8 220.72 318.363 219.766 317.951 219.547Z"
    fill="#B5B5B5" stroke="black" stroke-width="0.700669" />
  <path
    d="M336.667 261.855C335.339 267.726 332.813 273.65 329.033 279.246C315.544 299.214 291.759 306.715 275.899 296.001C275.899 296.001 273.379 294.456 270.103 292.007C258.083 283.023 260.757 256.519 271.602 240.465C272.789 238.708 274.027 237.015 275.3 235.41L336.667 261.855Z"
    fill="#545454" />
  <path
    d="M264.503 235.654C251.079 255.525 253.061 280.15 268.699 290.714C284.337 301.279 307.922 293.925 321.346 274.054C334.77 254.182 332.788 229.557 317.15 218.993C301.512 208.429 277.927 215.783 264.503 235.654Z"
    fill="#EEEEEE" stroke="black" stroke-width="0.700669" />
  <path
    d="M273.602 283.458C285.267 291.338 303.433 284.925 314.089 269.151C324.745 253.378 323.906 234.141 312.241 226.261C300.575 218.38 282.409 224.793 271.76 240.556C261.112 256.319 261.925 275.569 273.602 283.458Z"
    fill="#545454" />
  <path
    d="M294.883 252.235L294.432 254.553L295.246 256.626L293.049 256.414L290.96 257.484L291.411 255.166L290.587 253.086L292.794 253.305L294.883 252.235Z"
    fill="white" />
  <path
    d="M281.162 270.663C283.885 271.42 286.719 271.246 289.28 270.244C288.011 269.009 286.977 267.494 286.27 265.729C286.099 265.284 285.965 264.832 285.83 264.38C285.354 264.388 284.881 264.367 284.402 264.31C282.53 264.129 280.816 263.552 279.305 262.673C279.068 265.418 279.69 268.24 281.162 270.663ZM285.255 258.072C284.189 257.257 283.235 256.252 282.441 255.103C282.259 255.326 282.077 255.548 281.906 255.778C280.716 257.377 279.922 259.18 279.535 261.054C281.041 262.056 282.791 262.673 284.616 262.853C284.919 262.87 285.215 262.897 285.507 262.906C285.271 261.396 285.295 259.826 285.554 258.305C285.446 258.232 285.349 258.167 285.23 258.086L285.255 258.072ZM290.735 269.578C292.408 268.682 293.895 267.41 295.085 265.812C295.245 265.575 295.417 265.345 295.584 265.097C294.252 264.652 293.05 264.013 291.972 263.191L291.674 262.958C290.295 263.628 288.817 264.074 287.3 264.274C287.381 264.548 287.484 264.838 287.583 265.109C288.266 266.842 289.35 268.375 290.725 269.571L290.735 269.578ZM299.733 272.39C301.86 270.31 303.273 267.731 303.856 265.032C302.087 265.627 300.206 265.879 298.294 265.687C297.843 265.634 297.411 265.577 296.982 265.491C296.741 265.894 296.479 266.282 296.188 266.667C294.991 268.276 293.561 269.556 291.967 270.52C294.207 271.97 296.924 272.644 299.733 272.39ZM278.264 260.101C278.737 258.285 279.559 256.532 280.749 254.934C281.04 254.549 281.335 254.183 281.644 253.842C281.426 253.444 281.252 253.028 281.074 252.594C280.37 250.799 280.09 248.914 280.166 247.034C277.769 248.351 275.688 250.432 274.312 253.05C274.858 255.869 276.243 258.327 278.256 260.112L278.264 260.101ZM282.744 252.748C283.941 251.673 285.285 250.822 286.693 250.203C286.887 248.638 287.322 247.111 288.02 245.635C287.75 245.594 287.49 245.56 287.223 245.537C285.33 245.341 283.412 245.647 281.643 246.336C281.469 248.244 281.713 250.183 282.406 251.97C282.512 252.231 282.619 252.491 282.733 252.741L282.744 252.748ZM297.716 264.103C297.968 264.148 298.246 264.178 298.505 264.212C300.406 264.397 302.313 264.084 304.093 263.402C304.267 261.494 304.023 259.555 303.33 257.768C303.223 257.507 303.117 257.247 303.003 256.997C301.805 258.072 300.461 258.923 299.054 259.542C298.86 261.107 298.417 262.646 297.726 264.11L297.716 264.103ZM298.666 252.167L298.819 251.266C299.07 249.802 299.054 248.316 298.817 246.899C297.394 247.053 295.992 247.456 294.649 248.119L293.842 248.5L293.166 247.966L292.886 247.776C291.848 246.965 290.682 246.366 289.425 245.972C288.76 247.329 288.304 248.795 288.118 250.302L288.011 251.204L287.19 251.559C285.808 252.164 284.554 252.998 283.469 254.023C284.176 255.114 285.069 256.093 286.111 256.876L286.391 257.065L287.088 257.567L286.935 258.469C286.684 259.932 286.693 261.43 286.937 262.835C288.352 262.692 289.762 262.279 291.098 261.626L291.912 261.234L292.587 261.769C292.685 261.835 292.767 261.922 292.853 261.98C293.898 262.78 295.071 263.369 296.336 263.752C297.001 262.395 297.439 260.933 297.636 259.433L297.743 258.531L298.571 258.164C299.946 257.57 301.2 256.737 302.292 255.701C301.585 254.61 300.692 253.63 299.65 252.848C299.553 252.783 299.456 252.717 299.359 252.652L298.662 252.149L298.666 252.167ZM305.566 262.686C307.963 261.369 310.037 259.299 311.42 256.67C310.885 253.859 309.489 251.393 307.487 249.616C307.014 251.432 306.191 253.184 305.001 254.783C304.71 255.167 304.415 255.533 304.107 255.874C304.306 256.276 304.499 256.689 304.676 257.123C305.38 258.917 305.661 260.803 305.584 262.682L305.566 262.686ZM281.913 244.681C283.681 244.086 285.563 243.834 287.467 244.037C287.918 244.09 288.35 244.147 288.779 244.232C289.02 243.83 289.282 243.442 289.573 243.057C290.763 241.459 292.2 240.168 293.794 239.204C291.554 237.754 288.838 237.08 286.028 237.334C283.908 239.403 282.496 241.982 281.905 244.692L281.913 244.681ZM303.356 254.614C303.542 254.409 303.72 254.169 303.884 253.95C305.074 252.351 305.861 250.559 306.255 248.674C304.749 247.672 302.988 247.048 301.174 246.874C300.871 246.858 300.575 246.831 300.283 246.822C300.519 248.332 300.495 249.901 300.236 251.423C300.344 251.496 300.441 251.561 300.549 251.634C301.627 252.456 302.57 253.454 303.364 254.603L303.356 254.614ZM294.112 246.752C295.491 246.082 296.959 245.629 298.487 245.436C298.402 245.143 298.303 244.872 298.203 244.601C297.51 242.86 296.437 241.335 295.051 240.132C293.389 241.034 291.891 242.299 290.701 243.898C290.523 244.139 290.37 244.365 290.202 244.613C291.524 245.05 292.736 245.697 293.814 246.519L294.112 246.752ZM299.985 245.333C300.461 245.325 300.934 245.346 301.414 245.403C303.275 245.577 305 246.161 306.51 247.04C306.747 244.296 306.118 241.484 304.653 239.05C301.926 238.276 299.103 238.457 296.542 239.459C297.812 240.693 298.846 242.208 299.535 243.977C299.705 244.422 299.858 244.87 299.992 245.322L299.985 245.333ZM305.6 237.742L305.621 237.757C307.588 240.75 308.367 244.385 307.854 247.933C310.552 250.006 312.373 253.168 312.961 256.784L312.946 256.805C311.305 260.188 308.607 262.856 305.422 264.363C304.874 267.871 303.053 271.241 300.298 273.761L300.276 273.794C296.676 274.219 293.181 273.303 290.476 271.287C287.237 272.758 283.576 273.017 280.19 271.939L280.169 271.924C278.202 268.931 277.424 265.296 277.947 261.755C275.249 259.682 273.421 256.531 272.84 252.904L272.855 252.883C274.496 249.5 277.194 246.832 280.379 245.325C280.927 241.817 282.741 238.458 285.503 235.927L285.525 235.894C289.118 235.48 292.62 236.385 295.318 238.412C298.564 236.931 302.225 236.671 305.603 237.76"
    fill="white" />
  <path
    d="M308.593 173.286L361.97 201.123C370.753 205.701 376.26 214.771 376.26 224.67V290.028C376.26 299.865 370.816 308.883 362.121 313.487L308.959 341.651C301.209 345.751 291.935 345.789 284.16 341.726L230.796 313.902C222.013 309.324 216.507 300.255 216.507 290.355V224.984C216.507 215.148 221.95 206.129 230.645 201.525L283.795 173.362C291.545 169.261 300.819 169.224 308.593 173.286Z"
    fill="white" fill-opacity="0.2" stroke="#252525" stroke-width="1.40134" stroke-miterlimit="10" />
  <path d="M242.266 222.069L296.22 250.414L296.358 327.18" stroke="#545454" stroke-width="0.700669"
    stroke-miterlimit="10" />
  <path d="M350.652 222.069L296.219 250.414" stroke="#545454" stroke-width="0.700669" stroke-miterlimit="10" />
  <defs>
    <clipPath id="clip0_1_996">
      <rect width="6.30602" height="7.00669" fill="white" transform="translate(213.704 178.67)" />
    </clipPath>
    <clipPath id="clip1_1_996">
      <rect width="56.0535" height="35.0334" fill="white" transform="translate(163.256 127.521)" />
    </clipPath>
    <clipPath id="clip2_1_996">
      <rect width="7.49716" height="11.5961" fill="white" transform="translate(112.808 12.6118)" />
    </clipPath>
    <clipPath id="clip3_1_996">
      <rect width="7.49716" height="11.5961" fill="white" transform="translate(123.318 18.918)" />
    </clipPath>
    <clipPath id="clip4_1_996">
      <rect width="7.49716" height="11.5961" fill="white" transform="translate(133.828 25.2241)" />
    </clipPath>
  </defs>
</svg>