<svg width="243" height="33" viewBox="0 0 243 33" fill="none" xmlns="http://www.w3.org/2000/svg">
  <path fill-rule="evenodd" clip-rule="evenodd"
    d="M199.224 30.3502V1.95205C199.224 0.873949 200.098 0 201.176 0H201.201C202.279 0 203.153 0.873949 203.153 1.95205V30.3502C203.153 31.4283 202.279 32.3022 201.201 32.3022H201.176C200.098 32.3022 199.224 31.4283 199.224 30.3502ZM111.997 1.96429V30.3381C111.997 31.4229 111.117 32.3023 110.033 32.3023C108.948 32.3023 108.068 31.4229 108.068 30.3381V1.96429C108.068 0.879485 108.948 7.24792e-05 110.033 7.24792e-05C111.117 7.24792e-05 111.997 0.879485 111.997 1.96429ZM30.3421 3.92859H1.96827C0.883462 3.92859 0.00405025 3.04918 0.00405025 1.96437C0.00405025 0.879565 0.883462 0.000152826 1.96827 0.000152826H30.3421C31.4269 0.000152826 32.3063 0.879565 32.3063 1.96437C32.3063 3.04918 31.4269 3.92859 30.3421 3.92859ZM166.825 18.1154H184.284C185.369 18.1154 186.248 17.236 186.248 16.1512C186.248 15.0664 185.369 14.187 184.284 14.187H166.825C165.74 14.187 164.861 15.0664 164.861 16.1512C164.861 17.236 165.74 18.1154 166.825 18.1154ZM219.211 18.1154H234.487C235.572 18.1154 236.451 17.236 236.451 16.1512C236.451 15.0664 235.572 14.187 234.487 14.187H219.211C218.126 14.187 217.246 15.0664 217.246 16.1512C217.246 17.236 218.126 18.1154 219.211 18.1154ZM6.33408 18.1154H25.9763C27.0611 18.1154 27.9405 17.236 27.9405 16.1512C27.9405 15.0664 27.0611 14.187 25.9763 14.187H6.33408C5.24927 14.187 4.36986 15.0664 4.36986 16.1512C4.36986 17.236 5.24927 18.1154 6.33408 18.1154ZM12.8788 11.0199H1.96421C0.879406 11.0199 0 10.1405 0 9.05571C0 7.9709 0.879406 7.09149 1.96421 7.09149H12.8788C13.9636 7.09149 14.843 7.9709 14.843 9.05571C14.843 10.1405 13.9636 11.0199 12.8788 11.0199ZM12.8828 25.2069H30.3421C31.4269 25.2069 32.3063 24.3275 32.3063 23.2427C32.3063 22.1579 31.4269 21.2785 30.3421 21.2785H12.8828C11.798 21.2785 10.9186 22.1579 10.9186 23.2427C10.9186 24.3275 11.798 25.2069 12.8828 25.2069ZM134.599 25.2069H121.502C120.417 25.2069 119.538 24.3275 119.538 23.2427C119.538 22.1579 120.417 21.2785 121.502 21.2785H134.599C135.684 21.2785 136.564 22.1579 136.564 23.2427C136.564 24.3275 135.684 25.2069 134.599 25.2069ZM176.642 25.2069H189.739C190.824 25.2069 191.704 24.3275 191.704 23.2427C191.704 22.1579 190.824 21.2785 189.739 21.2785H176.642C175.557 21.2785 174.678 22.1579 174.678 23.2427C174.678 24.3275 175.557 25.2069 176.642 25.2069ZM128.051 11.0199H121.502C120.417 11.0199 119.538 10.1405 119.538 9.05571C119.538 7.9709 120.417 7.09149 121.502 7.09149H128.051C129.136 7.09149 130.015 7.9709 130.015 9.05571C130.015 10.1405 129.136 11.0199 128.051 11.0199ZM161.365 11.0199H167.914C168.999 11.0199 169.878 10.1405 169.878 9.05571C169.878 7.9709 168.999 7.09149 167.914 7.09149H161.365C160.281 7.09149 159.401 7.9709 159.401 9.05571C159.401 10.1405 160.281 11.0199 161.365 11.0199ZM241.036 25.2069H234.487C233.402 25.2069 232.523 24.3275 232.523 23.2427C232.523 22.1579 233.402 21.2785 234.487 21.2785H241.036C242.121 21.2785 243 22.1579 243 23.2427C243 24.3275 242.121 25.2069 241.036 25.2069ZM212.662 11.0199H217.028C218.113 11.0199 218.992 10.1405 218.992 9.05571C218.992 7.9709 218.113 7.09149 217.028 7.09149H212.662C211.577 7.09149 210.698 7.9709 210.698 9.05571C210.698 10.1405 211.577 11.0199 212.662 11.0199ZM30.3421 32.3022H1.96827C0.883462 32.3022 0.00405025 31.4228 0.00405025 30.338C0.00405025 29.2532 0.883462 28.3738 1.96827 28.3738H30.3421C31.4269 28.3738 32.3063 29.2532 32.3063 30.338C32.3063 31.4228 31.4269 32.3022 30.3421 32.3022ZM41.8115 11.0199H46.1773C47.2621 11.0199 48.1415 10.1405 48.1415 9.05571C48.1415 7.9709 47.2621 7.09149 46.1773 7.09149L41.8115 7.09149C40.7267 7.09149 39.8473 7.9709 39.8473 9.05571C39.8473 10.1405 40.7267 11.0199 41.8115 11.0199ZM46.1773 3.92859H41.8115C40.7267 3.92859 39.8473 3.04918 39.8473 1.96437C39.8473 0.879565 40.7267 0.000152826 41.8115 0.000152826H46.1773C47.2621 0.000152826 48.1415 0.879565 48.1415 1.96437C48.1415 3.04918 47.2621 3.92859 46.1773 3.92859ZM61.4537 11.0199H70.1853C71.2701 11.0199 72.1495 10.1405 72.1495 9.05571C72.1495 7.9709 71.2701 7.09149 70.1853 7.09149H61.4537C60.3689 7.09149 59.4895 7.9709 59.4895 9.05571C59.4895 10.1405 60.3689 11.0199 61.4537 11.0199ZM70.1853 3.92859H61.4537C60.3689 3.92859 59.4895 3.04918 59.4895 1.96437C59.4895 0.879565 60.3689 0.000152826 61.4537 0.000152826H70.1853C71.2701 0.000152826 72.1495 0.879565 72.1495 1.96437C72.1495 3.04918 71.2701 3.92859 70.1853 3.92859ZM41.7994 18.1154H70.1975C71.2756 18.1154 72.1495 17.2414 72.1495 16.1633V16.139C72.1495 15.0609 71.2756 14.187 70.1975 14.187H41.7994C40.7213 14.187 39.8473 15.0609 39.8473 16.139V16.1633C39.8473 17.2414 40.7213 18.1154 41.7994 18.1154ZM61.4577 25.2069H50.5431C49.4583 25.2069 48.5789 24.3275 48.5789 23.2427C48.5789 22.1579 49.4583 21.2785 50.5431 21.2785H61.4577C62.5425 21.2785 63.4219 22.1579 63.4219 23.2427C63.4219 24.3275 62.5425 25.2069 61.4577 25.2069ZM50.5431 32.3022H61.4577C62.5425 32.3022 63.4219 31.4228 63.4219 30.338C63.4219 29.2532 62.5425 28.3738 61.4577 28.3738H50.5431C49.4583 28.3738 48.5789 29.2532 48.5789 30.338C48.5789 31.4228 49.4583 32.3022 50.5431 32.3022ZM97.8099 24.8989V7.39918C97.8099 6.32556 96.9396 5.45522 95.8659 5.45522H95.8254C94.7518 5.45522 93.8815 6.32556 93.8815 7.39918V24.8989C93.8815 25.9726 94.7518 26.8429 95.8254 26.8429H95.8659C96.9396 26.8429 97.8099 25.9726 97.8099 24.8989ZM90.7144 1.92379V8.55353C90.7144 9.61597 89.8531 10.4772 88.7907 10.4772H88.7097C87.6473 10.4772 86.786 9.61597 86.786 8.55353V1.92379C86.786 0.86135 87.6473 7.24792e-05 88.7097 7.24792e-05H88.7907C89.8531 7.24792e-05 90.7144 0.86135 90.7144 1.92379ZM104.905 30.3584V12.8587C104.905 11.7851 104.035 10.9147 102.961 10.9147H102.921C101.847 10.9147 100.977 11.7851 100.977 12.8587V30.3584C100.977 31.4321 101.847 32.3024 102.921 32.3024H102.961C104.035 32.3024 104.905 31.4321 104.905 30.3584ZM83.623 1.96428V30.3381C83.623 31.4229 82.7436 32.3023 81.6588 32.3023C80.574 32.3023 79.6945 31.4229 79.6945 30.3381V1.96428C79.6945 0.879473 80.574 7.24792e-05 81.6588 7.24792e-05C82.7436 7.24792e-05 83.623 0.879473 83.623 1.96428ZM121.506 3.92859H149.88C150.965 3.92859 151.844 3.04918 151.844 1.96437C151.844 0.879565 150.965 0.000152826 149.88 0.000152826H121.506C120.421 0.000152826 119.542 0.879565 119.542 1.96437C119.542 3.04918 120.421 3.92859 121.506 3.92859ZM149.88 18.1154H121.506C120.421 18.1154 119.542 17.236 119.542 16.1512C119.542 15.0664 120.421 14.187 121.506 14.187H149.88C150.965 14.187 151.844 15.0664 151.844 16.1512C151.844 17.236 150.965 18.1154 149.88 18.1154ZM121.506 32.3022H149.88C150.965 32.3022 151.844 31.4228 151.844 30.338C151.844 29.2532 150.965 28.3738 149.88 28.3738H121.506C120.421 28.3738 119.542 29.2532 119.542 30.338C119.542 31.4228 120.421 32.3022 121.506 32.3022ZM189.739 3.92859H161.365C160.281 3.92859 159.401 3.04918 159.401 1.96437C159.401 0.879565 160.281 0.000152826 161.365 0.000152826H189.739C190.824 0.000152826 191.704 0.879565 191.704 1.96437C191.704 3.04918 190.824 3.92859 189.739 3.92859ZM161.365 32.3022H189.739C190.824 32.3022 191.704 31.4228 191.704 30.338C191.704 29.2532 190.824 28.3738 189.739 28.3738H161.365C160.281 28.3738 159.401 29.2532 159.401 30.338C159.401 31.4228 160.281 32.3022 161.365 32.3022ZM241.036 3.92859H212.662C211.577 3.92859 210.698 3.04918 210.698 1.96437C210.698 0.879565 211.577 0.000152826 212.662 0.000152826H241.036C242.121 0.000152826 243 0.879565 243 1.96437C243 3.04918 242.121 3.92859 241.036 3.92859ZM212.662 32.3022H241.036C242.121 32.3022 243 31.4228 243 30.338C243 29.2532 242.121 28.3738 241.036 28.3738H212.662C211.577 28.3738 210.698 29.2532 210.698 30.338C210.698 31.4228 211.577 32.3022 212.662 32.3022Z"
    fill="white" />
</svg>